{
.appVersion = "3039";
.storedFileType = com.schriftgestaltung.glyphs;
.formatVersion = 3;
DisplayStrings = (
"/_smart.zha ዠ",
"/_smart.zha ዠ",
"/za.base ዠ",
"/ya.base ዶ",
"/ya.base ዴ",
"/ya.base ዼ",
"/ya.base ዼ",
"/wa.base ቀ",
"/ra.base ፈ",
"/fa.part",
"/_smart.fa",
"/_smart.fa ፈ",
"/ra.base ፈ",
"/ra.base ፉ",
"/hha.base ሑ",
"/ma.base ሙ",
"/ma.base ሚ",
"/hha.base ሔ",
"/ma.base ሜ",
"/sa.base ሡ",
"/sa.base ሢ",
"/na.base ር",
"ር",
"/na.base ሮ",
"/wa.base ቀ",
"/wa.base ቀ",
"/la.base ሎ",
"/la.base ሌ",
"/hha.base ሔ",
"/ba.base ሴ",
"/pa.base ቷ",
"/pa.base ቷ",
"/pa.base ቸ",
"/_smart.ka ኬ",
"/za.base ዜ",
"/ga.base ጋ",
"/ga.base ጉ",
"/ga.base ጊ",
"/ga.base ጌ",
"/ga.base",
"/ga.base",
"/ga.base",
"/ga.base",
"ጉ",
"/tsa.base ጰ",
"/tsa.base ጳ",
"/tsa.base ጳ",
"/tsa.base ጱ",
"/tsa.base ጲ",
"/tsa.base ጷ",
"/tsa.base ጶ",
"ፓ",
"/tsa.base ጼ",
"ብ",
"/ha.base.cap/ha-ethiopic.etcp",
"/la.base.cap/la-ethiopic.etcp",
"/ba.base.cap",
"/ga.base.cap",
"/ha.base.cap",
"/_smart.neck.hha.caps/hha.base.cap",
"/la.base.cap",
"/ma.base.cap",
"/na.base.cap",
"/nyaa-ethiopic.etcp",
"/oPh.base.cap",
"/pa.base.cap",
"",
"/ha-ethiopic.etcp",
"/ha-ethiopic.etcp",
"/ha-ethiopic.etcp",
"/ha.base.cap/hu-ethiopic.etcp",
"/ha-ethiopic.etcp/hu-ethiopic.etcp",
"/ha.base.cap/hu-ethiopic.etcp",
"/ha.base.cap/hi-ethiopic.etcp",
"/ha.base.cap/haa-ethiopic.etcp",
"/ha.base.cap/hee-ethiopic.etcp",
"/ha.base.cap/he-ethiopic.etcp",
"/ha.base.cap/ho-ethiopic.etcp",
"/ha.base.cap/hoa-ethiopic.etcp",
"/ha.base.cap/hoa-ethiopic.etcp",
"/ha.base.cap/hoa-ethiopic.etcp",
"/ha.base.cap/hoa-ethiopic.etcp",
"/la.base.cap/lu-ethiopic.etcp",
"/la.base.cap/li-ethiopic.etcp",
"/la.base.cap/laa-ethiopic.etcp",
"/la.base.cap/lee-ethiopic.etcp",
"/la.base.cap/le-ethiopic.etcp",
"/la.base.cap/lo-ethiopic.etcp",
"/la.base.cap/lwa-ethiopic.etcp",
"/hha-ethiopic.etcp/hhu-ethiopic.etcp",
"/hha.base.cap/hha-ethiopic.etcp",

glyphs = (
{
glyphname = .notdef;
lastChange = "2020-12-06 18:37:19 +0000";
layers = (
{
layerId = "A9B054E9-1A63-4AEF-9EE1-561B1DFE8422";
shapes = (
{
closed = 1;
nodes = (
(808,0,l),
(808,1456,l),
(100,1456,l),
(100,0,l)
);
},
{
closed = 1;
nodes = (
(451,660,l),
(709,54,l),
(194,54,l)
);
},
{
closed = 1;
nodes = (
(154,1359,l),
(422,728,l),
(154,96,l)
);
},
{
closed = 1;
nodes = (
(480,728,l),
(754,1371,l),
(754,84,l)
);
},
{
closed = 1;
nodes = (
(194,1402,l),
(709,1402,l),
(451,796,l)
);
}
);
userData = {
assembly = "PUSHB[ ]	/* 3 values pushed */
12 16 17 
SRP1[ ]	/* SetRefPoint1 */
SRP2[ ]	/* SetRefPoint2 */
IP[ ]	/* InterpolatePts */
PUSHB[ ]	/* 1 value pushed */
12 
SRP0[ ]	/* SetRefPoint0 */
PUSHB[ ]	/* 1 value pushed */
0 
MDRP[10000]	/* MoveDirectRelPt */
PUSHB[ ]	/* 1 value pushed */
12 
SRP0[ ]	/* SetRefPoint0 */
PUSHB[ ]	/* 1 value pushed */
6 
MDRP[10000]	/* MoveDirectRelPt */
PUSHB[ ]	/* 1 value pushed */
12 
SRP0[ ]	/* SetRefPoint0 */
PUSHB[ ]	/* 1 value pushed */
9 
MDRP[10000]	/* MoveDirectRelPt */
PUSHB[ ]	/* 1 value pushed */
12 
SRP0[ ]	/* SetRefPoint0 */
PUSHB[ ]	/* 1 value pushed */
13 
MDRP[10000]	/* MoveDirectRelPt */
SVTCA[0]	/* SetFreedomAndProjectionVectorToAxis */
PUSHB[ ]	/* 1 value pushed */
0 
RCVT[ ]	/* ReadCVT */
IF[ ]	/* If */
PUSHB[ ]	/* 1 value pushed */
2 
MDAP[1]	/* MoveDirectAbsPt */
ELSE[ ]	/* Else */
PUSHB[ ]	/* 2 values pushed */
2 30 
MIAP[0]	/* MoveIndirectAbsPt */
EIF[ ]	/* EndIf */
PUSHB[ ]	/* 1 value pushed */
0 
RCVT[ ]	/* ReadCVT */
IF[ ]	/* If */
PUSHB[ ]	/* 1 value pushed */
0 
MDAP[1]	/* MoveDirectAbsPt */
ELSE[ ]	/* Else */
PUSHB[ ]	/* 2 values pushed */
0 18 
MIAP[0]	/* MoveIndirectAbsPt */
EIF[ ]	/* EndIf */
PUSHB[ ]	/* 3 values pushed */
4 2 0 
SRP1[ ]	/* SetRefPoint1 */
SRP2[ ]	/* SetRefPoint2 */
IP[ ]	/* InterpolatePts */
PUSHB[ ]	/* 3 values pushed */
5 2 0 
SRP1[ ]	/* SetRefPoint1 */
SRP2[ ]	/* SetRefPoint2 */
IP[ ]	/* InterpolatePts */
PUSHB[ ]	/* 3 values pushed */
7 2 0 
SRP1[ ]	/* SetRefPoint1 */
SRP2[ ]	/* SetRefPoint2 */
IP[ ]	/* InterpolatePts */
PUSHB[ ]	/* 3 values pushed */
8 2 0 
SRP1[ ]	/* SetRefPoint1 */
SRP2[ ]	/* SetRefPoint2 */
IP[ ]	/* InterpolatePts */
PUSHB[ ]	/* 2 values pushed */
10 12 
MIRP[10100]	/* MoveIndirectRelPt */
PUSHB[ ]	/* 3 values pushed */
12 2 0 
SRP1[ ]	/* SetRefPoint1 */
SRP2[ ]	/* SetRefPoint2 */
IP[ ]	/* InterpolatePts */
PUSHB[ ]	/* 3 values pushed */
13 2 0 
SRP1[ ]	/* SetRefPoint1 */
SRP2[ ]	/* SetRefPoint2 */
IP[ ]	/* InterpolatePts */
PUSHB[ ]	/* 1 value pushed */
2 
SRP0[ ]	/* SetRefPoint0 */
PUSHB[ ]	/* 2 values pushed */
14 12 
MIRP[10100]	/* MoveIndirectRelPt */
IUP[0]	/* InterpolateUntPts */
IUP[1]	/* InterpolateUntPts */";
};
width = 908;
},
{
layerId = m002;
shapes = (
{
closed = 1;
nodes = (
(808,0,l),
(808,1456,l),
(100,1456,l),
(100,0,l)
);
},
{
closed = 1;
nodes = (
(451,660,l),
(709,54,l),
(194,54,l)
);
},
{
closed = 1;
nodes = (
(154,1359,l),
(422,728,l),
(154,96,l)
);
},
{
closed = 1;
nodes = (
(480,728,l),
(754,1371,l),
(754,84,l)
);
},
{
closed = 1;
nodes = (
(194,1402,l),
(709,1402,l),
(451,796,l)
);
}
);
userData = {
assembly = "PUSHB[ ]	/* 3 values pushed */
12 16 17 
SRP1[ ]	/* SetRefPoint1 */
SRP2[ ]	/* SetRefPoint2 */
IP[ ]	/* InterpolatePts */
PUSHB[ ]	/* 1 value pushed */
12 
SRP0[ ]	/* SetRefPoint0 */
PUSHB[ ]	/* 1 value pushed */
0 
MDRP[10000]	/* MoveDirectRelPt */
PUSHB[ ]	/* 1 value pushed */
12 
SRP0[ ]	/* SetRefPoint0 */
PUSHB[ ]	/* 1 value pushed */
6 
MDRP[10000]	/* MoveDirectRelPt */
PUSHB[ ]	/* 1 value pushed */
12 
SRP0[ ]	/* SetRefPoint0 */
PUSHB[ ]	/* 1 value pushed */
9 
MDRP[10000]	/* MoveDirectRelPt */
PUSHB[ ]	/* 1 value pushed */
12 
SRP0[ ]	/* SetRefPoint0 */
PUSHB[ ]	/* 1 value pushed */
13 
MDRP[10000]	/* MoveDirectRelPt */
SVTCA[0]	/* SetFreedomAndProjectionVectorToAxis */
PUSHB[ ]	/* 1 value pushed */
0 
RCVT[ ]	/* ReadCVT */
IF[ ]	/* If */
PUSHB[ ]	/* 1 value pushed */
2 
MDAP[1]	/* MoveDirectAbsPt */
ELSE[ ]	/* Else */
PUSHB[ ]	/* 2 values pushed */
2 30 
MIAP[0]	/* MoveIndirectAbsPt */
EIF[ ]	/* EndIf */
PUSHB[ ]	/* 1 value pushed */
0 
RCVT[ ]	/* ReadCVT */
IF[ ]	/* If */
PUSHB[ ]	/* 1 value pushed */
0 
MDAP[1]	/* MoveDirectAbsPt */
ELSE[ ]	/* Else */
PUSHB[ ]	/* 2 values pushed */
0 18 
MIAP[0]	/* MoveIndirectAbsPt */
EIF[ ]	/* EndIf */
PUSHB[ ]	/* 3 values pushed */
4 2 0 
SRP1[ ]	/* SetRefPoint1 */
SRP2[ ]	/* SetRefPoint2 */
IP[ ]	/* InterpolatePts */
PUSHB[ ]	/* 3 values pushed */
5 2 0 
SRP1[ ]	/* SetRefPoint1 */
SRP2[ ]	/* SetRefPoint2 */
IP[ ]	/* InterpolatePts */
PUSHB[ ]	/* 3 values pushed */
7 2 0 
SRP1[ ]	/* SetRefPoint1 */
SRP2[ ]	/* SetRefPoint2 */
IP[ ]	/* InterpolatePts */
PUSHB[ ]	/* 3 values pushed */
8 2 0 
SRP1[ ]	/* SetRefPoint1 */
SRP2[ ]	/* SetRefPoint2 */
IP[ ]	/* InterpolatePts */
PUSHB[ ]	/* 2 values pushed */
10 12 
MIRP[10100]	/* MoveIndirectRelPt */
PUSHB[ ]	/* 3 values pushed */
12 2 0 
SRP1[ ]	/* SetRefPoint1 */
SRP2[ ]	/* SetRefPoint2 */
IP[ ]	/* InterpolatePts */
PUSHB[ ]	/* 3 values pushed */
13 2 0 
SRP1[ ]	/* SetRefPoint1 */
SRP2[ ]	/* SetRefPoint2 */
IP[ ]	/* InterpolatePts */
PUSHB[ ]	/* 1 value pushed */
2 
SRP0[ ]	/* SetRefPoint0 */
PUSHB[ ]	/* 2 values pushed */
14 12 
MIRP[10100]	/* MoveIndirectRelPt */
IUP[0]	/* InterpolateUntPts */
IUP[1]	/* InterpolateUntPts */";
};
width = 908;
},
{
layerId = m003;
shapes = (
{
closed = 1;
nodes = (
(808,0,l),
(808,1456,l),
(100,1456,l),
(100,0,l)
);
},
{
closed = 1;
nodes = (
(451,660,l),
(709,54,l),
(194,54,l)
);
},
{
closed = 1;
nodes = (
(154,1359,l),
(422,728,l),
(154,96,l)
);
},
{
closed = 1;
nodes = (
(480,728,l),
(754,1371,l),
(754,84,l)
);
},
{
closed = 1;
nodes = (
(194,1402,l),
(709,1402,l),
(451,796,l)
);
}
);
userData = {
assembly = "PUSHB[ ]	/* 3 values pushed */
12 16 17 
SRP1[ ]	/* SetRefPoint1 */
SRP2[ ]	/* SetRefPoint2 */
IP[ ]	/* InterpolatePts */
PUSHB[ ]	/* 1 value pushed */
12 
SRP0[ ]	/* SetRefPoint0 */
PUSHB[ ]	/* 1 value pushed */
0 
MDRP[10000]	/* MoveDirectRelPt */
PUSHB[ ]	/* 1 value pushed */
12 
SRP0[ ]	/* SetRefPoint0 */
PUSHB[ ]	/* 1 value pushed */
6 
MDRP[10000]	/* MoveDirectRelPt */
PUSHB[ ]	/* 1 value pushed */
12 
SRP0[ ]	/* SetRefPoint0 */
PUSHB[ ]	/* 1 value pushed */
9 
MDRP[10000]	/* MoveDirectRelPt */
PUSHB[ ]	/* 1 value pushed */
12 
SRP0[ ]	/* SetRefPoint0 */
PUSHB[ ]	/* 1 value pushed */
13 
MDRP[10000]	/* MoveDirectRelPt */
SVTCA[0]	/* SetFreedomAndProjectionVectorToAxis */
PUSHB[ ]	/* 1 value pushed */
0 
RCVT[ ]	/* ReadCVT */
IF[ ]	/* If */
PUSHB[ ]	/* 1 value pushed */
2 
MDAP[1]	/* MoveDirectAbsPt */
ELSE[ ]	/* Else */
PUSHB[ ]	/* 2 values pushed */
2 30 
MIAP[0]	/* MoveIndirectAbsPt */
EIF[ ]	/* EndIf */
PUSHB[ ]	/* 1 value pushed */
0 
RCVT[ ]	/* ReadCVT */
IF[ ]	/* If */
PUSHB[ ]	/* 1 value pushed */
0 
MDAP[1]	/* MoveDirectAbsPt */
ELSE[ ]	/* Else */
PUSHB[ ]	/* 2 values pushed */
0 18 
MIAP[0]	/* MoveIndirectAbsPt */
EIF[ ]	/* EndIf */
PUSHB[ ]	/* 3 values pushed */
4 2 0 
SRP1[ ]	/* SetRefPoint1 */
SRP2[ ]	/* SetRefPoint2 */
IP[ ]	/* InterpolatePts */
PUSHB[ ]	/* 3 values pushed */
5 2 0 
SRP1[ ]	/* SetRefPoint1 */
SRP2[ ]	/* SetRefPoint2 */
IP[ ]	/* InterpolatePts */
PUSHB[ ]	/* 3 values pushed */
7 2 0 
SRP1[ ]	/* SetRefPoint1 */
SRP2[ ]	/* SetRefPoint2 */
IP[ ]	/* InterpolatePts */
PUSHB[ ]	/* 3 values pushed */
8 2 0 
SRP1[ ]	/* SetRefPoint1 */
SRP2[ ]	/* SetRefPoint2 */
IP[ ]	/* InterpolatePts */
PUSHB[ ]	/* 2 values pushed */
10 12 
MIRP[10100]	/* MoveIndirectRelPt */
PUSHB[ ]	/* 3 values pushed */
12 2 0 
SRP1[ ]	/* SetRefPoint1 */
SRP2[ ]	/* SetRefPoint2 */
IP[ ]	/* InterpolatePts */
PUSHB[ ]	/* 3 values pushed */
13 2 0 
SRP1[ ]	/* SetRefPoint1 */
SRP2[ ]	/* SetRefPoint2 */
IP[ ]	/* InterpolatePts */
PUSHB[ ]	/* 1 value pushed */
2 
SRP0[ ]	/* SetRefPoint0 */
PUSHB[ ]	/* 2 values pushed */
14 12 
MIRP[10100]	/* MoveIndirectRelPt */
IUP[0]	/* InterpolateUntPts */
IUP[1]	/* InterpolateUntPts */";
};
width = 908;
},
{
layerId = m004;
shapes = (
{
closed = 1;
nodes = (
(617,0,l),
(874,1456,l),
(166,1456,l),
(-91,0,l)
);
},
{
closed = 1;
nodes = (
(377,660,l),
(528,54,l),
(13,54,l)
);
},
{
closed = 1;
nodes = (
(203,1359,l),
(360,728,l),
(-20,96,l)
);
},
{
closed = 1;
nodes = (
(418,728,l),
(805,1371,l),
(578,84,l)
);
},
{
closed = 1;
nodes = (
(250,1402,l),
(765,1402,l),
(401,796,l)
);
}
);
userData = {
assembly = "PUSHB[ ]	/* 3 values pushed */
12 16 17 
SRP1[ ]	/* SetRefPoint1 */
SRP2[ ]	/* SetRefPoint2 */
IP[ ]	/* InterpolatePts */
PUSHB[ ]	/* 1 value pushed */
12 
SRP0[ ]	/* SetRefPoint0 */
PUSHB[ ]	/* 1 value pushed */
0 
MDRP[10000]	/* MoveDirectRelPt */
PUSHB[ ]	/* 1 value pushed */
12 
SRP0[ ]	/* SetRefPoint0 */
PUSHB[ ]	/* 1 value pushed */
6 
MDRP[10000]	/* MoveDirectRelPt */
PUSHB[ ]	/* 1 value pushed */
12 
SRP0[ ]	/* SetRefPoint0 */
PUSHB[ ]	/* 1 value pushed */
9 
MDRP[10000]	/* MoveDirectRelPt */
PUSHB[ ]	/* 1 value pushed */
12 
SRP0[ ]	/* SetRefPoint0 */
PUSHB[ ]	/* 1 value pushed */
13 
MDRP[10000]	/* MoveDirectRelPt */
SVTCA[0]	/* SetFreedomAndProjectionVectorToAxis */
PUSHB[ ]	/* 1 value pushed */
0 
RCVT[ ]	/* ReadCVT */
IF[ ]	/* If */
PUSHB[ ]	/* 1 value pushed */
2 
MDAP[1]	/* MoveDirectAbsPt */
ELSE[ ]	/* Else */
PUSHB[ ]	/* 2 values pushed */
2 30 
MIAP[0]	/* MoveIndirectAbsPt */
EIF[ ]	/* EndIf */
PUSHB[ ]	/* 1 value pushed */
0 
RCVT[ ]	/* ReadCVT */
IF[ ]	/* If */
PUSHB[ ]	/* 1 value pushed */
0 
MDAP[1]	/* MoveDirectAbsPt */
ELSE[ ]	/* Else */
PUSHB[ ]	/* 2 values pushed */
0 18 
MIAP[0]	/* MoveIndirectAbsPt */
EIF[ ]	/* EndIf */
PUSHB[ ]	/* 3 values pushed */
4 2 0 
SRP1[ ]	/* SetRefPoint1 */
SRP2[ ]	/* SetRefPoint2 */
IP[ ]	/* InterpolatePts */
PUSHB[ ]	/* 3 values pushed */
5 2 0 
SRP1[ ]	/* SetRefPoint1 */
SRP2[ ]	/* SetRefPoint2 */
IP[ ]	/* InterpolatePts */
PUSHB[ ]	/* 3 values pushed */
7 2 0 
SRP1[ ]	/* SetRefPoint1 */
SRP2[ ]	/* SetRefPoint2 */
IP[ ]	/* InterpolatePts */
PUSHB[ ]	/* 3 values pushed */
8 2 0 
SRP1[ ]	/* SetRefPoint1 */
SRP2[ ]	/* SetRefPoint2 */
IP[ ]	/* InterpolatePts */
PUSHB[ ]	/* 2 values pushed */
10 12 
MIRP[10100]	/* MoveIndirectRelPt */
PUSHB[ ]	/* 3 values pushed */
12 2 0 
SRP1[ ]	/* SetRefPoint1 */
SRP2[ ]	/* SetRefPoint2 */
IP[ ]	/* InterpolatePts */
PUSHB[ ]	/* 3 values pushed */
13 2 0 
SRP1[ ]	/* SetRefPoint1 */
SRP2[ ]	/* SetRefPoint2 */
IP[ ]	/* InterpolatePts */
PUSHB[ ]	/* 1 value pushed */
2 
SRP0[ ]	/* SetRefPoint0 */
PUSHB[ ]	/* 2 values pushed */
14 12 
MIRP[10100]	/* MoveIndirectRelPt */
IUP[0]	/* InterpolateUntPts */
IUP[1]	/* InterpolateUntPts */";
};
width = 908;
},
{
layerId = m005;
shapes = (
{
closed = 1;
nodes = (
(617,0,l),
(874,1456,l),
(166,1456,l),
(-91,0,l)
);
},
{
closed = 1;
nodes = (
(377,660,l),
(528,54,l),
(13,54,l)
);
},
{
closed = 1;
nodes = (
(203,1359,l),
(360,728,l),
(-20,96,l)
);
},
{
closed = 1;
nodes = (
(418,728,l),
(805,1371,l),
(578,84,l)
);
},
{
closed = 1;
nodes = (
(250,1402,l),
(765,1402,l),
(401,796,l)
);
}
);
userData = {
assembly = "PUSHB[ ]	/* 3 values pushed */
12 16 17 
SRP1[ ]	/* SetRefPoint1 */
SRP2[ ]	/* SetRefPoint2 */
IP[ ]	/* InterpolatePts */
PUSHB[ ]	/* 1 value pushed */
12 
SRP0[ ]	/* SetRefPoint0 */
PUSHB[ ]	/* 1 value pushed */
0 
MDRP[10000]	/* MoveDirectRelPt */
PUSHB[ ]	/* 1 value pushed */
12 
SRP0[ ]	/* SetRefPoint0 */
PUSHB[ ]	/* 1 value pushed */
6 
MDRP[10000]	/* MoveDirectRelPt */
PUSHB[ ]	/* 1 value pushed */
12 
SRP0[ ]	/* SetRefPoint0 */
PUSHB[ ]	/* 1 value pushed */
9 
MDRP[10000]	/* MoveDirectRelPt */
PUSHB[ ]	/* 1 value pushed */
12 
SRP0[ ]	/* SetRefPoint0 */
PUSHB[ ]	/* 1 value pushed */
13 
MDRP[10000]	/* MoveDirectRelPt */
SVTCA[0]	/* SetFreedomAndProjectionVectorToAxis */
PUSHB[ ]	/* 1 value pushed */
0 
RCVT[ ]	/* ReadCVT */
IF[ ]	/* If */
PUSHB[ ]	/* 1 value pushed */
2 
MDAP[1]	/* MoveDirectAbsPt */
ELSE[ ]	/* Else */
PUSHB[ ]	/* 2 values pushed */
2 30 
MIAP[0]	/* MoveIndirectAbsPt */
EIF[ ]	/* EndIf */
PUSHB[ ]	/* 1 value pushed */
0 
RCVT[ ]	/* ReadCVT */
IF[ ]	/* If */
PUSHB[ ]	/* 1 value pushed */
0 
MDAP[1]	/* MoveDirectAbsPt */
ELSE[ ]	/* Else */
PUSHB[ ]	/* 2 values pushed */
0 18 
MIAP[0]	/* MoveIndirectAbsPt */
EIF[ ]	/* EndIf */
PUSHB[ ]	/* 3 values pushed */
4 2 0 
SRP1[ ]	/* SetRefPoint1 */
SRP2[ ]	/* SetRefPoint2 */
IP[ ]	/* InterpolatePts */
PUSHB[ ]	/* 3 values pushed */
5 2 0 
SRP1[ ]	/* SetRefPoint1 */
SRP2[ ]	/* SetRefPoint2 */
IP[ ]	/* InterpolatePts */
PUSHB[ ]	/* 3 values pushed */
7 2 0 
SRP1[ ]	/* SetRefPoint1 */
SRP2[ ]	/* SetRefPoint2 */
IP[ ]	/* InterpolatePts */
PUSHB[ ]	/* 3 values pushed */
8 2 0 
SRP1[ ]	/* SetRefPoint1 */
SRP2[ ]	/* SetRefPoint2 */
IP[ ]	/* InterpolatePts */
PUSHB[ ]	/* 2 values pushed */
10 12 
MIRP[10100]	/* MoveIndirectRelPt */
PUSHB[ ]	/* 3 values pushed */
12 2 0 
SRP1[ ]	/* SetRefPoint1 */
SRP2[ ]	/* SetRefPoint2 */
IP[ ]	/* InterpolatePts */
PUSHB[ ]	/* 3 values pushed */
13 2 0 
SRP1[ ]	/* SetRefPoint1 */
SRP2[ ]	/* SetRefPoint2 */
IP[ ]	/* InterpolatePts */
PUSHB[ ]	/* 1 value pushed */
2 
SRP0[ ]	/* SetRefPoint0 */
PUSHB[ ]	/* 2 values pushed */
14 12 
MIRP[10100]	/* MoveIndirectRelPt */
IUP[0]	/* InterpolateUntPts */
IUP[1]	/* InterpolateUntPts */";
};
width = 908;
}
);
note = .notdef;
},
{
glyphname = exclam;
lastChange = "2020-12-06 18:37:19 +0000";
layers = (
{
layerId = "A9B054E9-1A63-4AEF-9EE1-561B1DFE8422";
shapes = (
{
closed = 1;
nodes = (
(405,447,l),
(439,1456,l),
(131,1456,l),
(165,447,l)
);
},
{
closed = 1;
nodes = (
(382.333,-16,o),
(447,48,o),
(447,136,cs),
(447,225.333,o),
(382.333,289,o),
(285,289,cs),
(189,289,o),
(124,224,o),
(124,136,cs),
(124,48,o),
(189,-16,o),
(285,-16,cs)
);
}
);
userData = {
assembly = "SVTCA[0]	/* SetFreedomAndProjectionVectorToAxis */
PUSHB[ ]	/* 1 value pushed */
0 
RCVT[ ]	/* ReadCVT */
IF[ ]	/* If */
PUSHB[ ]	/* 1 value pushed */
2 
MDAP[1]	/* MoveDirectAbsPt */
ELSE[ ]	/* Else */
PUSHB[ ]	/* 2 values pushed */
2 30 
MIAP[0]	/* MoveIndirectAbsPt */
EIF[ ]	/* EndIf */
PUSHB[ ]	/* 1 value pushed */
0 
RCVT[ ]	/* ReadCVT */
IF[ ]	/* If */
PUSHB[ ]	/* 1 value pushed */
11 
MDAP[1]	/* MoveDirectAbsPt */
ELSE[ ]	/* Else */
PUSHB[ ]	/* 2 values pushed */
11 18 
MIAP[0]	/* MoveIndirectAbsPt */
EIF[ ]	/* EndIf */
PUSHB[ ]	/* 2 values pushed */
6 5 
PUSHB[ ]	/* 1 value pushed */
10 
CALL[ ]	/* CallFunction */
IF[ ]	/* If */
POP[ ]	/* PopTopStack */
MDRP[11000]	/* MoveDirectRelPt */
ELSE[ ]	/* Else */
MIRP[10100]	/* MoveIndirectRelPt */
EIF[ ]	/* EndIf */
PUSHB[ ]	/* 3 values pushed */
1 6 2 
SRP1[ ]	/* SetRefPoint1 */
SRP2[ ]	/* SetRefPoint2 */
IP[ ]	/* InterpolatePts */
IUP[0]	/* InterpolateUntPts */
IUP[1]	/* InterpolateUntPts */";
};
width = 557;
},
{
layerId = m002;
shapes = (
{
closed = 1;
nodes = (
(347,411,l),
(361,1456,l),
(167,1456,l),
(180,411,l)
);
},
{
closed = 1;
nodes = (
(341,-11,o),
(379,33,o),
(379,93,cs),
(379,153,o),
(341,199,o),
(269,199,cs),
(197,199,o),
(160,153,o),
(160,93,cs),
(160,33,o),
(197,-11,o),
(269,-11,cs)
);
}
);
userData = {
assembly = "SVTCA[0]	/* SetFreedomAndProjectionVectorToAxis */
PUSHB[ ]	/* 1 value pushed */
0 
RCVT[ ]	/* ReadCVT */
IF[ ]	/* If */
PUSHB[ ]	/* 1 value pushed */
2 
MDAP[1]	/* MoveDirectAbsPt */
ELSE[ ]	/* Else */
PUSHB[ ]	/* 2 values pushed */
2 30 
MIAP[0]	/* MoveIndirectAbsPt */
EIF[ ]	/* EndIf */
PUSHB[ ]	/* 1 value pushed */
0 
RCVT[ ]	/* ReadCVT */
IF[ ]	/* If */
PUSHB[ ]	/* 1 value pushed */
11 
MDAP[1]	/* MoveDirectAbsPt */
ELSE[ ]	/* Else */
PUSHB[ ]	/* 2 values pushed */
11 18 
MIAP[0]	/* MoveIndirectAbsPt */
EIF[ ]	/* EndIf */
PUSHB[ ]	/* 2 values pushed */
6 5 
PUSHB[ ]	/* 1 value pushed */
10 
CALL[ ]	/* CallFunction */
IF[ ]	/* If */
POP[ ]	/* PopTopStack */
MDRP[11000]	/* MoveDirectRelPt */
ELSE[ ]	/* Else */
MIRP[10100]	/* MoveIndirectRelPt */
EIF[ ]	/* EndIf */
PUSHB[ ]	/* 3 values pushed */
1 6 2 
SRP1[ ]	/* SetRefPoint1 */
SRP2[ ]	/* SetRefPoint2 */
IP[ ]	/* InterpolatePts */
IUP[0]	/* InterpolateUntPts */
IUP[1]	/* InterpolateUntPts */";
};
width = 527;
},
{
layerId = m003;
shapes = (
{
closed = 1;
nodes = (
(221,401,l),
(221,1456,l),
(167,1456,l),
(167,401,l)
);
},
{
closed = 1;
nodes = (
(232.667,-6,o),
(258,18.333,o),
(258,49,cs),
(258,79.667,o),
(232.667,105,o),
(202,105,cs),
(171.333,105,o),
(147,79.667,o),
(147,49,cs),
(147,18.333,o),
(171.333,-6,o),
(202,-6,cs)
);
}
);
userData = {
assembly = "SVTCA[0]	/* SetFreedomAndProjectionVectorToAxis */
PUSHB[ ]	/* 1 value pushed */
0 
RCVT[ ]	/* ReadCVT */
IF[ ]	/* If */
PUSHB[ ]	/* 1 value pushed */
2 
MDAP[1]	/* MoveDirectAbsPt */
ELSE[ ]	/* Else */
PUSHB[ ]	/* 2 values pushed */
2 30 
MIAP[0]	/* MoveIndirectAbsPt */
EIF[ ]	/* EndIf */
PUSHB[ ]	/* 1 value pushed */
0 
RCVT[ ]	/* ReadCVT */
IF[ ]	/* If */
PUSHB[ ]	/* 1 value pushed */
11 
MDAP[1]	/* MoveDirectAbsPt */
ELSE[ ]	/* Else */
PUSHB[ ]	/* 2 values pushed */
11 18 
MIAP[0]	/* MoveIndirectAbsPt */
EIF[ ]	/* EndIf */
PUSHB[ ]	/* 2 values pushed */
6 5 
PUSHB[ ]	/* 1 value pushed */
10 
CALL[ ]	/* CallFunction */
IF[ ]	/* If */
POP[ ]	/* PopTopStack */
MDRP[11000]	/* MoveDirectRelPt */
ELSE[ ]	/* Else */
MIRP[10100]	/* MoveIndirectRelPt */
EIF[ ]	/* EndIf */
PUSHB[ ]	/* 3 values pushed */
1 6 2 
SRP1[ ]	/* SetRefPoint1 */
SRP2[ ]	/* SetRefPoint2 */
IP[ ]	/* InterpolatePts */
IUP[0]	/* InterpolateUntPts */
IUP[1]	/* InterpolateUntPts */";
};
width = 397;
},
{
layerId = m004;
shapes = (
{
closed = 1;
nodes = (
(229,411,l),
(427,1456,l),
(233,1456,l),
(62,411,l)
);
},
{
closed = 1;
nodes = (
(148,-11,o),
(194,33,o),
(205,93,cs),
(215,153,o),
(185,199,o),
(113,199,cs),
(41,199,o),
(-4,153,o),
(-14,93,cs),
(-25,33,o),
(4,-11,o),
(76,-11,cs)
);
}
);
userData = {
assembly = "SVTCA[0]	/* SetFreedomAndProjectionVectorToAxis */
PUSHB[ ]	/* 1 value pushed */
0 
RCVT[ ]	/* ReadCVT */
IF[ ]	/* If */
PUSHB[ ]	/* 1 value pushed */
2 
MDAP[1]	/* MoveDirectAbsPt */
ELSE[ ]	/* Else */
PUSHB[ ]	/* 2 values pushed */
2 30 
MIAP[0]	/* MoveIndirectAbsPt */
EIF[ ]	/* EndIf */
PUSHB[ ]	/* 1 value pushed */
0 
RCVT[ ]	/* ReadCVT */
IF[ ]	/* If */
PUSHB[ ]	/* 1 value pushed */
11 
MDAP[1]	/* MoveDirectAbsPt */
ELSE[ ]	/* Else */
PUSHB[ ]	/* 2 values pushed */
11 18 
MIAP[0]	/* MoveIndirectAbsPt */
EIF[ ]	/* EndIf */
PUSHB[ ]	/* 2 values pushed */
6 5 
PUSHB[ ]	/* 1 value pushed */
10 
CALL[ ]	/* CallFunction */
IF[ ]	/* If */
POP[ ]	/* PopTopStack */
MDRP[11000]	/* MoveDirectRelPt */
ELSE[ ]	/* Else */
MIRP[10100]	/* MoveIndirectRelPt */
EIF[ ]	/* EndIf */
PUSHB[ ]	/* 3 values pushed */
1 6 2 
SRP1[ ]	/* SetRefPoint1 */
SRP2[ ]	/* SetRefPoint2 */
IP[ ]	/* InterpolatePts */
IUP[0]	/* InterpolateUntPts */
IUP[1]	/* InterpolateUntPts */";
};
width = 527;
},
{
layerId = m005;
shapes = (
{
closed = 1;
nodes = (
(101,401,l),
(287,1456,l),
(233,1456,l),
(47,401,l)
);
},
{
closed = 1;
nodes = (
(41,-6,o),
(70,18,o),
(76,49,cs),
(81,80,o),
(60,105,o),
(30,105,cs),
(-1,105,o),
(-30,80,o),
(-35,49,cs),
(-41,18,o),
(-21,-6,o),
(10,-6,cs)
);
}
);
userData = {
assembly = "SVTCA[0]	/* SetFreedomAndProjectionVectorToAxis */
PUSHB[ ]	/* 1 value pushed */
0 
RCVT[ ]	/* ReadCVT */
IF[ ]	/* If */
PUSHB[ ]	/* 1 value pushed */
2 
MDAP[1]	/* MoveDirectAbsPt */
ELSE[ ]	/* Else */
PUSHB[ ]	/* 2 values pushed */
2 30 
MIAP[0]	/* MoveIndirectAbsPt */
EIF[ ]	/* EndIf */
PUSHB[ ]	/* 1 value pushed */
0 
RCVT[ ]	/* ReadCVT */
IF[ ]	/* If */
PUSHB[ ]	/* 1 value pushed */
11 
MDAP[1]	/* MoveDirectAbsPt */
ELSE[ ]	/* Else */
PUSHB[ ]	/* 2 values pushed */
11 18 
MIAP[0]	/* MoveIndirectAbsPt */
EIF[ ]	/* EndIf */
PUSHB[ ]	/* 2 values pushed */
6 5 
PUSHB[ ]	/* 1 value pushed */
10 
CALL[ ]	/* CallFunction */
IF[ ]	/* If */
POP[ ]	/* PopTopStack */
MDRP[11000]	/* MoveDirectRelPt */
ELSE[ ]	/* Else */
MIRP[10100]	/* MoveIndirectRelPt */
EIF[ ]	/* EndIf */
PUSHB[ ]	/* 3 values pushed */
1 6 2 
SRP1[ ]	/* SetRefPoint1 */
SRP2[ ]	/* SetRefPoint2 */
IP[ ]	/* InterpolatePts */
IUP[0]	/* InterpolateUntPts */
IUP[1]	/* InterpolateUntPts */";
};
width = 397;
}
);
note = uni0021;
unicode = 33;
},
{
glyphname = quotedbl;
kernLeft = quotedbl;
kernRight = quotedbl;
lastChange = "2020-12-06 18:39:30 +0000";
layers = (
{
layerId = "A9B054E9-1A63-4AEF-9EE1-561B1DFE8422";
shapes = (
{
closed = 1;
nodes = (
(226,987,l),
(266,1398,l),
(266,1536,l),
(64,1536,l),
(64,987,l)
);
},
{
closed = 1;
nodes = (
(552,987,l),
(591,1398,l),
(591,1536,l),
(390,1536,l),
(390,987,l)
);
}
);
userData = {
assembly = "SVTCA[0]	/* SetFreedomAndProjectionVectorToAxis */
PUSHB[ ]	/* 1 value pushed */
3 
MDAP[1]	/* MoveDirectAbsPt */
PUSHB[ ]	/* 3 values pushed */
2 10 3 
SRP1[ ]	/* SetRefPoint1 */
SRP2[ ]	/* SetRefPoint2 */
IP[ ]	/* InterpolatePts */
PUSHB[ ]	/* 1 value pushed */
2 
MDAP[1]	/* MoveDirectAbsPt */
PUSHB[ ]	/* 1 value pushed */
7 
MDRP[10000]	/* MoveDirectRelPt */
PUSHB[ ]	/* 1 value pushed */
3 
SRP0[ ]	/* SetRefPoint0 */
PUSHB[ ]	/* 1 value pushed */
8 
MDRP[10000]	/* MoveDirectRelPt */
IUP[0]	/* InterpolateUntPts */
IUP[1]	/* InterpolateUntPts */";
};
width = 657;
},
{
layerId = m002;
shapes = (
{
closed = 1;
nodes = (
(517,1042,l),
(547,1400,l),
(547,1536,l),
(407,1536,l),
(406,1042,l)
);
},
{
closed = 1;
nodes = (
(247,1042,l),
(277,1400,l),
(277,1536,l),
(137,1536,l),
(136,1042,l)
);
}
);
userData = {
assembly = "SVTCA[0]	/* SetFreedomAndProjectionVectorToAxis */
PUSHB[ ]	/* 1 value pushed */
3 
MDAP[1]	/* MoveDirectAbsPt */
PUSHB[ ]	/* 3 values pushed */
2 10 3 
SRP1[ ]	/* SetRefPoint1 */
SRP2[ ]	/* SetRefPoint2 */
IP[ ]	/* InterpolatePts */
PUSHB[ ]	/* 1 value pushed */
2 
MDAP[1]	/* MoveDirectAbsPt */
PUSHB[ ]	/* 1 value pushed */
7 
MDRP[10000]	/* MoveDirectRelPt */
PUSHB[ ]	/* 1 value pushed */
3 
SRP0[ ]	/* SetRefPoint0 */
PUSHB[ ]	/* 1 value pushed */
8 
MDRP[10000]	/* MoveDirectRelPt */
IUP[0]	/* InterpolateUntPts */
IUP[1]	/* InterpolateUntPts */";
};
width = 655;
},
{
layerId = m003;
shapes = (
{
closed = 1;
nodes = (
(401,1122,l),
(411,1393,l),
(411,1536,l),
(357,1536,l),
(351,1122,l)
);
},
{
closed = 1;
nodes = (
(200,1122,l),
(210,1393,l),
(210,1536,l),
(155,1536,l),
(150,1122,l)
);
}
);
userData = {
assembly = "SVTCA[0]	/* SetFreedomAndProjectionVectorToAxis */
PUSHB[ ]	/* 1 value pushed */
3 
MDAP[1]	/* MoveDirectAbsPt */
PUSHB[ ]	/* 3 values pushed */
2 10 3 
SRP1[ ]	/* SetRefPoint1 */
SRP2[ ]	/* SetRefPoint2 */
IP[ ]	/* InterpolatePts */
PUSHB[ ]	/* 1 value pushed */
2 
MDAP[1]	/* MoveDirectAbsPt */
PUSHB[ ]	/* 1 value pushed */
7 
MDRP[10000]	/* MoveDirectRelPt */
PUSHB[ ]	/* 1 value pushed */
3 
SRP0[ ]	/* SetRefPoint0 */
PUSHB[ ]	/* 1 value pushed */
8 
MDRP[10000]	/* MoveDirectRelPt */
IUP[0]	/* InterpolateUntPts */
IUP[1]	/* InterpolateUntPts */";
};
width = 521;
},
{
layerId = m004;
shapes = (
{
closed = 1;
nodes = (
(510,1042,l),
(603,1400,l),
(627,1536,l),
(487,1536,l),
(399,1042,l)
);
},
{
closed = 1;
nodes = (
(240,1042,l),
(333,1400,l),
(357,1536,l),
(217,1536,l),
(129,1042,l)
);
}
);
userData = {
assembly = "SVTCA[0]	/* SetFreedomAndProjectionVectorToAxis */
PUSHB[ ]	/* 1 value pushed */
3 
MDAP[1]	/* MoveDirectAbsPt */
PUSHB[ ]	/* 3 values pushed */
2 10 3 
SRP1[ ]	/* SetRefPoint1 */
SRP2[ ]	/* SetRefPoint2 */
IP[ ]	/* InterpolatePts */
PUSHB[ ]	/* 1 value pushed */
2 
MDAP[1]	/* MoveDirectAbsPt */
PUSHB[ ]	/* 1 value pushed */
7 
MDRP[10000]	/* MoveDirectRelPt */
PUSHB[ ]	/* 1 value pushed */
3 
SRP0[ ]	/* SetRefPoint0 */
PUSHB[ ]	/* 1 value pushed */
8 
MDRP[10000]	/* MoveDirectRelPt */
IUP[0]	/* InterpolateUntPts */
IUP[1]	/* InterpolateUntPts */";
};
width = 655;
},
{
layerId = m005;
shapes = (
{
closed = 1;
nodes = (
(408,1122,l),
(466,1393,l),
(491,1536,l),
(437,1536,l),
(358,1122,l)
);
},
{
closed = 1;
nodes = (
(207,1122,l),
(265,1393,l),
(290,1536,l),
(235,1536,l),
(157,1122,l)
);
}
);
userData = {
assembly = "SVTCA[0]	/* SetFreedomAndProjectionVectorToAxis */
PUSHB[ ]	/* 1 value pushed */
3 
MDAP[1]	/* MoveDirectAbsPt */
PUSHB[ ]	/* 3 values pushed */
2 10 3 
SRP1[ ]	/* SetRefPoint1 */
SRP2[ ]	/* SetRefPoint2 */
IP[ ]	/* InterpolatePts */
PUSHB[ ]	/* 1 value pushed */
2 
MDAP[1]	/* MoveDirectAbsPt */
PUSHB[ ]	/* 1 value pushed */
7 
MDRP[10000]	/* MoveDirectRelPt */
PUSHB[ ]	/* 1 value pushed */
3 
SRP0[ ]	/* SetRefPoint0 */
PUSHB[ ]	/* 1 value pushed */
8 
MDRP[10000]	/* MoveDirectRelPt */
IUP[0]	/* InterpolateUntPts */
IUP[1]	/* InterpolateUntPts */";
};
width = 521;
}
);
note = uni0022;
unicode = 34;
},
{
glyphname = numbersign;
lastChange = "2020-12-06 18:37:19 +0000";
layers = (
{
layerId = "A9B054E9-1A63-4AEF-9EE1-561B1DFE8422";
shapes = (
{
closed = 1;
nodes = (
(402,0,l),
(474,410,l),
(667,410,l),
(595,0,l),
(778,0,l),
(850,410,l),
(1104,410,l),
(1104,582,l),
(880,582,l),
(930,866,l),
(1180,866,l),
(1180,1040,l),
(961,1040,l),
(1034,1456,l),
(851,1456,l),
(778,1040,l),
(584,1040,l),
(657,1456,l),
(475,1456,l),
(402,1040,l),
(139,1040,l),
(139,866,l),
(371,866,l),
(321,582,l),
(64,582,l),
(64,410,l),
(291,410,l),
(219,0,l)
);
},
{
closed = 1;
nodes = (
(553,866,l),
(747,866,l),
(697,582,l),
(504,582,l)
);
}
);
userData = {
assembly = "SVTCA[0]	/* SetFreedomAndProjectionVectorToAxis */
PUSHB[ ]	/* 1 value pushed */
0 
RCVT[ ]	/* ReadCVT */
IF[ ]	/* If */
PUSHB[ ]	/* 1 value pushed */
12 
MDAP[1]	/* MoveDirectAbsPt */
ELSE[ ]	/* Else */
PUSHB[ ]	/* 2 values pushed */
12 30 
MIAP[0]	/* MoveIndirectAbsPt */
EIF[ ]	/* EndIf */
PUSHB[ ]	/* 1 value pushed */
0 
RCVT[ ]	/* ReadCVT */
IF[ ]	/* If */
PUSHB[ ]	/* 1 value pushed */
16 
MDAP[1]	/* MoveDirectAbsPt */
ELSE[ ]	/* Else */
PUSHB[ ]	/* 2 values pushed */
16 30 
MIAP[0]	/* MoveIndirectAbsPt */
EIF[ ]	/* EndIf */
PUSHB[ ]	/* 1 value pushed */
0 
RCVT[ ]	/* ReadCVT */
IF[ ]	/* If */
PUSHB[ ]	/* 1 value pushed */
2 
MDAP[1]	/* MoveDirectAbsPt */
ELSE[ ]	/* Else */
PUSHB[ ]	/* 2 values pushed */
2 18 
MIAP[0]	/* MoveIndirectAbsPt */
EIF[ ]	/* EndIf */
PUSHB[ ]	/* 1 value pushed */
0 
RCVT[ ]	/* ReadCVT */
IF[ ]	/* If */
PUSHB[ ]	/* 1 value pushed */
26 
MDAP[1]	/* MoveDirectAbsPt */
ELSE[ ]	/* Else */
PUSHB[ ]	/* 2 values pushed */
26 18 
MIAP[0]	/* MoveIndirectAbsPt */
EIF[ ]	/* EndIf */
PUSHB[ ]	/* 3 values pushed */
29 12 2 
SRP1[ ]	/* SetRefPoint1 */
SRP2[ ]	/* SetRefPoint2 */
IP[ ]	/* InterpolatePts */
RUTG[ ]	/* RoundUpToGrid */
PUSHB[ ]	/* 1 value pushed */
29 
MDAP[1]	/* MoveDirectAbsPt */
RTG[ ]	/* RoundToGrid */
PUSHB[ ]	/* 2 values pushed */
0 3 
PUSHB[ ]	/* 1 value pushed */
10 
CALL[ ]	/* CallFunction */
IF[ ]	/* If */
POP[ ]	/* PopTopStack */
MDRP[11000]	/* MoveDirectRelPt */
ELSE[ ]	/* Else */
MIRP[10100]	/* MoveIndirectRelPt */
EIF[ ]	/* EndIf */
PUSHB[ ]	/* 1 value pushed */
4 
MDRP[10000]	/* MoveDirectRelPt */
PUSHB[ ]	/* 1 value pushed */
29 
SRP0[ ]	/* SetRefPoint0 */
PUSHB[ ]	/* 1 value pushed */
6 
MDRP[10000]	/* MoveDirectRelPt */
PUSHB[ ]	/* 1 value pushed */
29 
SRP0[ ]	/* SetRefPoint0 */
PUSHB[ ]	/* 1 value pushed */
11 
MDRP[10000]	/* MoveDirectRelPt */
PUSHB[ ]	/* 1 value pushed */
11 
MDAP[1]	/* MoveDirectAbsPt */
PUSHB[ ]	/* 2 values pushed */
8 3 
PUSHB[ ]	/* 1 value pushed */
10 
CALL[ ]	/* CallFunction */
IF[ ]	/* If */
POP[ ]	/* PopTopStack */
MDRP[11000]	/* MoveDirectRelPt */
ELSE[ ]	/* Else */
MIRP[10100]	/* MoveIndirectRelPt */
EIF[ ]	/* EndIf */
PUSHB[ ]	/* 1 value pushed */
11 
SRP0[ ]	/* SetRefPoint0 */
PUSHB[ ]	/* 1 value pushed */
14 
MDRP[10000]	/* MoveDirectRelPt */
PUSHB[ ]	/* 1 value pushed */
11 
SRP0[ ]	/* SetRefPoint0 */
PUSHB[ ]	/* 1 value pushed */
18 
MDRP[10000]	/* MoveDirectRelPt */
PUSHB[ ]	/* 1 value pushed */
8 
SRP0[ ]	/* SetRefPoint0 */
PUSHB[ ]	/* 1 value pushed */
20 
MDRP[10000]	/* MoveDirectRelPt */
PUSHB[ ]	/* 1 value pushed */
29 
SRP0[ ]	/* SetRefPoint0 */
PUSHB[ ]	/* 1 value pushed */
22 
MDRP[10000]	/* MoveDirectRelPt */
PUSHB[ ]	/* 1 value pushed */
0 
SRP0[ ]	/* SetRefPoint0 */
PUSHB[ ]	/* 1 value pushed */
24 
MDRP[10000]	/* MoveDirectRelPt */
PUSHB[ ]	/* 1 value pushed */
8 
SRP0[ ]	/* SetRefPoint0 */
PUSHB[ ]	/* 1 value pushed */
30 
MDRP[10000]	/* MoveDirectRelPt */
IUP[0]	/* InterpolateUntPts */
IUP[1]	/* InterpolateUntPts */";
};
width = 1220;
},
{
layerId = m002;
shapes = (
{
closed = 1;
nodes = (
(421,0,l),
(501,410,l),
(765,410,l),
(685,0,l),
(829,0,l),
(909,410,l),
(1160,410,l),
(1160,547,l),
(935,547,l),
(1004,901,l),
(1235,901,l),
(1235,1040,l),
(1031,1040,l),
(1113,1456,l),
(969,1456,l),
(887,1040,l),
(623,1040,l),
(705,1456,l),
(562,1456,l),
(480,1040,l),
(195,1040,l),
(195,901,l),
(453,901,l),
(384,547,l),
(119,547,l),
(119,410,l),
(358,410,l),
(278,0,l)
);
},
{
closed = 1;
nodes = (
(596,901,l),
(860,901,l),
(791,547,l),
(527,547,l)
);
}
);
userData = {
assembly = "SVTCA[0]	/* SetFreedomAndProjectionVectorToAxis */
PUSHB[ ]	/* 1 value pushed */
0 
RCVT[ ]	/* ReadCVT */
IF[ ]	/* If */
PUSHB[ ]	/* 1 value pushed */
12 
MDAP[1]	/* MoveDirectAbsPt */
ELSE[ ]	/* Else */
PUSHB[ ]	/* 2 values pushed */
12 30 
MIAP[0]	/* MoveIndirectAbsPt */
EIF[ ]	/* EndIf */
PUSHB[ ]	/* 1 value pushed */
0 
RCVT[ ]	/* ReadCVT */
IF[ ]	/* If */
PUSHB[ ]	/* 1 value pushed */
16 
MDAP[1]	/* MoveDirectAbsPt */
ELSE[ ]	/* Else */
PUSHB[ ]	/* 2 values pushed */
16 30 
MIAP[0]	/* MoveIndirectAbsPt */
EIF[ ]	/* EndIf */
PUSHB[ ]	/* 1 value pushed */
0 
RCVT[ ]	/* ReadCVT */
IF[ ]	/* If */
PUSHB[ ]	/* 1 value pushed */
2 
MDAP[1]	/* MoveDirectAbsPt */
ELSE[ ]	/* Else */
PUSHB[ ]	/* 2 values pushed */
2 18 
MIAP[0]	/* MoveIndirectAbsPt */
EIF[ ]	/* EndIf */
PUSHB[ ]	/* 1 value pushed */
0 
RCVT[ ]	/* ReadCVT */
IF[ ]	/* If */
PUSHB[ ]	/* 1 value pushed */
26 
MDAP[1]	/* MoveDirectAbsPt */
ELSE[ ]	/* Else */
PUSHB[ ]	/* 2 values pushed */
26 18 
MIAP[0]	/* MoveIndirectAbsPt */
EIF[ ]	/* EndIf */
PUSHB[ ]	/* 3 values pushed */
29 12 2 
SRP1[ ]	/* SetRefPoint1 */
SRP2[ ]	/* SetRefPoint2 */
IP[ ]	/* InterpolatePts */
RUTG[ ]	/* RoundUpToGrid */
PUSHB[ ]	/* 1 value pushed */
29 
MDAP[1]	/* MoveDirectAbsPt */
RTG[ ]	/* RoundToGrid */
PUSHB[ ]	/* 2 values pushed */
0 3 
PUSHB[ ]	/* 1 value pushed */
10 
CALL[ ]	/* CallFunction */
IF[ ]	/* If */
POP[ ]	/* PopTopStack */
MDRP[11000]	/* MoveDirectRelPt */
ELSE[ ]	/* Else */
MIRP[10100]	/* MoveIndirectRelPt */
EIF[ ]	/* EndIf */
PUSHB[ ]	/* 1 value pushed */
4 
MDRP[10000]	/* MoveDirectRelPt */
PUSHB[ ]	/* 1 value pushed */
29 
SRP0[ ]	/* SetRefPoint0 */
PUSHB[ ]	/* 1 value pushed */
6 
MDRP[10000]	/* MoveDirectRelPt */
PUSHB[ ]	/* 1 value pushed */
29 
SRP0[ ]	/* SetRefPoint0 */
PUSHB[ ]	/* 1 value pushed */
11 
MDRP[10000]	/* MoveDirectRelPt */
PUSHB[ ]	/* 1 value pushed */
11 
MDAP[1]	/* MoveDirectAbsPt */
PUSHB[ ]	/* 2 values pushed */
8 3 
PUSHB[ ]	/* 1 value pushed */
10 
CALL[ ]	/* CallFunction */
IF[ ]	/* If */
POP[ ]	/* PopTopStack */
MDRP[11000]	/* MoveDirectRelPt */
ELSE[ ]	/* Else */
MIRP[10100]	/* MoveIndirectRelPt */
EIF[ ]	/* EndIf */
PUSHB[ ]	/* 1 value pushed */
11 
SRP0[ ]	/* SetRefPoint0 */
PUSHB[ ]	/* 1 value pushed */
14 
MDRP[10000]	/* MoveDirectRelPt */
PUSHB[ ]	/* 1 value pushed */
11 
SRP0[ ]	/* SetRefPoint0 */
PUSHB[ ]	/* 1 value pushed */
18 
MDRP[10000]	/* MoveDirectRelPt */
PUSHB[ ]	/* 1 value pushed */
8 
SRP0[ ]	/* SetRefPoint0 */
PUSHB[ ]	/* 1 value pushed */
20 
MDRP[10000]	/* MoveDirectRelPt */
PUSHB[ ]	/* 1 value pushed */
29 
SRP0[ ]	/* SetRefPoint0 */
PUSHB[ ]	/* 1 value pushed */
22 
MDRP[10000]	/* MoveDirectRelPt */
PUSHB[ ]	/* 1 value pushed */
0 
SRP0[ ]	/* SetRefPoint0 */
PUSHB[ ]	/* 1 value pushed */
24 
MDRP[10000]	/* MoveDirectRelPt */
PUSHB[ ]	/* 1 value pushed */
8 
SRP0[ ]	/* SetRefPoint0 */
PUSHB[ ]	/* 1 value pushed */
30 
MDRP[10000]	/* MoveDirectRelPt */
IUP[0]	/* InterpolateUntPts */
IUP[1]	/* InterpolateUntPts */";
};
width = 1261;
},
{
layerId = m003;
shapes = (
{
closed = 1;
nodes = (
(304,0,l),
(378,410,l),
(742,410,l),
(667,0,l),
(723,0,l),
(798,410,l),
(1092,410,l),
(1092,462,l),
(807,462,l),
(903,986,l),
(1167,986,l),
(1167,1040,l),
(913,1040,l),
(989,1456,l),
(933,1456,l),
(857,1040,l),
(492,1040,l),
(568,1456,l),
(512,1456,l),
(437,1040,l),
(127,1040,l),
(127,986,l),
(427,986,l),
(332,462,l),
(51,462,l),
(51,410,l),
(322,410,l),
(248,0,l)
);
},
{
closed = 1;
nodes = (
(482,986,l),
(847,986,l),
(751,462,l),
(388,462,l)
);
}
);
userData = {
assembly = "SVTCA[0]	/* SetFreedomAndProjectionVectorToAxis */
PUSHB[ ]	/* 1 value pushed */
0 
RCVT[ ]	/* ReadCVT */
IF[ ]	/* If */
PUSHB[ ]	/* 1 value pushed */
12 
MDAP[1]	/* MoveDirectAbsPt */
ELSE[ ]	/* Else */
PUSHB[ ]	/* 2 values pushed */
12 30 
MIAP[0]	/* MoveIndirectAbsPt */
EIF[ ]	/* EndIf */
PUSHB[ ]	/* 1 value pushed */
0 
RCVT[ ]	/* ReadCVT */
IF[ ]	/* If */
PUSHB[ ]	/* 1 value pushed */
16 
MDAP[1]	/* MoveDirectAbsPt */
ELSE[ ]	/* Else */
PUSHB[ ]	/* 2 values pushed */
16 30 
MIAP[0]	/* MoveIndirectAbsPt */
EIF[ ]	/* EndIf */
PUSHB[ ]	/* 1 value pushed */
0 
RCVT[ ]	/* ReadCVT */
IF[ ]	/* If */
PUSHB[ ]	/* 1 value pushed */
2 
MDAP[1]	/* MoveDirectAbsPt */
ELSE[ ]	/* Else */
PUSHB[ ]	/* 2 values pushed */
2 18 
MIAP[0]	/* MoveIndirectAbsPt */
EIF[ ]	/* EndIf */
PUSHB[ ]	/* 1 value pushed */
0 
RCVT[ ]	/* ReadCVT */
IF[ ]	/* If */
PUSHB[ ]	/* 1 value pushed */
26 
MDAP[1]	/* MoveDirectAbsPt */
ELSE[ ]	/* Else */
PUSHB[ ]	/* 2 values pushed */
26 18 
MIAP[0]	/* MoveIndirectAbsPt */
EIF[ ]	/* EndIf */
PUSHB[ ]	/* 3 values pushed */
29 12 2 
SRP1[ ]	/* SetRefPoint1 */
SRP2[ ]	/* SetRefPoint2 */
IP[ ]	/* InterpolatePts */
RUTG[ ]	/* RoundUpToGrid */
PUSHB[ ]	/* 1 value pushed */
29 
MDAP[1]	/* MoveDirectAbsPt */
RTG[ ]	/* RoundToGrid */
PUSHB[ ]	/* 2 values pushed */
0 3 
PUSHB[ ]	/* 1 value pushed */
10 
CALL[ ]	/* CallFunction */
IF[ ]	/* If */
POP[ ]	/* PopTopStack */
MDRP[11000]	/* MoveDirectRelPt */
ELSE[ ]	/* Else */
MIRP[10100]	/* MoveIndirectRelPt */
EIF[ ]	/* EndIf */
PUSHB[ ]	/* 1 value pushed */
4 
MDRP[10000]	/* MoveDirectRelPt */
PUSHB[ ]	/* 1 value pushed */
29 
SRP0[ ]	/* SetRefPoint0 */
PUSHB[ ]	/* 1 value pushed */
6 
MDRP[10000]	/* MoveDirectRelPt */
PUSHB[ ]	/* 1 value pushed */
29 
SRP0[ ]	/* SetRefPoint0 */
PUSHB[ ]	/* 1 value pushed */
11 
MDRP[10000]	/* MoveDirectRelPt */
PUSHB[ ]	/* 1 value pushed */
11 
MDAP[1]	/* MoveDirectAbsPt */
PUSHB[ ]	/* 2 values pushed */
8 3 
PUSHB[ ]	/* 1 value pushed */
10 
CALL[ ]	/* CallFunction */
IF[ ]	/* If */
POP[ ]	/* PopTopStack */
MDRP[11000]	/* MoveDirectRelPt */
ELSE[ ]	/* Else */
MIRP[10100]	/* MoveIndirectRelPt */
EIF[ ]	/* EndIf */
PUSHB[ ]	/* 1 value pushed */
11 
SRP0[ ]	/* SetRefPoint0 */
PUSHB[ ]	/* 1 value pushed */
14 
MDRP[10000]	/* MoveDirectRelPt */
PUSHB[ ]	/* 1 value pushed */
11 
SRP0[ ]	/* SetRefPoint0 */
PUSHB[ ]	/* 1 value pushed */
18 
MDRP[10000]	/* MoveDirectRelPt */
PUSHB[ ]	/* 1 value pushed */
8 
SRP0[ ]	/* SetRefPoint0 */
PUSHB[ ]	/* 1 value pushed */
20 
MDRP[10000]	/* MoveDirectRelPt */
PUSHB[ ]	/* 1 value pushed */
29 
SRP0[ ]	/* SetRefPoint0 */
PUSHB[ ]	/* 1 value pushed */
22 
MDRP[10000]	/* MoveDirectRelPt */
PUSHB[ ]	/* 1 value pushed */
0 
SRP0[ ]	/* SetRefPoint0 */
PUSHB[ ]	/* 1 value pushed */
24 
MDRP[10000]	/* MoveDirectRelPt */
PUSHB[ ]	/* 1 value pushed */
8 
SRP0[ ]	/* SetRefPoint0 */
PUSHB[ ]	/* 1 value pushed */
30 
MDRP[10000]	/* MoveDirectRelPt */
IUP[0]	/* InterpolateUntPts */
IUP[1]	/* InterpolateUntPts */";
};
width = 1121;
},
{
layerId = m004;
shapes = (
{
closed = 1;
nodes = (
(230,0,l),
(383,410,l),
(647,410,l),
(494,0,l),
(638,0,l),
(791,410,l),
(1042,410,l),
(1066,547,l),
(841,547,l),
(972,901,l),
(1203,901,l),
(1228,1040,l),
(1024,1040,l),
(1179,1456,l),
(1035,1456,l),
(880,1040,l),
(616,1040,l),
(771,1456,l),
(628,1456,l),
(473,1040,l),
(188,1040,l),
(163,901,l),
(421,901,l),
(290,547,l),
(25,547,l),
(1,410,l),
(240,410,l),
(87,0,l)
);
},
{
closed = 1;
nodes = (
(564,901,l),
(828,901,l),
(697,547,l),
(433,547,l)
);
}
);
userData = {
assembly = "SVTCA[0]	/* SetFreedomAndProjectionVectorToAxis */
PUSHB[ ]	/* 1 value pushed */
0 
RCVT[ ]	/* ReadCVT */
IF[ ]	/* If */
PUSHB[ ]	/* 1 value pushed */
12 
MDAP[1]	/* MoveDirectAbsPt */
ELSE[ ]	/* Else */
PUSHB[ ]	/* 2 values pushed */
12 30 
MIAP[0]	/* MoveIndirectAbsPt */
EIF[ ]	/* EndIf */
PUSHB[ ]	/* 1 value pushed */
0 
RCVT[ ]	/* ReadCVT */
IF[ ]	/* If */
PUSHB[ ]	/* 1 value pushed */
16 
MDAP[1]	/* MoveDirectAbsPt */
ELSE[ ]	/* Else */
PUSHB[ ]	/* 2 values pushed */
16 30 
MIAP[0]	/* MoveIndirectAbsPt */
EIF[ ]	/* EndIf */
PUSHB[ ]	/* 1 value pushed */
0 
RCVT[ ]	/* ReadCVT */
IF[ ]	/* If */
PUSHB[ ]	/* 1 value pushed */
2 
MDAP[1]	/* MoveDirectAbsPt */
ELSE[ ]	/* Else */
PUSHB[ ]	/* 2 values pushed */
2 18 
MIAP[0]	/* MoveIndirectAbsPt */
EIF[ ]	/* EndIf */
PUSHB[ ]	/* 1 value pushed */
0 
RCVT[ ]	/* ReadCVT */
IF[ ]	/* If */
PUSHB[ ]	/* 1 value pushed */
26 
MDAP[1]	/* MoveDirectAbsPt */
ELSE[ ]	/* Else */
PUSHB[ ]	/* 2 values pushed */
26 18 
MIAP[0]	/* MoveIndirectAbsPt */
EIF[ ]	/* EndIf */
PUSHB[ ]	/* 3 values pushed */
29 12 2 
SRP1[ ]	/* SetRefPoint1 */
SRP2[ ]	/* SetRefPoint2 */
IP[ ]	/* InterpolatePts */
RUTG[ ]	/* RoundUpToGrid */
PUSHB[ ]	/* 1 value pushed */
29 
MDAP[1]	/* MoveDirectAbsPt */
RTG[ ]	/* RoundToGrid */
PUSHB[ ]	/* 2 values pushed */
0 3 
PUSHB[ ]	/* 1 value pushed */
10 
CALL[ ]	/* CallFunction */
IF[ ]	/* If */
POP[ ]	/* PopTopStack */
MDRP[11000]	/* MoveDirectRelPt */
ELSE[ ]	/* Else */
MIRP[10100]	/* MoveIndirectRelPt */
EIF[ ]	/* EndIf */
PUSHB[ ]	/* 1 value pushed */
4 
MDRP[10000]	/* MoveDirectRelPt */
PUSHB[ ]	/* 1 value pushed */
29 
SRP0[ ]	/* SetRefPoint0 */
PUSHB[ ]	/* 1 value pushed */
6 
MDRP[10000]	/* MoveDirectRelPt */
PUSHB[ ]	/* 1 value pushed */
29 
SRP0[ ]	/* SetRefPoint0 */
PUSHB[ ]	/* 1 value pushed */
11 
MDRP[10000]	/* MoveDirectRelPt */
PUSHB[ ]	/* 1 value pushed */
11 
MDAP[1]	/* MoveDirectAbsPt */
PUSHB[ ]	/* 2 values pushed */
8 3 
PUSHB[ ]	/* 1 value pushed */
10 
CALL[ ]	/* CallFunction */
IF[ ]	/* If */
POP[ ]	/* PopTopStack */
MDRP[11000]	/* MoveDirectRelPt */
ELSE[ ]	/* Else */
MIRP[10100]	/* MoveIndirectRelPt */
EIF[ ]	/* EndIf */
PUSHB[ ]	/* 1 value pushed */
11 
SRP0[ ]	/* SetRefPoint0 */
PUSHB[ ]	/* 1 value pushed */
14 
MDRP[10000]	/* MoveDirectRelPt */
PUSHB[ ]	/* 1 value pushed */
11 
SRP0[ ]	/* SetRefPoint0 */
PUSHB[ ]	/* 1 value pushed */
18 
MDRP[10000]	/* MoveDirectRelPt */
PUSHB[ ]	/* 1 value pushed */
8 
SRP0[ ]	/* SetRefPoint0 */
PUSHB[ ]	/* 1 value pushed */
20 
MDRP[10000]	/* MoveDirectRelPt */
PUSHB[ ]	/* 1 value pushed */
29 
SRP0[ ]	/* SetRefPoint0 */
PUSHB[ ]	/* 1 value pushed */
22 
MDRP[10000]	/* MoveDirectRelPt */
PUSHB[ ]	/* 1 value pushed */
0 
SRP0[ ]	/* SetRefPoint0 */
PUSHB[ ]	/* 1 value pushed */
24 
MDRP[10000]	/* MoveDirectRelPt */
PUSHB[ ]	/* 1 value pushed */
8 
SRP0[ ]	/* SetRefPoint0 */
PUSHB[ ]	/* 1 value pushed */
30 
MDRP[10000]	/* MoveDirectRelPt */
IUP[0]	/* InterpolateUntPts */
IUP[1]	/* InterpolateUntPts */";
};
width = 1261;
},
{
layerId = m005;
shapes = (
{
closed = 1;
nodes = (
(113,0,l),
(260,410,l),
(624,410,l),
(476,0,l),
(532,0,l),
(680,410,l),
(974,410,l),
(983,462,l),
(698,462,l),
(886,986,l),
(1150,986,l),
(1160,1040,l),
(906,1040,l),
(1055,1456,l),
(999,1456,l),
(850,1040,l),
(485,1040,l),
(634,1456,l),
(578,1456,l),
(430,1040,l),
(120,1040,l),
(110,986,l),
(410,986,l),
(223,462,l),
(-58,462,l),
(-67,410,l),
(204,410,l),
(57,0,l)
);
},
{
closed = 1;
nodes = (
(465,986,l),
(830,986,l),
(642,462,l),
(279,462,l)
);
}
);
userData = {
assembly = "SVTCA[0]	/* SetFreedomAndProjectionVectorToAxis */
PUSHB[ ]	/* 1 value pushed */
0 
RCVT[ ]	/* ReadCVT */
IF[ ]	/* If */
PUSHB[ ]	/* 1 value pushed */
12 
MDAP[1]	/* MoveDirectAbsPt */
ELSE[ ]	/* Else */
PUSHB[ ]	/* 2 values pushed */
12 30 
MIAP[0]	/* MoveIndirectAbsPt */
EIF[ ]	/* EndIf */
PUSHB[ ]	/* 1 value pushed */
0 
RCVT[ ]	/* ReadCVT */
IF[ ]	/* If */
PUSHB[ ]	/* 1 value pushed */
16 
MDAP[1]	/* MoveDirectAbsPt */
ELSE[ ]	/* Else */
PUSHB[ ]	/* 2 values pushed */
16 30 
MIAP[0]	/* MoveIndirectAbsPt */
EIF[ ]	/* EndIf */
PUSHB[ ]	/* 1 value pushed */
0 
RCVT[ ]	/* ReadCVT */
IF[ ]	/* If */
PUSHB[ ]	/* 1 value pushed */
2 
MDAP[1]	/* MoveDirectAbsPt */
ELSE[ ]	/* Else */
PUSHB[ ]	/* 2 values pushed */
2 18 
MIAP[0]	/* MoveIndirectAbsPt */
EIF[ ]	/* EndIf */
PUSHB[ ]	/* 1 value pushed */
0 
RCVT[ ]	/* ReadCVT */
IF[ ]	/* If */
PUSHB[ ]	/* 1 value pushed */
26 
MDAP[1]	/* MoveDirectAbsPt */
ELSE[ ]	/* Else */
PUSHB[ ]	/* 2 values pushed */
26 18 
MIAP[0]	/* MoveIndirectAbsPt */
EIF[ ]	/* EndIf */
PUSHB[ ]	/* 3 values pushed */
29 12 2 
SRP1[ ]	/* SetRefPoint1 */
SRP2[ ]	/* SetRefPoint2 */
IP[ ]	/* InterpolatePts */
RUTG[ ]	/* RoundUpToGrid */
PUSHB[ ]	/* 1 value pushed */
29 
MDAP[1]	/* MoveDirectAbsPt */
RTG[ ]	/* RoundToGrid */
PUSHB[ ]	/* 2 values pushed */
0 3 
PUSHB[ ]	/* 1 value pushed */
10 
CALL[ ]	/* CallFunction */
IF[ ]	/* If */
POP[ ]	/* PopTopStack */
MDRP[11000]	/* MoveDirectRelPt */
ELSE[ ]	/* Else */
MIRP[10100]	/* MoveIndirectRelPt */
EIF[ ]	/* EndIf */
PUSHB[ ]	/* 1 value pushed */
4 
MDRP[10000]	/* MoveDirectRelPt */
PUSHB[ ]	/* 1 value pushed */
29 
SRP0[ ]	/* SetRefPoint0 */
PUSHB[ ]	/* 1 value pushed */
6 
MDRP[10000]	/* MoveDirectRelPt */
PUSHB[ ]	/* 1 value pushed */
29 
SRP0[ ]	/* SetRefPoint0 */
PUSHB[ ]	/* 1 value pushed */
11 
MDRP[10000]	/* MoveDirectRelPt */
PUSHB[ ]	/* 1 value pushed */
11 
MDAP[1]	/* MoveDirectAbsPt */
PUSHB[ ]	/* 2 values pushed */
8 3 
PUSHB[ ]	/* 1 value pushed */
10 
CALL[ ]	/* CallFunction */
IF[ ]	/* If */
POP[ ]	/* PopTopStack */
MDRP[11000]	/* MoveDirectRelPt */
ELSE[ ]	/* Else */
MIRP[10100]	/* MoveIndirectRelPt */
EIF[ ]	/* EndIf */
PUSHB[ ]	/* 1 value pushed */
11 
SRP0[ ]	/* SetRefPoint0 */
PUSHB[ ]	/* 1 value pushed */
14 
MDRP[10000]	/* MoveDirectRelPt */
PUSHB[ ]	/* 1 value pushed */
11 
SRP0[ ]	/* SetRefPoint0 */
PUSHB[ ]	/* 1 value pushed */
18 
MDRP[10000]	/* MoveDirectRelPt */
PUSHB[ ]	/* 1 value pushed */
8 
SRP0[ ]	/* SetRefPoint0 */
PUSHB[ ]	/* 1 value pushed */
20 
MDRP[10000]	/* MoveDirectRelPt */
PUSHB[ ]	/* 1 value pushed */
29 
SRP0[ ]	/* SetRefPoint0 */
PUSHB[ ]	/* 1 value pushed */
22 
MDRP[10000]	/* MoveDirectRelPt */
PUSHB[ ]	/* 1 value pushed */
0 
SRP0[ ]	/* SetRefPoint0 */
PUSHB[ ]	/* 1 value pushed */
24 
MDRP[10000]	/* MoveDirectRelPt */
PUSHB[ ]	/* 1 value pushed */
8 
SRP0[ ]	/* SetRefPoint0 */
PUSHB[ ]	/* 1 value pushed */
30 
MDRP[10000]	/* MoveDirectRelPt */
IUP[0]	/* InterpolateUntPts */
IUP[1]	/* InterpolateUntPts */";
};
width = 1121;
}
);
note = uni0023;
unicode = 35;
},
{
glyphname = dollar;
lastChange = "2020-12-06 19:26:06 +0000";
layers = (
{
background = {
shapes = (
{
closed = 1;
nodes = (
(681,-215,l),
(681,-16,l),
(929,9.333,o),
(1079,158.333,o),
(1079,385,cs),
(1079,566.676,o),
(991.454,677.832,o),
(840,762.5,cs),
(718.243,829.704,o),
(557.328,866.158,o),
(480,947,cs),
(450.667,977.667,o),
(436,1018.333,o),
(436,1069,cs),
(436,1178.333,o),
(498.667,1244,o),
(608,1244,cs),
(718.667,1244,o),
(790,1165,o),
(790,1005,c),
(1079,1005,l),
(1079,1265,o),
(938,1436.667,o),
(702,1470,c),
(702,1687,l),
(542,1687,l),
(542,1473,l),
(303.333,1449,o),
(147,1295.333,o),
(147,1070,cs),
(147,939.333,o),
(191.167,847.5,o),
(266.5,777.5,cs),
(304.167,742.5,o),
(349.333,711.5,o),
(402,684.5,cs),
(521.019,623.484,o),
(670.965,591.883,o),
(744.5,513.5,cs),
(774.833,481.167,o),
(790,437.667,o),
(790,383,cs),
(790,277.667,o),
(717.333,211,o),
(600,211,cs),
(458.667,211,o),
(381,298.333,o),
(381,457,c),
(92,457,l),
(92,183.667,o),
(248.667,12.333,o),
(522,-17,c),
(522,-215,l)
);
}
);
};
layerId = "A9B054E9-1A63-4AEF-9EE1-561B1DFE8422";
shapes = (
{
closed = 1;
nodes = (
(681,-215,l),
(681,-16,l),
(925,9,o),
(1079,154,o),
(1079,387,cs),
(1079,558,o),
(996,678,o),
(839,763,cs),
(682,849,o),
(436,882,o),
(436,1069,cs),
(436,1179,o),
(500,1244,o),
(605,1244,cs),
(720,1244,o),
(790,1165,o),
(790,1005,c),
(1079,1005,l),
(1079,1264,o),
(938,1437,o),
(702,1470,c),
(702,1687,l),
(542,1687,l),
(542,1473,l),
(303,1448,o),
(147,1299,o),
(147,1065,cs),
(147,872,o),
(255,759,o),
(403,684,cs),
(573,598,o),
(790,577,o),
(790,387,cs),
(790,275,o),
(717,211,o),
(598,211,cs),
(460,211,o),
(381,297,o),
(381,457,c),
(92,457,l),
(92,188,o),
(244,13,o),
(522,-17,c),
(522,-215,l)
);
}
);
userData = {
assembly = "SVTCA[0]	/* SetFreedomAndProjectionVectorToAxis */
PUSHB[ ]	/* 1 value pushed */
0 
RCVT[ ]	/* ReadCVT */
IF[ ]	/* If */
PUSHB[ ]	/* 1 value pushed */
9 
MDAP[1]	/* MoveDirectAbsPt */
ELSE[ ]	/* Else */
PUSHB[ ]	/* 2 values pushed */
9 30 
MIAP[0]	/* MoveIndirectAbsPt */
EIF[ ]	/* EndIf */
PUSHB[ ]	/* 1 value pushed */
0 
RCVT[ ]	/* ReadCVT */
IF[ ]	/* If */
PUSHB[ ]	/* 1 value pushed */
34 
MDAP[1]	/* MoveDirectAbsPt */
ELSE[ ]	/* Else */
PUSHB[ ]	/* 2 values pushed */
34 18 
MIAP[0]	/* MoveIndirectAbsPt */
EIF[ ]	/* EndIf */
PUSHB[ ]	/* 3 values pushed */
2 34 9 
SRP1[ ]	/* SetRefPoint1 */
SRP2[ ]	/* SetRefPoint2 */
IP[ ]	/* InterpolatePts */
PUSHB[ ]	/* 1 value pushed */
9 
SRP0[ ]	/* SetRefPoint0 */
PUSHB[ ]	/* 1 value pushed */
12 
MDRP[10000]	/* MoveDirectRelPt */
PUSHB[ ]	/* 1 value pushed */
9 
SRP0[ ]	/* SetRefPoint0 */
PUSHB[ ]	/* 1 value pushed */
16 
MDRP[10000]	/* MoveDirectRelPt */
PUSHB[ ]	/* 1 value pushed */
9 
SRP0[ ]	/* SetRefPoint0 */
PUSHB[ ]	/* 2 values pushed */
19 1 
PUSHB[ ]	/* 1 value pushed */
10 
CALL[ ]	/* CallFunction */
IF[ ]	/* If */
POP[ ]	/* PopTopStack */
MDRP[11000]	/* MoveDirectRelPt */
ELSE[ ]	/* Else */
MIRP[10100]	/* MoveIndirectRelPt */
EIF[ ]	/* EndIf */
PUSHB[ ]	/* 1 value pushed */
2 
SRP0[ ]	/* SetRefPoint0 */
PUSHB[ ]	/* 2 values pushed */
25 1 
PUSHB[ ]	/* 1 value pushed */
10 
CALL[ ]	/* CallFunction */
IF[ ]	/* If */
POP[ ]	/* PopTopStack */
MDRP[11000]	/* MoveDirectRelPt */
ELSE[ ]	/* Else */
MIRP[10100]	/* MoveIndirectRelPt */
EIF[ ]	/* EndIf */
PUSHB[ ]	/* 1 value pushed */
34 
SRP0[ ]	/* SetRefPoint0 */
PUSHB[ ]	/* 1 value pushed */
31 
MDRP[10000]	/* MoveDirectRelPt */
PUSHB[ ]	/* 1 value pushed */
34 
SRP0[ ]	/* SetRefPoint0 */
PUSHB[ ]	/* 1 value pushed */
38 
MDRP[10000]	/* MoveDirectRelPt */
PUSHB[ ]	/* 1 value pushed */
34 
SRP0[ ]	/* SetRefPoint0 */
PUSHB[ ]	/* 2 values pushed */
41 1 
PUSHB[ ]	/* 1 value pushed */
10 
CALL[ ]	/* CallFunction */
IF[ ]	/* If */
POP[ ]	/* PopTopStack */
MDRP[11000]	/* MoveDirectRelPt */
ELSE[ ]	/* Else */
MIRP[10100]	/* MoveIndirectRelPt */
EIF[ ]	/* EndIf */
IUP[0]	/* InterpolateUntPts */
IUP[1]	/* InterpolateUntPts */";
};
width = 1175;
},
{
layerId = m002;
shapes = (
{
closed = 1;
nodes = (
(655,-208,l),
(655,-17,l),
(899,8.333,o),
(1041,151.667,o),
(1041,377,cs),
(1041,592.853,o),
(919.514,718.988,o),
(636.5,809.5,cs),
(433.167,875.5,o),
(351,946,o),
(351,1082,cs),
(351,1228.667,o),
(437.333,1315,o),
(596,1315,cs),
(748,1315,o),
(844,1196,o),
(844,1008,c),
(1028,1008,l),
(1028,1281.333,o),
(897,1441.333,o),
(673,1472,c),
(673,1692,l),
(524,1692,l),
(524,1473,l),
(301.333,1446.333,o),
(166,1297.667,o),
(166,1079,cs),
(166,864.333,o),
(290,730.667,o),
(574,644,cs),
(778,576,o),
(856,497.667,o),
(856,375,cs),
(856,229.667,o),
(749.667,140,o),
(575,140,cs),
(396.333,140,o),
(295,243.667,o),
(295,429,c),
(110,429,l),
(110,165,o),
(259,5.667,o),
(507,-17,c),
(507,-208,l)
);
}
);
userData = {
assembly = "SVTCA[0]	/* SetFreedomAndProjectionVectorToAxis */
PUSHB[ ]	/* 1 value pushed */
0 
RCVT[ ]	/* ReadCVT */
IF[ ]	/* If */
PUSHB[ ]	/* 1 value pushed */
9 
MDAP[1]	/* MoveDirectAbsPt */
ELSE[ ]	/* Else */
PUSHB[ ]	/* 2 values pushed */
9 30 
MIAP[0]	/* MoveIndirectAbsPt */
EIF[ ]	/* EndIf */
PUSHB[ ]	/* 1 value pushed */
0 
RCVT[ ]	/* ReadCVT */
IF[ ]	/* If */
PUSHB[ ]	/* 1 value pushed */
34 
MDAP[1]	/* MoveDirectAbsPt */
ELSE[ ]	/* Else */
PUSHB[ ]	/* 2 values pushed */
34 18 
MIAP[0]	/* MoveIndirectAbsPt */
EIF[ ]	/* EndIf */
PUSHB[ ]	/* 3 values pushed */
2 34 9 
SRP1[ ]	/* SetRefPoint1 */
SRP2[ ]	/* SetRefPoint2 */
IP[ ]	/* InterpolatePts */
PUSHB[ ]	/* 1 value pushed */
9 
SRP0[ ]	/* SetRefPoint0 */
PUSHB[ ]	/* 1 value pushed */
12 
MDRP[10000]	/* MoveDirectRelPt */
PUSHB[ ]	/* 1 value pushed */
9 
SRP0[ ]	/* SetRefPoint0 */
PUSHB[ ]	/* 1 value pushed */
16 
MDRP[10000]	/* MoveDirectRelPt */
PUSHB[ ]	/* 1 value pushed */
9 
SRP0[ ]	/* SetRefPoint0 */
PUSHB[ ]	/* 2 values pushed */
19 1 
PUSHB[ ]	/* 1 value pushed */
10 
CALL[ ]	/* CallFunction */
IF[ ]	/* If */
POP[ ]	/* PopTopStack */
MDRP[11000]	/* MoveDirectRelPt */
ELSE[ ]	/* Else */
MIRP[10100]	/* MoveIndirectRelPt */
EIF[ ]	/* EndIf */
PUSHB[ ]	/* 1 value pushed */
2 
SRP0[ ]	/* SetRefPoint0 */
PUSHB[ ]	/* 2 values pushed */
25 1 
PUSHB[ ]	/* 1 value pushed */
10 
CALL[ ]	/* CallFunction */
IF[ ]	/* If */
POP[ ]	/* PopTopStack */
MDRP[11000]	/* MoveDirectRelPt */
ELSE[ ]	/* Else */
MIRP[10100]	/* MoveIndirectRelPt */
EIF[ ]	/* EndIf */
PUSHB[ ]	/* 1 value pushed */
34 
SRP0[ ]	/* SetRefPoint0 */
PUSHB[ ]	/* 1 value pushed */
31 
MDRP[10000]	/* MoveDirectRelPt */
PUSHB[ ]	/* 1 value pushed */
34 
SRP0[ ]	/* SetRefPoint0 */
PUSHB[ ]	/* 1 value pushed */
38 
MDRP[10000]	/* MoveDirectRelPt */
PUSHB[ ]	/* 1 value pushed */
34 
SRP0[ ]	/* SetRefPoint0 */
PUSHB[ ]	/* 2 values pushed */
41 1 
PUSHB[ ]	/* 1 value pushed */
10 
CALL[ ]	/* CallFunction */
IF[ ]	/* If */
POP[ ]	/* PopTopStack */
MDRP[11000]	/* MoveDirectRelPt */
ELSE[ ]	/* Else */
MIRP[10100]	/* MoveIndirectRelPt */
EIF[ ]	/* EndIf */
IUP[0]	/* InterpolateUntPts */
IUP[1]	/* InterpolateUntPts */";
};
width = 1150;
},
{
layerId = m003;
shapes = (
{
closed = 1;
nodes = (
(620,-208,l),
(620,-20,l),
(852,-6.667,o),
(1001,134,o),
(1001,346,cs),
(1001,598,o),
(817,677,o),
(575,760,cs),
(368,831,o),
(222,893,o),
(222,1112,cs),
(222,1296,o),
(363,1424,o),
(579,1424,cs),
(801.667,1424,o),
(939,1274,o),
(939,1047,c),
(993,1047,l),
(993,1305.667,o),
(854.333,1462.667,o),
(609,1476,c),
(609,1663,l),
(554,1663,l),
(554,1476,l),
(324.667,1468,o),
(168,1327.333,o),
(168,1110,cs),
(168,867,o),
(335,785,o),
(553.5,709.5,cs),
(765,636,o),
(947,568,o),
(947,344,cs),
(947,168,o),
(795.333,32,o),
(586,32,cs),
(332.667,32,o),
(175,173,o),
(175,409,c),
(121,409,l),
(121,146.333,o),
(282.333,-10.333,o),
(565,-21,c),
(565,-208,l)
);
}
);
userData = {
assembly = "SVTCA[0]	/* SetFreedomAndProjectionVectorToAxis */
PUSHB[ ]	/* 1 value pushed */
0 
RCVT[ ]	/* ReadCVT */
IF[ ]	/* If */
PUSHB[ ]	/* 1 value pushed */
9 
MDAP[1]	/* MoveDirectAbsPt */
ELSE[ ]	/* Else */
PUSHB[ ]	/* 2 values pushed */
9 30 
MIAP[0]	/* MoveIndirectAbsPt */
EIF[ ]	/* EndIf */
PUSHB[ ]	/* 1 value pushed */
0 
RCVT[ ]	/* ReadCVT */
IF[ ]	/* If */
PUSHB[ ]	/* 1 value pushed */
34 
MDAP[1]	/* MoveDirectAbsPt */
ELSE[ ]	/* Else */
PUSHB[ ]	/* 2 values pushed */
34 18 
MIAP[0]	/* MoveIndirectAbsPt */
EIF[ ]	/* EndIf */
PUSHB[ ]	/* 3 values pushed */
2 34 9 
SRP1[ ]	/* SetRefPoint1 */
SRP2[ ]	/* SetRefPoint2 */
IP[ ]	/* InterpolatePts */
PUSHB[ ]	/* 1 value pushed */
9 
SRP0[ ]	/* SetRefPoint0 */
PUSHB[ ]	/* 1 value pushed */
12 
MDRP[10000]	/* MoveDirectRelPt */
PUSHB[ ]	/* 1 value pushed */
9 
SRP0[ ]	/* SetRefPoint0 */
PUSHB[ ]	/* 1 value pushed */
16 
MDRP[10000]	/* MoveDirectRelPt */
PUSHB[ ]	/* 1 value pushed */
9 
SRP0[ ]	/* SetRefPoint0 */
PUSHB[ ]	/* 2 values pushed */
19 1 
PUSHB[ ]	/* 1 value pushed */
10 
CALL[ ]	/* CallFunction */
IF[ ]	/* If */
POP[ ]	/* PopTopStack */
MDRP[11000]	/* MoveDirectRelPt */
ELSE[ ]	/* Else */
MIRP[10100]	/* MoveIndirectRelPt */
EIF[ ]	/* EndIf */
PUSHB[ ]	/* 1 value pushed */
2 
SRP0[ ]	/* SetRefPoint0 */
PUSHB[ ]	/* 2 values pushed */
25 1 
PUSHB[ ]	/* 1 value pushed */
10 
CALL[ ]	/* CallFunction */
IF[ ]	/* If */
POP[ ]	/* PopTopStack */
MDRP[11000]	/* MoveDirectRelPt */
ELSE[ ]	/* Else */
MIRP[10100]	/* MoveIndirectRelPt */
EIF[ ]	/* EndIf */
PUSHB[ ]	/* 1 value pushed */
34 
SRP0[ ]	/* SetRefPoint0 */
PUSHB[ ]	/* 1 value pushed */
31 
MDRP[10000]	/* MoveDirectRelPt */
PUSHB[ ]	/* 1 value pushed */
34 
SRP0[ ]	/* SetRefPoint0 */
PUSHB[ ]	/* 1 value pushed */
38 
MDRP[10000]	/* MoveDirectRelPt */
PUSHB[ ]	/* 1 value pushed */
34 
SRP0[ ]	/* SetRefPoint0 */
PUSHB[ ]	/* 2 values pushed */
41 1 
PUSHB[ ]	/* 1 value pushed */
10 
CALL[ ]	/* CallFunction */
IF[ ]	/* If */
POP[ ]	/* PopTopStack */
MDRP[11000]	/* MoveDirectRelPt */
ELSE[ ]	/* Else */
MIRP[10100]	/* MoveIndirectRelPt */
EIF[ ]	/* EndIf */
IUP[0]	/* InterpolateUntPts */
IUP[1]	/* InterpolateUntPts */";
};
width = 1121;
},
{
layerId = m004;
shapes = (
{
closed = 1;
nodes = (
(428,-208,l),
(461,-17,l),
(710,8,o),
(877,152,o),
(917,377,cs),
(955,593,o),
(856,719,o),
(588,810,cs),
(397,876,o),
(327,946,o),
(351,1082,cs),
(377,1229,o),
(478,1315,o),
(637,1315,cs),
(789,1315,o),
(864,1196,o),
(831,1008,c),
(1015,1008,l),
(1063,1281,o),
(960,1441,o),
(742,1472,c),
(781,1692,l),
(632,1692,l),
(593,1473,l),
(366,1446,o),
(204,1298,o),
(165,1079,cs),
(128,864,o),
(228,731,o),
(497,644,cs),
(689,576,o),
(753,498,o),
(731,375,cs),
(706,230,o),
(584,140,o),
(409,140,cs),
(230,140,o),
(147,244,o),
(180,429,c),
(-5,429,l),
(-52,165,o),
(69,6,o),
(313,-17,c),
(280,-208,l)
);
}
);
userData = {
assembly = "SVTCA[0]	/* SetFreedomAndProjectionVectorToAxis */
PUSHB[ ]	/* 1 value pushed */
0 
RCVT[ ]	/* ReadCVT */
IF[ ]	/* If */
PUSHB[ ]	/* 1 value pushed */
9 
MDAP[1]	/* MoveDirectAbsPt */
ELSE[ ]	/* Else */
PUSHB[ ]	/* 2 values pushed */
9 30 
MIAP[0]	/* MoveIndirectAbsPt */
EIF[ ]	/* EndIf */
PUSHB[ ]	/* 1 value pushed */
0 
RCVT[ ]	/* ReadCVT */
IF[ ]	/* If */
PUSHB[ ]	/* 1 value pushed */
34 
MDAP[1]	/* MoveDirectAbsPt */
ELSE[ ]	/* Else */
PUSHB[ ]	/* 2 values pushed */
34 18 
MIAP[0]	/* MoveIndirectAbsPt */
EIF[ ]	/* EndIf */
PUSHB[ ]	/* 3 values pushed */
2 34 9 
SRP1[ ]	/* SetRefPoint1 */
SRP2[ ]	/* SetRefPoint2 */
IP[ ]	/* InterpolatePts */
PUSHB[ ]	/* 1 value pushed */
9 
SRP0[ ]	/* SetRefPoint0 */
PUSHB[ ]	/* 1 value pushed */
12 
MDRP[10000]	/* MoveDirectRelPt */
PUSHB[ ]	/* 1 value pushed */
9 
SRP0[ ]	/* SetRefPoint0 */
PUSHB[ ]	/* 1 value pushed */
16 
MDRP[10000]	/* MoveDirectRelPt */
PUSHB[ ]	/* 1 value pushed */
9 
SRP0[ ]	/* SetRefPoint0 */
PUSHB[ ]	/* 2 values pushed */
19 1 
PUSHB[ ]	/* 1 value pushed */
10 
CALL[ ]	/* CallFunction */
IF[ ]	/* If */
POP[ ]	/* PopTopStack */
MDRP[11000]	/* MoveDirectRelPt */
ELSE[ ]	/* Else */
MIRP[10100]	/* MoveIndirectRelPt */
EIF[ ]	/* EndIf */
PUSHB[ ]	/* 1 value pushed */
2 
SRP0[ ]	/* SetRefPoint0 */
PUSHB[ ]	/* 2 values pushed */
25 1 
PUSHB[ ]	/* 1 value pushed */
10 
CALL[ ]	/* CallFunction */
IF[ ]	/* If */
POP[ ]	/* PopTopStack */
MDRP[11000]	/* MoveDirectRelPt */
ELSE[ ]	/* Else */
MIRP[10100]	/* MoveIndirectRelPt */
EIF[ ]	/* EndIf */
PUSHB[ ]	/* 1 value pushed */
34 
SRP0[ ]	/* SetRefPoint0 */
PUSHB[ ]	/* 1 value pushed */
31 
MDRP[10000]	/* MoveDirectRelPt */
PUSHB[ ]	/* 1 value pushed */
34 
SRP0[ ]	/* SetRefPoint0 */
PUSHB[ ]	/* 1 value pushed */
38 
MDRP[10000]	/* MoveDirectRelPt */
PUSHB[ ]	/* 1 value pushed */
34 
SRP0[ ]	/* SetRefPoint0 */
PUSHB[ ]	/* 2 values pushed */
41 1 
PUSHB[ ]	/* 1 value pushed */
10 
CALL[ ]	/* CallFunction */
IF[ ]	/* If */
POP[ ]	/* PopTopStack */
MDRP[11000]	/* MoveDirectRelPt */
ELSE[ ]	/* Else */
MIRP[10100]	/* MoveIndirectRelPt */
EIF[ ]	/* EndIf */
IUP[0]	/* InterpolateUntPts */
IUP[1]	/* InterpolateUntPts */";
};
width = 1150;
},
{
layerId = m005;
shapes = (
{
closed = 1;
nodes = (
(393,-208,l),
(426,-20,l),
(660,-7,o),
(834,134,o),
(871,346,cs),
(915,593,o),
(758,672,o),
(518,760,cs),
(313,836,o),
(190,896,o),
(227,1112,cs),
(260,1296,o),
(423,1424,o),
(639,1424,cs),
(862,1424,o),
(973,1274,o),
(933,1047,c),
(987,1047,l),
(1032,1306,o),
(921,1463,o),
(678,1476,c),
(711,1663,l),
(656,1663,l),
(623,1476,l),
(393,1468,o),
(211,1327,o),
(173,1110,cs),
(130,874,o),
(272,789,o),
(488,710,cs),
(702,631,o),
(856,560,o),
(817,344,cs),
(786,168,o),
(610,32,o),
(401,32,cs),
(148,32,o),
(15,173,o),
(56,409,c),
(2,409,l),
(-44,146,o),
(90,-10,o),
(371,-21,c),
(338,-208,l)
);
}
);
userData = {
assembly = "SVTCA[0]	/* SetFreedomAndProjectionVectorToAxis */
PUSHB[ ]	/* 1 value pushed */
0 
RCVT[ ]	/* ReadCVT */
IF[ ]	/* If */
PUSHB[ ]	/* 1 value pushed */
9 
MDAP[1]	/* MoveDirectAbsPt */
ELSE[ ]	/* Else */
PUSHB[ ]	/* 2 values pushed */
9 30 
MIAP[0]	/* MoveIndirectAbsPt */
EIF[ ]	/* EndIf */
PUSHB[ ]	/* 1 value pushed */
0 
RCVT[ ]	/* ReadCVT */
IF[ ]	/* If */
PUSHB[ ]	/* 1 value pushed */
34 
MDAP[1]	/* MoveDirectAbsPt */
ELSE[ ]	/* Else */
PUSHB[ ]	/* 2 values pushed */
34 18 
MIAP[0]	/* MoveIndirectAbsPt */
EIF[ ]	/* EndIf */
PUSHB[ ]	/* 3 values pushed */
2 34 9 
SRP1[ ]	/* SetRefPoint1 */
SRP2[ ]	/* SetRefPoint2 */
IP[ ]	/* InterpolatePts */
PUSHB[ ]	/* 1 value pushed */
9 
SRP0[ ]	/* SetRefPoint0 */
PUSHB[ ]	/* 1 value pushed */
12 
MDRP[10000]	/* MoveDirectRelPt */
PUSHB[ ]	/* 1 value pushed */
9 
SRP0[ ]	/* SetRefPoint0 */
PUSHB[ ]	/* 1 value pushed */
16 
MDRP[10000]	/* MoveDirectRelPt */
PUSHB[ ]	/* 1 value pushed */
9 
SRP0[ ]	/* SetRefPoint0 */
PUSHB[ ]	/* 2 values pushed */
19 1 
PUSHB[ ]	/* 1 value pushed */
10 
CALL[ ]	/* CallFunction */
IF[ ]	/* If */
POP[ ]	/* PopTopStack */
MDRP[11000]	/* MoveDirectRelPt */
ELSE[ ]	/* Else */
MIRP[10100]	/* MoveIndirectRelPt */
EIF[ ]	/* EndIf */
PUSHB[ ]	/* 1 value pushed */
2 
SRP0[ ]	/* SetRefPoint0 */
PUSHB[ ]	/* 2 values pushed */
25 1 
PUSHB[ ]	/* 1 value pushed */
10 
CALL[ ]	/* CallFunction */
IF[ ]	/* If */
POP[ ]	/* PopTopStack */
MDRP[11000]	/* MoveDirectRelPt */
ELSE[ ]	/* Else */
MIRP[10100]	/* MoveIndirectRelPt */
EIF[ ]	/* EndIf */
PUSHB[ ]	/* 1 value pushed */
34 
SRP0[ ]	/* SetRefPoint0 */
PUSHB[ ]	/* 1 value pushed */
31 
MDRP[10000]	/* MoveDirectRelPt */
PUSHB[ ]	/* 1 value pushed */
34 
SRP0[ ]	/* SetRefPoint0 */
PUSHB[ ]	/* 1 value pushed */
38 
MDRP[10000]	/* MoveDirectRelPt */
PUSHB[ ]	/* 1 value pushed */
34 
SRP0[ ]	/* SetRefPoint0 */
PUSHB[ ]	/* 2 values pushed */
41 1 
PUSHB[ ]	/* 1 value pushed */
10 
CALL[ ]	/* CallFunction */
IF[ ]	/* If */
POP[ ]	/* PopTopStack */
MDRP[11000]	/* MoveDirectRelPt */
ELSE[ ]	/* Else */
MIRP[10100]	/* MoveIndirectRelPt */
EIF[ ]	/* EndIf */
IUP[0]	/* InterpolateUntPts */
IUP[1]	/* InterpolateUntPts */";
};
width = 1121;
}
);
note = uni0024;
unicode = 36;
},
{
glyphname = percent;
lastChange = "2020-12-06 18:37:19 +0000";
layers = (
{
layerId = "A9B054E9-1A63-4AEF-9EE1-561B1DFE8422";
shapes = (
{
closed = 1;
nodes = (
(1180,1247,l),
(1039,1323,l),
(328,185,l),
(469,109,l)
);
},
{
closed = 1;
nodes = (
(1299.667,-20,o),
(1424,100.333,o),
(1424,279,cs),
(1424,351,ls),
(1424,541.667,o),
(1296.333,657,o),
(1107,657,cs),
(920.333,657,o),
(791,537,o),
(791,357,cs),
(791,283,ls),
(791,100.333,o),
(917,-20,o),
(1109,-20,cs)
);
},
{
closed = 1;
nodes = (
(1037,146,o),
(983,205.667,o),
(983,279,cs),
(983,354,ls),
(983,438,o),
(1032.333,490,o),
(1107,490,cs),
(1181.667,490,o),
(1231,437,o),
(1231,357,cs),
(1231,281,ls),
(1231,191,o),
(1190.333,146,o),
(1109,146,cs)
);
},
{
closed = 1;
nodes = (
(600,800,o),
(727,919,o),
(727,1099,cs),
(727,1171,ls),
(727,1359,o),
(600.667,1477,o),
(410,1477,cs),
(222,1477,o),
(95,1354.667,o),
(95,1176,cs),
(95,1105,ls),
(95,918.333,o),
(222.667,800,o),
(412,800,cs)
);
},
{
closed = 1;
nodes = (
(337.333,966,o),
(287,1019,o),
(287,1099,cs),
(287,1172,ls),
(287,1258.667,o),
(336.667,1310,o),
(410,1310,cs),
(487.333,1310,o),
(534,1256,o),
(534,1176,cs),
(534,1102,ls),
(534,1019.333,o),
(486.667,966,o),
(412,966,cs)
);
}
);
userData = {
assembly = "SVTCA[0]	/* SetFreedomAndProjectionVectorToAxis */
PUSHB[ ]	/* 1 value pushed */
0 
RCVT[ ]	/* ReadCVT */
IF[ ]	/* If */
PUSHB[ ]	/* 1 value pushed */
3 
MDAP[1]	/* MoveDirectAbsPt */
ELSE[ ]	/* Else */
PUSHB[ ]	/* 2 values pushed */
3 30 
MIAP[0]	/* MoveIndirectAbsPt */
EIF[ ]	/* EndIf */
PUSHB[ ]	/* 1 value pushed */
0 
RCVT[ ]	/* ReadCVT */
IF[ ]	/* If */
PUSHB[ ]	/* 1 value pushed */
35 
MDAP[1]	/* MoveDirectAbsPt */
ELSE[ ]	/* Else */
PUSHB[ ]	/* 2 values pushed */
35 18 
MIAP[0]	/* MoveIndirectAbsPt */
EIF[ ]	/* EndIf */
PUSHB[ ]	/* 1 value pushed */
3 
SRP0[ ]	/* SetRefPoint0 */
PUSHB[ ]	/* 1 value pushed */
10 
MDRP[10000]	/* MoveDirectRelPt */
PUSHB[ ]	/* 1 value pushed */
10 
MDAP[1]	/* MoveDirectAbsPt */
PUSHB[ ]	/* 2 values pushed */
17 4 
PUSHB[ ]	/* 1 value pushed */
10 
CALL[ ]	/* CallFunction */
IF[ ]	/* If */
POP[ ]	/* PopTopStack */
MDRP[11000]	/* MoveDirectRelPt */
ELSE[ ]	/* Else */
MIRP[10100]	/* MoveIndirectRelPt */
EIF[ ]	/* EndIf */
PUSHB[ ]	/* 1 value pushed */
3 
SRP0[ ]	/* SetRefPoint0 */
PUSHB[ ]	/* 2 values pushed */
24 4 
PUSHB[ ]	/* 1 value pushed */
10 
CALL[ ]	/* CallFunction */
IF[ ]	/* If */
POP[ ]	/* PopTopStack */
MDRP[11000]	/* MoveDirectRelPt */
ELSE[ ]	/* Else */
MIRP[10100]	/* MoveIndirectRelPt */
EIF[ ]	/* EndIf */
PUSHB[ ]	/* 1 value pushed */
35 
SRP0[ ]	/* SetRefPoint0 */
PUSHB[ ]	/* 1 value pushed */
29 
MDRP[10000]	/* MoveDirectRelPt */
PUSHB[ ]	/* 1 value pushed */
29 
MDAP[1]	/* MoveDirectAbsPt */
PUSHB[ ]	/* 1 value pushed */
35 
SRP0[ ]	/* SetRefPoint0 */
PUSHB[ ]	/* 2 values pushed */
42 4 
PUSHB[ ]	/* 1 value pushed */
10 
CALL[ ]	/* CallFunction */
IF[ ]	/* If */
POP[ ]	/* PopTopStack */
MDRP[11000]	/* MoveDirectRelPt */
ELSE[ ]	/* Else */
MIRP[10100]	/* MoveIndirectRelPt */
EIF[ ]	/* EndIf */
PUSHB[ ]	/* 1 value pushed */
29 
SRP0[ ]	/* SetRefPoint0 */
PUSHB[ ]	/* 2 values pushed */
49 4 
PUSHB[ ]	/* 1 value pushed */
10 
CALL[ ]	/* CallFunction */
IF[ ]	/* If */
POP[ ]	/* PopTopStack */
MDRP[11000]	/* MoveDirectRelPt */
ELSE[ ]	/* Else */
MIRP[10100]	/* MoveIndirectRelPt */
EIF[ ]	/* EndIf */
PUSHB[ ]	/* 3 values pushed */
53 35 3 
SRP1[ ]	/* SetRefPoint1 */
SRP2[ ]	/* SetRefPoint2 */
IP[ ]	/* InterpolatePts */
PUSHB[ ]	/* 1 value pushed */
53 
MDAP[1]	/* MoveDirectAbsPt */
PUSHB[ ]	/* 3 values pushed */
55 3 35 
SRP1[ ]	/* SetRefPoint1 */
SRP2[ ]	/* SetRefPoint2 */
IP[ ]	/* InterpolatePts */
PUSHB[ ]	/* 1 value pushed */
55 
MDAP[1]	/* MoveDirectAbsPt */
IUP[0]	/* InterpolateUntPts */
IUP[1]	/* InterpolateUntPts */";
};
width = 1512;
},
{
layerId = m002;
shapes = (
{
closed = 1;
nodes = (
(1158,1248,l),
(1053,1314,l),
(342,176,l),
(447,110,l)
);
},
{
closed = 1;
nodes = (
(1287.333,-21,o),
(1411,104.333,o),
(1411,279,cs),
(1411,350,ls),
(1411,535.333,o),
(1286.667,657,o),
(1112,657,cs),
(937.333,657,o),
(814,531.667,o),
(814,357,cs),
(814,285,ls),
(814,99.667,o),
(940.667,-21,o),
(1114,-21,cs)
);
},
{
closed = 1;
nodes = (
(1015.333,99,o),
(952,173.667,o),
(952,279,cs),
(952,353,ls),
(952,465,o),
(1017.333,536,o),
(1112,536,cs),
(1209.333,536,o),
(1272,462.333,o),
(1272,357,cs),
(1272,283,ls),
(1272,169.667,o),
(1210,99,o),
(1114,99,cs)
);
},
{
closed = 1;
nodes = (
(577,800,o),
(701,923,o),
(701,1099,cs),
(701,1170,ls),
(701,1351.333,o),
(580.333,1477,o),
(403,1477,cs),
(228.333,1477,o),
(105,1350.667,o),
(105,1176,cs),
(105,1106,ls),
(105,920.667,o),
(231.667,800,o),
(405,800,cs)
);
},
{
closed = 1;
nodes = (
(306.333,920,o),
(243,995,o),
(243,1099,cs),
(243,1172,ls),
(243,1281.333,o),
(304.333,1356,o),
(403,1356,cs),
(501.667,1356,o),
(563,1280,o),
(563,1176,cs),
(563,1103,ls),
(563,989.667,o),
(499.667,920,o),
(405,920,cs)
);
}
);
userData = {
assembly = "SVTCA[0]	/* SetFreedomAndProjectionVectorToAxis */
PUSHB[ ]	/* 1 value pushed */
0 
RCVT[ ]	/* ReadCVT */
IF[ ]	/* If */
PUSHB[ ]	/* 1 value pushed */
3 
MDAP[1]	/* MoveDirectAbsPt */
ELSE[ ]	/* Else */
PUSHB[ ]	/* 2 values pushed */
3 30 
MIAP[0]	/* MoveIndirectAbsPt */
EIF[ ]	/* EndIf */
PUSHB[ ]	/* 1 value pushed */
0 
RCVT[ ]	/* ReadCVT */
IF[ ]	/* If */
PUSHB[ ]	/* 1 value pushed */
35 
MDAP[1]	/* MoveDirectAbsPt */
ELSE[ ]	/* Else */
PUSHB[ ]	/* 2 values pushed */
35 18 
MIAP[0]	/* MoveIndirectAbsPt */
EIF[ ]	/* EndIf */
PUSHB[ ]	/* 1 value pushed */
3 
SRP0[ ]	/* SetRefPoint0 */
PUSHB[ ]	/* 1 value pushed */
10 
MDRP[10000]	/* MoveDirectRelPt */
PUSHB[ ]	/* 1 value pushed */
10 
MDAP[1]	/* MoveDirectAbsPt */
PUSHB[ ]	/* 2 values pushed */
17 4 
PUSHB[ ]	/* 1 value pushed */
10 
CALL[ ]	/* CallFunction */
IF[ ]	/* If */
POP[ ]	/* PopTopStack */
MDRP[11000]	/* MoveDirectRelPt */
ELSE[ ]	/* Else */
MIRP[10100]	/* MoveIndirectRelPt */
EIF[ ]	/* EndIf */
PUSHB[ ]	/* 1 value pushed */
3 
SRP0[ ]	/* SetRefPoint0 */
PUSHB[ ]	/* 2 values pushed */
24 4 
PUSHB[ ]	/* 1 value pushed */
10 
CALL[ ]	/* CallFunction */
IF[ ]	/* If */
POP[ ]	/* PopTopStack */
MDRP[11000]	/* MoveDirectRelPt */
ELSE[ ]	/* Else */
MIRP[10100]	/* MoveIndirectRelPt */
EIF[ ]	/* EndIf */
PUSHB[ ]	/* 1 value pushed */
35 
SRP0[ ]	/* SetRefPoint0 */
PUSHB[ ]	/* 1 value pushed */
29 
MDRP[10000]	/* MoveDirectRelPt */
PUSHB[ ]	/* 1 value pushed */
29 
MDAP[1]	/* MoveDirectAbsPt */
PUSHB[ ]	/* 1 value pushed */
35 
SRP0[ ]	/* SetRefPoint0 */
PUSHB[ ]	/* 2 values pushed */
42 4 
PUSHB[ ]	/* 1 value pushed */
10 
CALL[ ]	/* CallFunction */
IF[ ]	/* If */
POP[ ]	/* PopTopStack */
MDRP[11000]	/* MoveDirectRelPt */
ELSE[ ]	/* Else */
MIRP[10100]	/* MoveIndirectRelPt */
EIF[ ]	/* EndIf */
PUSHB[ ]	/* 1 value pushed */
29 
SRP0[ ]	/* SetRefPoint0 */
PUSHB[ ]	/* 2 values pushed */
49 4 
PUSHB[ ]	/* 1 value pushed */
10 
CALL[ ]	/* CallFunction */
IF[ ]	/* If */
POP[ ]	/* PopTopStack */
MDRP[11000]	/* MoveDirectRelPt */
ELSE[ ]	/* Else */
MIRP[10100]	/* MoveIndirectRelPt */
EIF[ ]	/* EndIf */
PUSHB[ ]	/* 3 values pushed */
53 35 3 
SRP1[ ]	/* SetRefPoint1 */
SRP2[ ]	/* SetRefPoint2 */
IP[ ]	/* InterpolatePts */
PUSHB[ ]	/* 1 value pushed */
53 
MDAP[1]	/* MoveDirectAbsPt */
PUSHB[ ]	/* 3 values pushed */
55 3 35 
SRP1[ ]	/* SetRefPoint1 */
SRP2[ ]	/* SetRefPoint2 */
IP[ ]	/* InterpolatePts */
PUSHB[ ]	/* 1 value pushed */
55 
MDAP[1]	/* MoveDirectAbsPt */
IUP[0]	/* InterpolateUntPts */
IUP[1]	/* InterpolateUntPts */";
};
width = 1500;
},
{
layerId = m003;
shapes = (
{
closed = 1;
nodes = (
(1133,1269,l),
(1088,1300,l),
(377,162,l),
(422,131,l)
);
},
{
closed = 1;
nodes = (
(1296.333,-21,o),
(1413,107,o),
(1413,279,cs),
(1413,350,ls),
(1413,531.333,o),
(1297,657,o),
(1141,657,cs),
(986.333,657,o),
(870,529,o),
(870,357,cs),
(870,284,ls),
(870,104,o),
(988.333,-21,o),
(1143,-21,cs)
);
},
{
closed = 1;
nodes = (
(1011,34,o),
(925,136.333,o),
(925,279,cs),
(925,353,ls),
(925,505,o),
(1009,602,o),
(1141,602,cs),
(1274.333,602,o),
(1358,507.667,o),
(1358,357,cs),
(1358,284,ls),
(1358,136,o),
(1273.667,34,o),
(1143,34,cs)
);
},
{
closed = 1;
nodes = (
(542.667,800,o),
(657,929.667,o),
(657,1099,cs),
(657,1171,ls),
(657,1348.333,o),
(542,1477,o),
(386,1477,cs),
(231.333,1477,o),
(114,1348,o),
(114,1176,cs),
(114,1105,ls),
(114,925,o),
(232,800,o),
(388,800,cs)
);
},
{
closed = 1;
nodes = (
(254.667,855,o),
(169,960.333,o),
(169,1099,cs),
(169,1169,ls),
(169,1322.333,o),
(259.333,1422,o),
(386,1422,cs),
(515.333,1422,o),
(602,1320,o),
(602,1176,cs),
(602,1104,ls),
(602,956,o),
(516,855,o),
(388,855,cs)
);
}
);
userData = {
assembly = "SVTCA[0]	/* SetFreedomAndProjectionVectorToAxis */
PUSHB[ ]	/* 1 value pushed */
0 
RCVT[ ]	/* ReadCVT */
IF[ ]	/* If */
PUSHB[ ]	/* 1 value pushed */
3 
MDAP[1]	/* MoveDirectAbsPt */
ELSE[ ]	/* Else */
PUSHB[ ]	/* 2 values pushed */
3 30 
MIAP[0]	/* MoveIndirectAbsPt */
EIF[ ]	/* EndIf */
PUSHB[ ]	/* 1 value pushed */
0 
RCVT[ ]	/* ReadCVT */
IF[ ]	/* If */
PUSHB[ ]	/* 1 value pushed */
35 
MDAP[1]	/* MoveDirectAbsPt */
ELSE[ ]	/* Else */
PUSHB[ ]	/* 2 values pushed */
35 18 
MIAP[0]	/* MoveIndirectAbsPt */
EIF[ ]	/* EndIf */
PUSHB[ ]	/* 1 value pushed */
3 
SRP0[ ]	/* SetRefPoint0 */
PUSHB[ ]	/* 1 value pushed */
10 
MDRP[10000]	/* MoveDirectRelPt */
PUSHB[ ]	/* 1 value pushed */
10 
MDAP[1]	/* MoveDirectAbsPt */
PUSHB[ ]	/* 2 values pushed */
17 4 
PUSHB[ ]	/* 1 value pushed */
10 
CALL[ ]	/* CallFunction */
IF[ ]	/* If */
POP[ ]	/* PopTopStack */
MDRP[11000]	/* MoveDirectRelPt */
ELSE[ ]	/* Else */
MIRP[10100]	/* MoveIndirectRelPt */
EIF[ ]	/* EndIf */
PUSHB[ ]	/* 1 value pushed */
3 
SRP0[ ]	/* SetRefPoint0 */
PUSHB[ ]	/* 2 values pushed */
24 4 
PUSHB[ ]	/* 1 value pushed */
10 
CALL[ ]	/* CallFunction */
IF[ ]	/* If */
POP[ ]	/* PopTopStack */
MDRP[11000]	/* MoveDirectRelPt */
ELSE[ ]	/* Else */
MIRP[10100]	/* MoveIndirectRelPt */
EIF[ ]	/* EndIf */
PUSHB[ ]	/* 1 value pushed */
35 
SRP0[ ]	/* SetRefPoint0 */
PUSHB[ ]	/* 1 value pushed */
29 
MDRP[10000]	/* MoveDirectRelPt */
PUSHB[ ]	/* 1 value pushed */
29 
MDAP[1]	/* MoveDirectAbsPt */
PUSHB[ ]	/* 1 value pushed */
35 
SRP0[ ]	/* SetRefPoint0 */
PUSHB[ ]	/* 2 values pushed */
42 4 
PUSHB[ ]	/* 1 value pushed */
10 
CALL[ ]	/* CallFunction */
IF[ ]	/* If */
POP[ ]	/* PopTopStack */
MDRP[11000]	/* MoveDirectRelPt */
ELSE[ ]	/* Else */
MIRP[10100]	/* MoveIndirectRelPt */
EIF[ ]	/* EndIf */
PUSHB[ ]	/* 1 value pushed */
29 
SRP0[ ]	/* SetRefPoint0 */
PUSHB[ ]	/* 2 values pushed */
49 4 
PUSHB[ ]	/* 1 value pushed */
10 
CALL[ ]	/* CallFunction */
IF[ ]	/* If */
POP[ ]	/* PopTopStack */
MDRP[11000]	/* MoveDirectRelPt */
ELSE[ ]	/* Else */
MIRP[10100]	/* MoveIndirectRelPt */
EIF[ ]	/* EndIf */
PUSHB[ ]	/* 3 values pushed */
53 35 3 
SRP1[ ]	/* SetRefPoint1 */
SRP2[ ]	/* SetRefPoint2 */
IP[ ]	/* InterpolatePts */
PUSHB[ ]	/* 1 value pushed */
53 
MDAP[1]	/* MoveDirectAbsPt */
PUSHB[ ]	/* 3 values pushed */
55 3 35 
SRP1[ ]	/* SetRefPoint1 */
SRP2[ ]	/* SetRefPoint2 */
IP[ ]	/* InterpolatePts */
PUSHB[ ]	/* 1 value pushed */
55 
MDAP[1]	/* MoveDirectAbsPt */
IUP[0]	/* InterpolateUntPts */
IUP[1]	/* InterpolateUntPts */";
};
width = 1527;
},
{
layerId = m004;
shapes = (
{
closed = 1;
nodes = (
(1187,1248,l),
(1094,1314,l),
(182,176,l),
(276,110,l)
);
},
{
closed = 1;
nodes = (
(1093,-21,o),
(1239,104,o),
(1269,279,cs),
(1282,350,ls),
(1315,535,o),
(1212,657,o),
(1037,657,cs),
(862,657,o),
(717,532,o),
(686,357,cs),
(673,285,ls),
(641,100,o),
(746,-21,o),
(920,-21,cs)
);
},
{
closed = 1;
nodes = (
(842,99,o),
(792,174,o),
(810,279,cs),
(823,353,ls),
(843,465,o),
(921,536,o),
(1016,536,cs),
(1113,536,o),
(1163,462,o),
(1144,357,cs),
(1131,283,ls),
(1111,170,o),
(1037,99,o),
(941,99,cs)
);
},
{
closed = 1;
nodes = (
(527,800,o),
(673,923,o),
(704,1099,cs),
(717,1170,ls),
(748,1351,o),
(650,1477,o),
(473,1477,cs),
(298,1477,o),
(152,1351,o),
(122,1176,cs),
(109,1106,ls),
(77,921,o),
(182,800,o),
(355,800,cs)
);
},
{
closed = 1;
nodes = (
(278,920,o),
(228,995,o),
(246,1099,cs),
(259,1172,ls),
(278,1281,o),
(353,1356,o),
(451,1356,cs),
(550,1356,o),
(598,1280,o),
(580,1176,cs),
(567,1103,ls),
(547,990,o),
(471,920,o),
(376,920,cs)
);
}
);
userData = {
assembly = "SVTCA[0]	/* SetFreedomAndProjectionVectorToAxis */
PUSHB[ ]	/* 1 value pushed */
0 
RCVT[ ]	/* ReadCVT */
IF[ ]	/* If */
PUSHB[ ]	/* 1 value pushed */
3 
MDAP[1]	/* MoveDirectAbsPt */
ELSE[ ]	/* Else */
PUSHB[ ]	/* 2 values pushed */
3 30 
MIAP[0]	/* MoveIndirectAbsPt */
EIF[ ]	/* EndIf */
PUSHB[ ]	/* 1 value pushed */
0 
RCVT[ ]	/* ReadCVT */
IF[ ]	/* If */
PUSHB[ ]	/* 1 value pushed */
35 
MDAP[1]	/* MoveDirectAbsPt */
ELSE[ ]	/* Else */
PUSHB[ ]	/* 2 values pushed */
35 18 
MIAP[0]	/* MoveIndirectAbsPt */
EIF[ ]	/* EndIf */
PUSHB[ ]	/* 1 value pushed */
3 
SRP0[ ]	/* SetRefPoint0 */
PUSHB[ ]	/* 1 value pushed */
10 
MDRP[10000]	/* MoveDirectRelPt */
PUSHB[ ]	/* 1 value pushed */
10 
MDAP[1]	/* MoveDirectAbsPt */
PUSHB[ ]	/* 2 values pushed */
17 4 
PUSHB[ ]	/* 1 value pushed */
10 
CALL[ ]	/* CallFunction */
IF[ ]	/* If */
POP[ ]	/* PopTopStack */
MDRP[11000]	/* MoveDirectRelPt */
ELSE[ ]	/* Else */
MIRP[10100]	/* MoveIndirectRelPt */
EIF[ ]	/* EndIf */
PUSHB[ ]	/* 1 value pushed */
3 
SRP0[ ]	/* SetRefPoint0 */
PUSHB[ ]	/* 2 values pushed */
24 4 
PUSHB[ ]	/* 1 value pushed */
10 
CALL[ ]	/* CallFunction */
IF[ ]	/* If */
POP[ ]	/* PopTopStack */
MDRP[11000]	/* MoveDirectRelPt */
ELSE[ ]	/* Else */
MIRP[10100]	/* MoveIndirectRelPt */
EIF[ ]	/* EndIf */
PUSHB[ ]	/* 1 value pushed */
35 
SRP0[ ]	/* SetRefPoint0 */
PUSHB[ ]	/* 1 value pushed */
29 
MDRP[10000]	/* MoveDirectRelPt */
PUSHB[ ]	/* 1 value pushed */
29 
MDAP[1]	/* MoveDirectAbsPt */
PUSHB[ ]	/* 1 value pushed */
35 
SRP0[ ]	/* SetRefPoint0 */
PUSHB[ ]	/* 2 values pushed */
42 4 
PUSHB[ ]	/* 1 value pushed */
10 
CALL[ ]	/* CallFunction */
IF[ ]	/* If */
POP[ ]	/* PopTopStack */
MDRP[11000]	/* MoveDirectRelPt */
ELSE[ ]	/* Else */
MIRP[10100]	/* MoveIndirectRelPt */
EIF[ ]	/* EndIf */
PUSHB[ ]	/* 1 value pushed */
29 
SRP0[ ]	/* SetRefPoint0 */
PUSHB[ ]	/* 2 values pushed */
49 4 
PUSHB[ ]	/* 1 value pushed */
10 
CALL[ ]	/* CallFunction */
IF[ ]	/* If */
POP[ ]	/* PopTopStack */
MDRP[11000]	/* MoveDirectRelPt */
ELSE[ ]	/* Else */
MIRP[10100]	/* MoveIndirectRelPt */
EIF[ ]	/* EndIf */
PUSHB[ ]	/* 3 values pushed */
53 35 3 
SRP1[ ]	/* SetRefPoint1 */
SRP2[ ]	/* SetRefPoint2 */
IP[ ]	/* InterpolatePts */
PUSHB[ ]	/* 1 value pushed */
53 
MDAP[1]	/* MoveDirectAbsPt */
PUSHB[ ]	/* 3 values pushed */
55 3 35 
SRP1[ ]	/* SetRefPoint1 */
SRP2[ ]	/* SetRefPoint2 */
IP[ ]	/* InterpolatePts */
PUSHB[ ]	/* 1 value pushed */
55 
MDAP[1]	/* MoveDirectAbsPt */
IUP[0]	/* InterpolateUntPts */
IUP[1]	/* InterpolateUntPts */";
};
width = 1500;
},
{
layerId = m005;
shapes = (
{
closed = 1;
nodes = (
(1166,1269,l),
(1126,1300,l),
(215,162,l),
(254,131,l)
);
},
{
closed = 1;
nodes = (
(1102,-21,o),
(1241,107,o),
(1271,279,cs),
(1284,350,ls),
(1316,531,o),
(1222,657,o),
(1066,657,cs),
(911,657,o),
(772,529,o),
(742,357,cs),
(729,284,ls),
(698,104,o),
(794,-21,o),
(949,-21,cs)
);
},
{
closed = 1;
nodes = (
(826,34,o),
(758,136,o),
(783,279,cs),
(796,353,ls),
(823,505,o),
(924,602,o),
(1056,602,cs),
(1190,602,o),
(1257,508,o),
(1230,357,cs),
(1217,284,ls),
(1191,136,o),
(1089,34,o),
(958,34,cs)
);
},
{
closed = 1;
nodes = (
(493,800,o),
(630,930,o),
(660,1099,cs),
(673,1171,ls),
(704,1348,o),
(612,1477,o),
(456,1477,cs),
(301,1477,o),
(161,1348,o),
(131,1176,cs),
(118,1105,ls),
(86,925,o),
(182,800,o),
(338,800,cs)
);
},
{
closed = 1;
nodes = (
(215,855,o),
(148,960,o),
(172,1099,cs),
(184,1169,ls),
(211,1322,o),
(319,1422,o),
(446,1422,cs),
(575,1422,o),
(644,1320,o),
(619,1176,cs),
(606,1104,ls),
(580,956,o),
(476,855,o),
(348,855,cs)
);
}
);
userData = {
assembly = "SVTCA[0]	/* SetFreedomAndProjectionVectorToAxis */
PUSHB[ ]	/* 1 value pushed */
0 
RCVT[ ]	/* ReadCVT */
IF[ ]	/* If */
PUSHB[ ]	/* 1 value pushed */
3 
MDAP[1]	/* MoveDirectAbsPt */
ELSE[ ]	/* Else */
PUSHB[ ]	/* 2 values pushed */
3 30 
MIAP[0]	/* MoveIndirectAbsPt */
EIF[ ]	/* EndIf */
PUSHB[ ]	/* 1 value pushed */
0 
RCVT[ ]	/* ReadCVT */
IF[ ]	/* If */
PUSHB[ ]	/* 1 value pushed */
35 
MDAP[1]	/* MoveDirectAbsPt */
ELSE[ ]	/* Else */
PUSHB[ ]	/* 2 values pushed */
35 18 
MIAP[0]	/* MoveIndirectAbsPt */
EIF[ ]	/* EndIf */
PUSHB[ ]	/* 1 value pushed */
3 
SRP0[ ]	/* SetRefPoint0 */
PUSHB[ ]	/* 1 value pushed */
10 
MDRP[10000]	/* MoveDirectRelPt */
PUSHB[ ]	/* 1 value pushed */
10 
MDAP[1]	/* MoveDirectAbsPt */
PUSHB[ ]	/* 2 values pushed */
17 4 
PUSHB[ ]	/* 1 value pushed */
10 
CALL[ ]	/* CallFunction */
IF[ ]	/* If */
POP[ ]	/* PopTopStack */
MDRP[11000]	/* MoveDirectRelPt */
ELSE[ ]	/* Else */
MIRP[10100]	/* MoveIndirectRelPt */
EIF[ ]	/* EndIf */
PUSHB[ ]	/* 1 value pushed */
3 
SRP0[ ]	/* SetRefPoint0 */
PUSHB[ ]	/* 2 values pushed */
24 4 
PUSHB[ ]	/* 1 value pushed */
10 
CALL[ ]	/* CallFunction */
IF[ ]	/* If */
POP[ ]	/* PopTopStack */
MDRP[11000]	/* MoveDirectRelPt */
ELSE[ ]	/* Else */
MIRP[10100]	/* MoveIndirectRelPt */
EIF[ ]	/* EndIf */
PUSHB[ ]	/* 1 value pushed */
35 
SRP0[ ]	/* SetRefPoint0 */
PUSHB[ ]	/* 1 value pushed */
29 
MDRP[10000]	/* MoveDirectRelPt */
PUSHB[ ]	/* 1 value pushed */
29 
MDAP[1]	/* MoveDirectAbsPt */
PUSHB[ ]	/* 1 value pushed */
35 
SRP0[ ]	/* SetRefPoint0 */
PUSHB[ ]	/* 2 values pushed */
42 4 
PUSHB[ ]	/* 1 value pushed */
10 
CALL[ ]	/* CallFunction */
IF[ ]	/* If */
POP[ ]	/* PopTopStack */
MDRP[11000]	/* MoveDirectRelPt */
ELSE[ ]	/* Else */
MIRP[10100]	/* MoveIndirectRelPt */
EIF[ ]	/* EndIf */
PUSHB[ ]	/* 1 value pushed */
29 
SRP0[ ]	/* SetRefPoint0 */
PUSHB[ ]	/* 2 values pushed */
49 4 
PUSHB[ ]	/* 1 value pushed */
10 
CALL[ ]	/* CallFunction */
IF[ ]	/* If */
POP[ ]	/* PopTopStack */
MDRP[11000]	/* MoveDirectRelPt */
ELSE[ ]	/* Else */
MIRP[10100]	/* MoveIndirectRelPt */
EIF[ ]	/* EndIf */
PUSHB[ ]	/* 3 values pushed */
53 35 3 
SRP1[ ]	/* SetRefPoint1 */
SRP2[ ]	/* SetRefPoint2 */
IP[ ]	/* InterpolatePts */
PUSHB[ ]	/* 1 value pushed */
53 
MDAP[1]	/* MoveDirectAbsPt */
PUSHB[ ]	/* 3 values pushed */
55 3 35 
SRP1[ ]	/* SetRefPoint1 */
SRP2[ ]	/* SetRefPoint2 */
IP[ ]	/* InterpolatePts */
PUSHB[ ]	/* 1 value pushed */
55 
MDAP[1]	/* MoveDirectAbsPt */
IUP[0]	/* InterpolateUntPts */
IUP[1]	/* InterpolateUntPts */";
};
width = 1527;
}
);
note = uni0025;
unicode = 37;
},
{
glyphname = ampersand;
lastChange = "2020-12-06 19:31:30 +0000";
layers = (
{
layerId = "A9B054E9-1A63-4AEF-9EE1-561B1DFE8422";
shapes = (
{
closed = 1;
nodes = (
(686.333,-20,o),
(809.667,15.333,o),
(917,86,c),
(992,0,l),
(1320,0,l),
(1102,253,l),
(1189.333,370.333,o),
(1233,523.667,o),
(1233,713,c),
(987,713,l),
(987,619.667,o),
(967.333,534.333,o),
(928,457,c),
(677,749,l),
(789,830,ls),
(906.333,918.667,o),
(965,1021,o),
(965,1137,cs),
(965,1330.333,o),
(810.333,1476,o),
(593,1476,cs),
(350.333,1476,o),
(196,1319.667,o),
(196,1093,cs),
(196,982.333,o),
(248.333,886,o),
(335,770,c),
(133.667,630,o),
(71,526.667,o),
(71,392,cs),
(71,145.333,o),
(259,-20,o),
(547,-20,cs)
);
},
{
closed = 1;
nodes = (
(442.333,212,o),
(361,292,o),
(361,408,cs),
(361,476.667,o),
(390.667,536.333,o),
(450,587,c),
(471,602,l),
(758,270,l),
(696,231.333,o),
(630.333,212,o),
(561,212,cs)
);
},
{
closed = 1;
nodes = (
(484.333,984,o),
(455,1047,o),
(455,1097,cs),
(455,1185,o),
(509.333,1243,o),
(592,1243,cs),
(669.333,1243,o),
(724,1185.667,o),
(724,1119,cs),
(724,1052.333,o),
(698.667,1009.667,o),
(620,959,cs),
(543,908,l)
);
}
);
userData = {
assembly = "SVTCA[0]	/* SetFreedomAndProjectionVectorToAxis */
PUSHB[ ]	/* 1 value pushed */
0 
RCVT[ ]	/* ReadCVT */
IF[ ]	/* If */
PUSHB[ ]	/* 1 value pushed */
9 
MDAP[1]	/* MoveDirectAbsPt */
ELSE[ ]	/* Else */
PUSHB[ ]	/* 2 values pushed */
9 30 
MIAP[0]	/* MoveIndirectAbsPt */
EIF[ ]	/* EndIf */
PUSHB[ ]	/* 1 value pushed */
0 
RCVT[ ]	/* ReadCVT */
IF[ ]	/* If */
PUSHB[ ]	/* 1 value pushed */
28 
MDAP[1]	/* MoveDirectAbsPt */
ELSE[ ]	/* Else */
PUSHB[ ]	/* 2 values pushed */
28 18 
MIAP[0]	/* MoveIndirectAbsPt */
EIF[ ]	/* EndIf */
PUSHB[ ]	/* 1 value pushed */
0 
RCVT[ ]	/* ReadCVT */
IF[ ]	/* If */
PUSHB[ ]	/* 1 value pushed */
24 
MDAP[1]	/* MoveDirectAbsPt */
ELSE[ ]	/* Else */
PUSHB[ ]	/* 2 values pushed */
24 18 
MIAP[0]	/* MoveIndirectAbsPt */
EIF[ ]	/* EndIf */
PUSHB[ ]	/* 3 values pushed */
34 28 9 
SRP1[ ]	/* SetRefPoint1 */
SRP2[ ]	/* SetRefPoint2 */
IP[ ]	/* InterpolatePts */
PUSHB[ ]	/* 3 values pushed */
42 9 28 
SRP1[ ]	/* SetRefPoint1 */
SRP2[ ]	/* SetRefPoint2 */
IP[ ]	/* InterpolatePts */
PUSHB[ ]	/* 3 values pushed */
3 34 42 
SRP1[ ]	/* SetRefPoint1 */
SRP2[ ]	/* SetRefPoint2 */
IP[ ]	/* InterpolatePts */
PUSHB[ ]	/* 3 values pushed */
16 42 34 
SRP1[ ]	/* SetRefPoint1 */
SRP2[ ]	/* SetRefPoint2 */
IP[ ]	/* InterpolatePts */
PUSHB[ ]	/* 3 values pushed */
17 9 28 
SRP1[ ]	/* SetRefPoint1 */
SRP2[ ]	/* SetRefPoint2 */
IP[ ]	/* InterpolatePts */
PUSHB[ ]	/* 3 values pushed */
19 28 9 
SRP1[ ]	/* SetRefPoint1 */
SRP2[ ]	/* SetRefPoint2 */
IP[ ]	/* InterpolatePts */
PUSHB[ ]	/* 3 values pushed */
25 28 9 
SRP1[ ]	/* SetRefPoint1 */
SRP2[ ]	/* SetRefPoint2 */
IP[ ]	/* InterpolatePts */
PUSHB[ ]	/* 3 values pushed */
22 17 25 
SRP1[ ]	/* SetRefPoint1 */
SRP2[ ]	/* SetRefPoint2 */
IP[ ]	/* InterpolatePts */
PUSHB[ ]	/* 1 value pushed */
28 
SRP0[ ]	/* SetRefPoint0 */
PUSHB[ ]	/* 2 values pushed */
31 1 
PUSHB[ ]	/* 1 value pushed */
10 
CALL[ ]	/* CallFunction */
IF[ ]	/* If */
POP[ ]	/* PopTopStack */
MDRP[11000]	/* MoveDirectRelPt */
ELSE[ ]	/* Else */
MIRP[10100]	/* MoveIndirectRelPt */
EIF[ ]	/* EndIf */
PUSHB[ ]	/* 3 values pushed */
33 31 17 
SRP1[ ]	/* SetRefPoint1 */
SRP2[ ]	/* SetRefPoint2 */
IP[ ]	/* InterpolatePts */
PUSHB[ ]	/* 1 value pushed */
9 
SRP0[ ]	/* SetRefPoint0 */
PUSHB[ ]	/* 2 values pushed */
49 1 
PUSHB[ ]	/* 1 value pushed */
10 
CALL[ ]	/* CallFunction */
IF[ ]	/* If */
POP[ ]	/* PopTopStack */
MDRP[11000]	/* MoveDirectRelPt */
ELSE[ ]	/* Else */
MIRP[10100]	/* MoveIndirectRelPt */
EIF[ ]	/* EndIf */
IUP[0]	/* InterpolateUntPts */
IUP[1]	/* InterpolateUntPts */";
};
width = 1344;
},
{
layerId = m002;
shapes = (
{
closed = 1;
nodes = (
(709.333,-20,o),
(849.333,27,o),
(948,115,c),
(1045,0,l),
(1267,0,l),
(1059,249,l),
(1141,361,o),
(1182,502,o),
(1182,672,c),
(1015,672,l),
(1015,566,o),
(992.333,469.667,o),
(947,383,c),
(623,770,l),
(730,849,ls),
(878,958.333,o),
(930,1050.667,o),
(930,1168,cs),
(930,1345.333,o),
(784,1476,o),
(584,1476,cs),
(360,1476,o),
(220,1343.333,o),
(220,1122,cs),
(220,1027.333,o),
(253.667,946.333,o),
(383,789,c),
(163,633,o),
(101,531,o),
(101,391,cs),
(101,144.333,o),
(288,-20,o),
(572,-20,cs)
);
},
{
closed = 1;
nodes = (
(394.667,131,o),
(286,233.667,o),
(286,391,cs),
(286,477.667,o),
(341.667,562,o),
(453,644,cs),
(486,668,l),
(841,243,l),
(759.667,168.333,o),
(670,131,o),
(572,131,cs)
);
},
{
closed = 1;
nodes = (
(444.333,984,o),
(405,1064,o),
(405,1128,cs),
(405,1241.333,o),
(473.667,1324,o),
(583,1324,cs),
(684.333,1324,o),
(759,1257.333,o),
(759,1168,cs),
(759,1085.333,o),
(731.667,1035,o),
(641,971,cs),
(523,888,l)
);
}
);
userData = {
assembly = "SVTCA[0]	/* SetFreedomAndProjectionVectorToAxis */
PUSHB[ ]	/* 1 value pushed */
0 
RCVT[ ]	/* ReadCVT */
IF[ ]	/* If */
PUSHB[ ]	/* 1 value pushed */
9 
MDAP[1]	/* MoveDirectAbsPt */
ELSE[ ]	/* Else */
PUSHB[ ]	/* 2 values pushed */
9 30 
MIAP[0]	/* MoveIndirectAbsPt */
EIF[ ]	/* EndIf */
PUSHB[ ]	/* 1 value pushed */
0 
RCVT[ ]	/* ReadCVT */
IF[ ]	/* If */
PUSHB[ ]	/* 1 value pushed */
28 
MDAP[1]	/* MoveDirectAbsPt */
ELSE[ ]	/* Else */
PUSHB[ ]	/* 2 values pushed */
28 18 
MIAP[0]	/* MoveIndirectAbsPt */
EIF[ ]	/* EndIf */
PUSHB[ ]	/* 1 value pushed */
0 
RCVT[ ]	/* ReadCVT */
IF[ ]	/* If */
PUSHB[ ]	/* 1 value pushed */
24 
MDAP[1]	/* MoveDirectAbsPt */
ELSE[ ]	/* Else */
PUSHB[ ]	/* 2 values pushed */
24 18 
MIAP[0]	/* MoveIndirectAbsPt */
EIF[ ]	/* EndIf */
PUSHB[ ]	/* 3 values pushed */
34 28 9 
SRP1[ ]	/* SetRefPoint1 */
SRP2[ ]	/* SetRefPoint2 */
IP[ ]	/* InterpolatePts */
PUSHB[ ]	/* 3 values pushed */
42 9 28 
SRP1[ ]	/* SetRefPoint1 */
SRP2[ ]	/* SetRefPoint2 */
IP[ ]	/* InterpolatePts */
PUSHB[ ]	/* 3 values pushed */
3 34 42 
SRP1[ ]	/* SetRefPoint1 */
SRP2[ ]	/* SetRefPoint2 */
IP[ ]	/* InterpolatePts */
PUSHB[ ]	/* 3 values pushed */
16 42 34 
SRP1[ ]	/* SetRefPoint1 */
SRP2[ ]	/* SetRefPoint2 */
IP[ ]	/* InterpolatePts */
PUSHB[ ]	/* 3 values pushed */
17 9 28 
SRP1[ ]	/* SetRefPoint1 */
SRP2[ ]	/* SetRefPoint2 */
IP[ ]	/* InterpolatePts */
PUSHB[ ]	/* 3 values pushed */
19 28 9 
SRP1[ ]	/* SetRefPoint1 */
SRP2[ ]	/* SetRefPoint2 */
IP[ ]	/* InterpolatePts */
PUSHB[ ]	/* 3 values pushed */
25 28 9 
SRP1[ ]	/* SetRefPoint1 */
SRP2[ ]	/* SetRefPoint2 */
IP[ ]	/* InterpolatePts */
PUSHB[ ]	/* 3 values pushed */
22 17 25 
SRP1[ ]	/* SetRefPoint1 */
SRP2[ ]	/* SetRefPoint2 */
IP[ ]	/* InterpolatePts */
PUSHB[ ]	/* 1 value pushed */
28 
SRP0[ ]	/* SetRefPoint0 */
PUSHB[ ]	/* 2 values pushed */
31 1 
PUSHB[ ]	/* 1 value pushed */
10 
CALL[ ]	/* CallFunction */
IF[ ]	/* If */
POP[ ]	/* PopTopStack */
MDRP[11000]	/* MoveDirectRelPt */
ELSE[ ]	/* Else */
MIRP[10100]	/* MoveIndirectRelPt */
EIF[ ]	/* EndIf */
PUSHB[ ]	/* 3 values pushed */
33 31 17 
SRP1[ ]	/* SetRefPoint1 */
SRP2[ ]	/* SetRefPoint2 */
IP[ ]	/* InterpolatePts */
PUSHB[ ]	/* 1 value pushed */
9 
SRP0[ ]	/* SetRefPoint0 */
PUSHB[ ]	/* 2 values pushed */
49 1 
PUSHB[ ]	/* 1 value pushed */
10 
CALL[ ]	/* CallFunction */
IF[ ]	/* If */
POP[ ]	/* PopTopStack */
MDRP[11000]	/* MoveDirectRelPt */
ELSE[ ]	/* Else */
MIRP[10100]	/* MoveIndirectRelPt */
EIF[ ]	/* EndIf */
IUP[0]	/* InterpolateUntPts */
IUP[1]	/* InterpolateUntPts */";
};
width = 1273;
},
{
layerId = m003;
shapes = (
{
closed = 1;
nodes = (
(700.333,-20,o),
(841.333,45.333,o),
(972,176,c),
(1129,0,l),
(1196,0,l),
(1006,216,l),
(1094.667,335.333,o),
(1139,474,o),
(1139,632,c),
(1084,632,l),
(1084,489.333,o),
(1045.667,364.667,o),
(969,258,c),
(494,797,l),
(650,921,ls),
(775.333,1025,o),
(838,1122.333,o),
(838,1213,cs),
(838,1369,o),
(728.667,1477,o),
(562,1477,cs),
(380.667,1477,o),
(257,1355,o),
(257,1167,cs),
(257,1053.667,o),
(304.667,946,o),
(422,802,c),
(180.333,600.667,o),
(115,482.667,o),
(115,352,cs),
(115,124,o),
(281,-20,o),
(549,-20,cs)
);
},
{
closed = 1;
nodes = (
(318.333,34,o),
(169,162.667,o),
(169,352,cs),
(169,473.333,o),
(244.667,587,o),
(402,723,c),
(454,764,l),
(937,217,l),
(835.667,99.667,o),
(697,34,o),
(549,34,cs)
);
},
{
closed = 1;
nodes = (
(362,952,o),
(312,1063.667,o),
(312,1169,cs),
(312,1319.667,o),
(411.333,1423,o),
(562,1423,cs),
(691.333,1423,o),
(782,1335.667,o),
(782,1213,cs),
(782,1133.667,o),
(733.667,1053.667,o),
(637,973,cs),
(462,834,l)
);
}
);
userData = {
assembly = "SVTCA[0]	/* SetFreedomAndProjectionVectorToAxis */
PUSHB[ ]	/* 1 value pushed */
0 
RCVT[ ]	/* ReadCVT */
IF[ ]	/* If */
PUSHB[ ]	/* 1 value pushed */
9 
MDAP[1]	/* MoveDirectAbsPt */
ELSE[ ]	/* Else */
PUSHB[ ]	/* 2 values pushed */
9 30 
MIAP[0]	/* MoveIndirectAbsPt */
EIF[ ]	/* EndIf */
PUSHB[ ]	/* 1 value pushed */
0 
RCVT[ ]	/* ReadCVT */
IF[ ]	/* If */
PUSHB[ ]	/* 1 value pushed */
28 
MDAP[1]	/* MoveDirectAbsPt */
ELSE[ ]	/* Else */
PUSHB[ ]	/* 2 values pushed */
28 18 
MIAP[0]	/* MoveIndirectAbsPt */
EIF[ ]	/* EndIf */
PUSHB[ ]	/* 1 value pushed */
0 
RCVT[ ]	/* ReadCVT */
IF[ ]	/* If */
PUSHB[ ]	/* 1 value pushed */
24 
MDAP[1]	/* MoveDirectAbsPt */
ELSE[ ]	/* Else */
PUSHB[ ]	/* 2 values pushed */
24 18 
MIAP[0]	/* MoveIndirectAbsPt */
EIF[ ]	/* EndIf */
PUSHB[ ]	/* 3 values pushed */
34 28 9 
SRP1[ ]	/* SetRefPoint1 */
SRP2[ ]	/* SetRefPoint2 */
IP[ ]	/* InterpolatePts */
PUSHB[ ]	/* 3 values pushed */
42 9 28 
SRP1[ ]	/* SetRefPoint1 */
SRP2[ ]	/* SetRefPoint2 */
IP[ ]	/* InterpolatePts */
PUSHB[ ]	/* 3 values pushed */
3 34 42 
SRP1[ ]	/* SetRefPoint1 */
SRP2[ ]	/* SetRefPoint2 */
IP[ ]	/* InterpolatePts */
PUSHB[ ]	/* 3 values pushed */
16 42 34 
SRP1[ ]	/* SetRefPoint1 */
SRP2[ ]	/* SetRefPoint2 */
IP[ ]	/* InterpolatePts */
PUSHB[ ]	/* 3 values pushed */
17 9 28 
SRP1[ ]	/* SetRefPoint1 */
SRP2[ ]	/* SetRefPoint2 */
IP[ ]	/* InterpolatePts */
PUSHB[ ]	/* 3 values pushed */
19 28 9 
SRP1[ ]	/* SetRefPoint1 */
SRP2[ ]	/* SetRefPoint2 */
IP[ ]	/* InterpolatePts */
PUSHB[ ]	/* 3 values pushed */
25 28 9 
SRP1[ ]	/* SetRefPoint1 */
SRP2[ ]	/* SetRefPoint2 */
IP[ ]	/* InterpolatePts */
PUSHB[ ]	/* 3 values pushed */
22 17 25 
SRP1[ ]	/* SetRefPoint1 */
SRP2[ ]	/* SetRefPoint2 */
IP[ ]	/* InterpolatePts */
PUSHB[ ]	/* 1 value pushed */
28 
SRP0[ ]	/* SetRefPoint0 */
PUSHB[ ]	/* 2 values pushed */
31 1 
PUSHB[ ]	/* 1 value pushed */
10 
CALL[ ]	/* CallFunction */
IF[ ]	/* If */
POP[ ]	/* PopTopStack */
MDRP[11000]	/* MoveDirectRelPt */
ELSE[ ]	/* Else */
MIRP[10100]	/* MoveIndirectRelPt */
EIF[ ]	/* EndIf */
PUSHB[ ]	/* 3 values pushed */
33 31 17 
SRP1[ ]	/* SetRefPoint1 */
SRP2[ ]	/* SetRefPoint2 */
IP[ ]	/* InterpolatePts */
PUSHB[ ]	/* 1 value pushed */
9 
SRP0[ ]	/* SetRefPoint0 */
PUSHB[ ]	/* 2 values pushed */
49 1 
PUSHB[ ]	/* 1 value pushed */
10 
CALL[ ]	/* CallFunction */
IF[ ]	/* If */
POP[ ]	/* PopTopStack */
MDRP[11000]	/* MoveDirectRelPt */
ELSE[ ]	/* Else */
MIRP[10100]	/* MoveIndirectRelPt */
EIF[ ]	/* EndIf */
IUP[0]	/* InterpolateUntPts */
IUP[1]	/* InterpolateUntPts */";
};
width = 1247;
},
{
layerId = m004;
shapes = (
{
closed = 1;
nodes = (
(515,-20,o),
(663,27,o),
(777,115,c),
(854,0,l),
(1076,0,l),
(912,249,l),
(1014,361,o),
(1080,502,o),
(1110,672,c),
(943,672,l),
(924,566,o),
(884,470,o),
(824,383,c),
(568,770,l),
(689,849,ls),
(856,958,o),
(924,1051,o),
(945,1168,cs),
(976,1345,o),
(853,1476,o),
(653,1476,cs),
(429,1476,o),
(266,1343,o),
(227,1122,cs),
(210,1027,o),
(230,946,o),
(331,789,c),
(84,633,o),
(4,531,o),
(-21,391,cs),
(-64,144,o),
(94,-20,o),
(378,-20,cs)
);
},
{
closed = 1;
nodes = (
(227,131,o),
(136,234,o),
(164,391,cs),
(179,478,o),
(250,562,o),
(376,644,cs),
(413,668,l),
(693,243,l),
(599,168,o),
(502,131,o),
(404,131,cs)
);
},
{
closed = 1;
nodes = (
(427,984,o),
(402,1064,o),
(413,1128,cs),
(433,1241,o),
(516,1324,o),
(626,1324,cs),
(727,1324,o),
(790,1257,o),
(774,1168,cs),
(760,1085,o),
(723,1035,o),
(621,971,cs),
(489,888,l)
);
}
);
userData = {
assembly = "SVTCA[0]	/* SetFreedomAndProjectionVectorToAxis */
PUSHB[ ]	/* 1 value pushed */
0 
RCVT[ ]	/* ReadCVT */
IF[ ]	/* If */
PUSHB[ ]	/* 1 value pushed */
9 
MDAP[1]	/* MoveDirectAbsPt */
ELSE[ ]	/* Else */
PUSHB[ ]	/* 2 values pushed */
9 30 
MIAP[0]	/* MoveIndirectAbsPt */
EIF[ ]	/* EndIf */
PUSHB[ ]	/* 1 value pushed */
0 
RCVT[ ]	/* ReadCVT */
IF[ ]	/* If */
PUSHB[ ]	/* 1 value pushed */
28 
MDAP[1]	/* MoveDirectAbsPt */
ELSE[ ]	/* Else */
PUSHB[ ]	/* 2 values pushed */
28 18 
MIAP[0]	/* MoveIndirectAbsPt */
EIF[ ]	/* EndIf */
PUSHB[ ]	/* 1 value pushed */
0 
RCVT[ ]	/* ReadCVT */
IF[ ]	/* If */
PUSHB[ ]	/* 1 value pushed */
24 
MDAP[1]	/* MoveDirectAbsPt */
ELSE[ ]	/* Else */
PUSHB[ ]	/* 2 values pushed */
24 18 
MIAP[0]	/* MoveIndirectAbsPt */
EIF[ ]	/* EndIf */
PUSHB[ ]	/* 3 values pushed */
34 28 9 
SRP1[ ]	/* SetRefPoint1 */
SRP2[ ]	/* SetRefPoint2 */
IP[ ]	/* InterpolatePts */
PUSHB[ ]	/* 3 values pushed */
42 9 28 
SRP1[ ]	/* SetRefPoint1 */
SRP2[ ]	/* SetRefPoint2 */
IP[ ]	/* InterpolatePts */
PUSHB[ ]	/* 3 values pushed */
3 34 42 
SRP1[ ]	/* SetRefPoint1 */
SRP2[ ]	/* SetRefPoint2 */
IP[ ]	/* InterpolatePts */
PUSHB[ ]	/* 3 values pushed */
16 42 34 
SRP1[ ]	/* SetRefPoint1 */
SRP2[ ]	/* SetRefPoint2 */
IP[ ]	/* InterpolatePts */
PUSHB[ ]	/* 3 values pushed */
17 9 28 
SRP1[ ]	/* SetRefPoint1 */
SRP2[ ]	/* SetRefPoint2 */
IP[ ]	/* InterpolatePts */
PUSHB[ ]	/* 3 values pushed */
19 28 9 
SRP1[ ]	/* SetRefPoint1 */
SRP2[ ]	/* SetRefPoint2 */
IP[ ]	/* InterpolatePts */
PUSHB[ ]	/* 3 values pushed */
25 28 9 
SRP1[ ]	/* SetRefPoint1 */
SRP2[ ]	/* SetRefPoint2 */
IP[ ]	/* InterpolatePts */
PUSHB[ ]	/* 3 values pushed */
22 17 25 
SRP1[ ]	/* SetRefPoint1 */
SRP2[ ]	/* SetRefPoint2 */
IP[ ]	/* InterpolatePts */
PUSHB[ ]	/* 1 value pushed */
28 
SRP0[ ]	/* SetRefPoint0 */
PUSHB[ ]	/* 2 values pushed */
31 1 
PUSHB[ ]	/* 1 value pushed */
10 
CALL[ ]	/* CallFunction */
IF[ ]	/* If */
POP[ ]	/* PopTopStack */
MDRP[11000]	/* MoveDirectRelPt */
ELSE[ ]	/* Else */
MIRP[10100]	/* MoveIndirectRelPt */
EIF[ ]	/* EndIf */
PUSHB[ ]	/* 3 values pushed */
33 31 17 
SRP1[ ]	/* SetRefPoint1 */
SRP2[ ]	/* SetRefPoint2 */
IP[ ]	/* InterpolatePts */
PUSHB[ ]	/* 1 value pushed */
9 
SRP0[ ]	/* SetRefPoint0 */
PUSHB[ ]	/* 2 values pushed */
49 1 
PUSHB[ ]	/* 1 value pushed */
10 
CALL[ ]	/* CallFunction */
IF[ ]	/* If */
POP[ ]	/* PopTopStack */
MDRP[11000]	/* MoveDirectRelPt */
ELSE[ ]	/* Else */
MIRP[10100]	/* MoveIndirectRelPt */
EIF[ ]	/* EndIf */
IUP[0]	/* InterpolateUntPts */
IUP[1]	/* InterpolateUntPts */";
};
width = 1273;
},
{
layerId = m005;
shapes = (
{
closed = 1;
nodes = (
(506,-20,o),
(659,45,o),
(812,176,c),
(938,0,l),
(1005,0,l),
(853,216,l),
(963,335,o),
(1032,474,o),
(1060,632,c),
(1005,632,l),
(979,489,o),
(919,365,o),
(824,258,c),
(444,797,l),
(622,921,ls),
(765,1025,o),
(845,1122,o),
(861,1213,cs),
(889,1369,o),
(798,1477,o),
(632,1477,cs),
(450,1477,o),
(305,1355,o),
(272,1167,cs),
(252,1054,o),
(281,946,o),
(373,802,c),
(95,601,o),
(9,483,o),
(-14,352,cs),
(-54,124,o),
(87,-20,o),
(355,-20,cs)
);
},
{
closed = 1;
nodes = (
(134,34,o),
(7,163,o),
(40,352,cs),
(62,473,o),
(157,587,o),
(339,723,cs),
(398,764,l),
(784,217,l),
(662,100,o),
(512,34,o),
(364,34,cs)
);
},
{
closed = 1;
nodes = (
(339,952,o),
(309,1064,o),
(327,1169,cs),
(354,1320,o),
(471,1423,o),
(622,1423,cs),
(751,1423,o),
(827,1336,o),
(805,1213,cs),
(791,1134,o),
(729,1054,o),
(618,973,cs),
(418,834,l)
);
}
);
userData = {
assembly = "SVTCA[0]	/* SetFreedomAndProjectionVectorToAxis */
PUSHB[ ]	/* 1 value pushed */
0 
RCVT[ ]	/* ReadCVT */
IF[ ]	/* If */
PUSHB[ ]	/* 1 value pushed */
9 
MDAP[1]	/* MoveDirectAbsPt */
ELSE[ ]	/* Else */
PUSHB[ ]	/* 2 values pushed */
9 30 
MIAP[0]	/* MoveIndirectAbsPt */
EIF[ ]	/* EndIf */
PUSHB[ ]	/* 1 value pushed */
0 
RCVT[ ]	/* ReadCVT */
IF[ ]	/* If */
PUSHB[ ]	/* 1 value pushed */
28 
MDAP[1]	/* MoveDirectAbsPt */
ELSE[ ]	/* Else */
PUSHB[ ]	/* 2 values pushed */
28 18 
MIAP[0]	/* MoveIndirectAbsPt */
EIF[ ]	/* EndIf */
PUSHB[ ]	/* 1 value pushed */
0 
RCVT[ ]	/* ReadCVT */
IF[ ]	/* If */
PUSHB[ ]	/* 1 value pushed */
24 
MDAP[1]	/* MoveDirectAbsPt */
ELSE[ ]	/* Else */
PUSHB[ ]	/* 2 values pushed */
24 18 
MIAP[0]	/* MoveIndirectAbsPt */
EIF[ ]	/* EndIf */
PUSHB[ ]	/* 3 values pushed */
34 28 9 
SRP1[ ]	/* SetRefPoint1 */
SRP2[ ]	/* SetRefPoint2 */
IP[ ]	/* InterpolatePts */
PUSHB[ ]	/* 3 values pushed */
42 9 28 
SRP1[ ]	/* SetRefPoint1 */
SRP2[ ]	/* SetRefPoint2 */
IP[ ]	/* InterpolatePts */
PUSHB[ ]	/* 3 values pushed */
3 34 42 
SRP1[ ]	/* SetRefPoint1 */
SRP2[ ]	/* SetRefPoint2 */
IP[ ]	/* InterpolatePts */
PUSHB[ ]	/* 3 values pushed */
16 42 34 
SRP1[ ]	/* SetRefPoint1 */
SRP2[ ]	/* SetRefPoint2 */
IP[ ]	/* InterpolatePts */
PUSHB[ ]	/* 3 values pushed */
17 9 28 
SRP1[ ]	/* SetRefPoint1 */
SRP2[ ]	/* SetRefPoint2 */
IP[ ]	/* InterpolatePts */
PUSHB[ ]	/* 3 values pushed */
19 28 9 
SRP1[ ]	/* SetRefPoint1 */
SRP2[ ]	/* SetRefPoint2 */
IP[ ]	/* InterpolatePts */
PUSHB[ ]	/* 3 values pushed */
25 28 9 
SRP1[ ]	/* SetRefPoint1 */
SRP2[ ]	/* SetRefPoint2 */
IP[ ]	/* InterpolatePts */
PUSHB[ ]	/* 3 values pushed */
22 17 25 
SRP1[ ]	/* SetRefPoint1 */
SRP2[ ]	/* SetRefPoint2 */
IP[ ]	/* InterpolatePts */
PUSHB[ ]	/* 1 value pushed */
28 
SRP0[ ]	/* SetRefPoint0 */
PUSHB[ ]	/* 2 values pushed */
31 1 
PUSHB[ ]	/* 1 value pushed */
10 
CALL[ ]	/* CallFunction */
IF[ ]	/* If */
POP[ ]	/* PopTopStack */
MDRP[11000]	/* MoveDirectRelPt */
ELSE[ ]	/* Else */
MIRP[10100]	/* MoveIndirectRelPt */
EIF[ ]	/* EndIf */
PUSHB[ ]	/* 3 values pushed */
33 31 17 
SRP1[ ]	/* SetRefPoint1 */
SRP2[ ]	/* SetRefPoint2 */
IP[ ]	/* InterpolatePts */
PUSHB[ ]	/* 1 value pushed */
9 
SRP0[ ]	/* SetRefPoint0 */
PUSHB[ ]	/* 2 values pushed */
49 1 
PUSHB[ ]	/* 1 value pushed */
10 
CALL[ ]	/* CallFunction */
IF[ ]	/* If */
POP[ ]	/* PopTopStack */
MDRP[11000]	/* MoveDirectRelPt */
ELSE[ ]	/* Else */
MIRP[10100]	/* MoveIndirectRelPt */
EIF[ ]	/* EndIf */
IUP[0]	/* InterpolateUntPts */
IUP[1]	/* InterpolateUntPts */";
};
width = 1247;
}
);
note = uni0026;
unicode = 38;
},
{
glyphname = quotesingle;
kernLeft = quotedbl;
kernRight = quotedbl;
lastChange = "2020-12-06 19:33:19 +0000";
layers = (
{
layerId = "A9B054E9-1A63-4AEF-9EE1-561B1DFE8422";
shapes = (
{
closed = 1;
nodes = (
(246,985,l),
(275,1389,l),
(275,1536,l),
(63,1536,l),
(63,985,l)
);
}
);
userData = {
assembly = "SVTCA[0]	/* SetFreedomAndProjectionVectorToAxis */
PUSHB[ ]	/* 1 value pushed */
3 
MDAP[1]	/* MoveDirectAbsPt */
PUSHB[ ]	/* 3 values pushed */
2 5 3 
SRP1[ ]	/* SetRefPoint1 */
SRP2[ ]	/* SetRefPoint2 */
IP[ ]	/* InterpolatePts */
PUSHB[ ]	/* 1 value pushed */
2 
MDAP[1]	/* MoveDirectAbsPt */
IUP[0]	/* InterpolateUntPts */
IUP[1]	/* InterpolateUntPts */";
};
width = 331;
},
{
layerId = m002;
shapes = (
{
closed = 1;
nodes = (
(232,1057,l),
(253,1425,l),
(253,1536,l),
(104,1536,l),
(103,1057,l)
);
}
);
userData = {
assembly = "SVTCA[0]	/* SetFreedomAndProjectionVectorToAxis */
PUSHB[ ]	/* 1 value pushed */
3 
MDAP[1]	/* MoveDirectAbsPt */
PUSHB[ ]	/* 3 values pushed */
2 5 3 
SRP1[ ]	/* SetRefPoint1 */
SRP2[ ]	/* SetRefPoint2 */
IP[ ]	/* InterpolatePts */
PUSHB[ ]	/* 1 value pushed */
2 
MDAP[1]	/* MoveDirectAbsPt */
IUP[0]	/* InterpolateUntPts */
IUP[1]	/* InterpolateUntPts */";
};
width = 357;
},
{
layerId = m003;
shapes = (
{
closed = 1;
nodes = (
(186,1122,l),
(200,1367,l),
(200,1536,l),
(145,1536,l),
(136,1122,l)
);
}
);
userData = {
assembly = "SVTCA[0]	/* SetFreedomAndProjectionVectorToAxis */
PUSHB[ ]	/* 1 value pushed */
3 
MDAP[1]	/* MoveDirectAbsPt */
PUSHB[ ]	/* 3 values pushed */
2 5 3 
SRP1[ ]	/* SetRefPoint1 */
SRP2[ ]	/* SetRefPoint2 */
IP[ ]	/* InterpolatePts */
PUSHB[ ]	/* 1 value pushed */
2 
MDAP[1]	/* MoveDirectAbsPt */
IUP[0]	/* InterpolateUntPts */
IUP[1]	/* InterpolateUntPts */";
};
width = 340;
},
{
layerId = m004;
shapes = (
{
closed = 1;
nodes = (
(228,1057,l),
(313,1425,l),
(333,1536,l),
(184,1536,l),
(99,1057,l)
);
}
);
userData = {
assembly = "SVTCA[0]	/* SetFreedomAndProjectionVectorToAxis */
PUSHB[ ]	/* 1 value pushed */
3 
MDAP[1]	/* MoveDirectAbsPt */
PUSHB[ ]	/* 3 values pushed */
2 5 3 
SRP1[ ]	/* SetRefPoint1 */
SRP2[ ]	/* SetRefPoint2 */
IP[ ]	/* InterpolatePts */
PUSHB[ ]	/* 1 value pushed */
2 
MDAP[1]	/* MoveDirectAbsPt */
IUP[0]	/* InterpolateUntPts */
IUP[1]	/* InterpolateUntPts */";
};
width = 357;
},
{
layerId = m005;
shapes = (
{
closed = 1;
nodes = (
(193,1122,l),
(250,1367,l),
(280,1536,l),
(225,1536,l),
(143,1122,l)
);
}
);
userData = {
assembly = "SVTCA[0]	/* SetFreedomAndProjectionVectorToAxis */
PUSHB[ ]	/* 1 value pushed */
3 
MDAP[1]	/* MoveDirectAbsPt */
PUSHB[ ]	/* 3 values pushed */
2 5 3 
SRP1[ ]	/* SetRefPoint1 */
SRP2[ ]	/* SetRefPoint2 */
IP[ ]	/* InterpolatePts */
PUSHB[ ]	/* 1 value pushed */
2 
MDAP[1]	/* MoveDirectAbsPt */
IUP[0]	/* InterpolateUntPts */
IUP[1]	/* InterpolateUntPts */";
};
width = 340;
}
);
note = uni0027;
unicode = 39;
},
{
glyphname = parenleft;
lastChange = "2020-12-09 22:08:35 +0000";
layers = (
{
layerId = "A9B054E9-1A63-4AEF-9EE1-561B1DFE8422";
shapes = (
{
closed = 1;
nodes = (
(679,-302,l),
(585,-231,o),
(510,-122,o),
(458,20,cs),
(400,175,o),
(369,370,o),
(369,598,cs),
(369,785,o),
(394,954,o),
(440,1095,cs),
(493,1257,o),
(575,1383,o),
(679,1460,c),
(623,1616,l),
(438,1533,o),
(266,1304,o),
(185,1028,cs),
(144,890,o),
(124,745,o),
(124,592,cs),
(129,246,o),
(213,-34,o),
(370,-240,cs),
(448,-343,o),
(532,-414,o),
(623,-455,c)
);
}
);
userData = {
assembly = "SVTCA[0]	/* SetFreedomAndProjectionVectorToAxis */
PUSHB[ ]	/* 1 value pushed */
14 
MDAP[1]	/* MoveDirectAbsPt */
PUSHB[ ]	/* 1 value pushed */
4 
MDAP[1]	/* MoveDirectAbsPt */
IUP[0]	/* InterpolateUntPts */
IUP[1]	/* InterpolateUntPts */";
};
width = 719;
},
{
layerId = m002;
shapes = (
{
closed = 1;
nodes = (
(661,-357,l),
(535,-254,o),
(448,-100,o),
(393,73,cs),
(341,234,o),
(318,411,o),
(318,579,cs),
(324,782,o),
(353,959,o),
(400,1106,cs),
(461,1296,o),
(551,1437,o),
(661,1521,c),
(623,1643,l),
(471,1561,o),
(353,1406,o),
(271,1225,cs),
(180,1024,o),
(133,790,o),
(133,591,cs),
(133,275.667,o),
(211.667,4.667,o),
(369,-222,cs),
(449.667,-338,o),
(534.333,-420.667,o),
(623,-470,c)
);
}
);
userData = {
assembly = "SVTCA[0]	/* SetFreedomAndProjectionVectorToAxis */
PUSHB[ ]	/* 1 value pushed */
14 
MDAP[1]	/* MoveDirectAbsPt */
PUSHB[ ]	/* 1 value pushed */
4 
MDAP[1]	/* MoveDirectAbsPt */
IUP[0]	/* InterpolateUntPts */
IUP[1]	/* InterpolateUntPts */";
};
width = 700;
},
{
layerId = m003;
shapes = (
{
closed = 1;
nodes = (
(581,-427,l),
(414,-316,o),
(301,-36,o),
(252,162.5,cs),
(218.667,298.167,o),
(202,432,o),
(202,616,cs),
(206,876,o),
(280,1160.333,o),
(396,1363,cs),
(454,1464.333,o),
(515.667,1536.667,o),
(581,1580,c),
(562,1623,l),
(411,1528,o),
(272,1290,o),
(201,1011,cs),
(166,872,o),
(148,730,o),
(148,586,cs),
(148,259,o),
(223,-27,o),
(350.5,-238.5,cs),
(414.167,-344.167,o),
(484.667,-421.333,o),
(562,-470,c)
);
}
);
userData = {
assembly = "SVTCA[0]	/* SetFreedomAndProjectionVectorToAxis */
PUSHB[ ]	/* 1 value pushed */
14 
MDAP[1]	/* MoveDirectAbsPt */
PUSHB[ ]	/* 1 value pushed */
4 
MDAP[1]	/* MoveDirectAbsPt */
IUP[0]	/* InterpolateUntPts */
IUP[1]	/* InterpolateUntPts */";
};
width = 607;
},
{
layerId = m004;
shapes = (
{
closed = 1;
nodes = (
(407,-357,l),
(302,-255,o),
(246,-111,o),
(221,48,cs),
(191,246,o),
(210,468,o),
(245,664,cs),
(281,837,o),
(341,1000,o),
(416,1139,cs),
(506,1306,o),
(618,1440,o),
(738,1521,c),
(722,1643,l),
(568,1567,o),
(432,1429,o),
(322,1265,cs),
(183,1058,o),
(85,809,o),
(46,591,cs),
(-9,276,o),
(22,5,o),
(139,-222,cs),
(199,-338,o),
(269,-421,o),
(349,-470,c)
);
}
);
userData = {
assembly = "SVTCA[0]	/* SetFreedomAndProjectionVectorToAxis */
PUSHB[ ]	/* 1 value pushed */
14 
MDAP[1]	/* MoveDirectAbsPt */
PUSHB[ ]	/* 1 value pushed */
4 
MDAP[1]	/* MoveDirectAbsPt */
IUP[0]	/* InterpolateUntPts */
IUP[1]	/* InterpolateUntPts */";
};
width = 700;
},
{
layerId = m005;
shapes = (
{
closed = 1;
nodes = (
(315,-427,l),
(221,-356,o),
(161,-233,o),
(128,-89,cs),
(74,141,o),
(85,421,o),
(120,616,cs),
(170,876,o),
(294,1160,o),
(446,1363,cs),
(521,1464,o),
(596,1537,o),
(669,1580,c),
(657,1623,l),
(490,1528,o),
(308,1290,o),
(188,1011,cs),
(129,872,o),
(86,730,o),
(61,586,cs),
(30,408,o),
(21,187,o),
(55,-11,cs),
(87,-205,o),
(159,-377,o),
(288,-470,c)
);
}
);
userData = {
assembly = "SVTCA[0]	/* SetFreedomAndProjectionVectorToAxis */
PUSHB[ ]	/* 1 value pushed */
14 
MDAP[1]	/* MoveDirectAbsPt */
PUSHB[ ]	/* 1 value pushed */
4 
MDAP[1]	/* MoveDirectAbsPt */
IUP[0]	/* InterpolateUntPts */
IUP[1]	/* InterpolateUntPts */";
};
width = 607;
}
);
note = uni0028;
unicode = 40;
},
{
glyphname = parenright;
lastChange = "2020-12-09 22:10:43 +0000";
layers = (
{
layerId = "A9B054E9-1A63-4AEF-9EE1-561B1DFE8422";
shapes = (
{
closed = 1;
nodes = (
(281.333,-375,o),
(457.333,-144.667,o),
(544,134,cs),
(587.333,273.333,o),
(609,418.333,o),
(609,569,cs),
(606,793,o),
(566,993,o),
(492,1163,cs),
(417,1337,o),
(277,1537,o),
(96,1616,c),
(40,1463,l),
(131,1392,o),
(205,1284,o),
(257,1144,cs),
(317,984,o),
(349,781,o),
(349,541,cs),
(347,341,o),
(315,160,o),
(258,13,cs),
(206,-124,o),
(131,-233,o),
(40,-302,c),
(96,-455,l)
);
}
);
userData = {
assembly = "SVTCA[0]	/* SetFreedomAndProjectionVectorToAxis */
PUSHB[ ]	/* 1 value pushed */
14 
MDAP[1]	/* MoveDirectAbsPt */
PUSHB[ ]	/* 1 value pushed */
4 
MDAP[1]	/* MoveDirectAbsPt */
IUP[0]	/* InterpolateUntPts */
IUP[1]	/* InterpolateUntPts */";
};
width = 722;
},
{
layerId = m002;
shapes = (
{
closed = 1;
nodes = (
(253,-372.667,o),
(430.5,-119.167,o),
(508.5,153.5,cs),
(547.5,289.833,o),
(567,432.333,o),
(567,581,cs),
(567,894.333,o),
(487.833,1171,o),
(328.5,1399,cs),
(248.833,1513,o),
(165,1594.333,o),
(77,1643,c),
(38,1530,l),
(168.667,1423.333,o),
(278.333,1224.167,o),
(337,983.5,cs),
(366.333,863.167,o),
(381,733,o),
(381,593,cs),
(380,360,o),
(346,171,o),
(286,12,cs),
(227,-149,o),
(141,-278,o),
(38,-357,c),
(77,-470,l)
);
}
);
userData = {
assembly = "SVTCA[0]	/* SetFreedomAndProjectionVectorToAxis */
PUSHB[ ]	/* 1 value pushed */
14 
MDAP[1]	/* MoveDirectAbsPt */
PUSHB[ ]	/* 1 value pushed */
4 
MDAP[1]	/* MoveDirectAbsPt */
IUP[0]	/* InterpolateUntPts */
IUP[1]	/* InterpolateUntPts */";
};
width = 712;
},
{
layerId = m003;
shapes = (
{
closed = 1;
nodes = (
(201.667,-372.667,o),
(336.167,-150.167,o),
(407.5,130.5,cs),
(443.167,270.833,o),
(461,416,o),
(461,566,cs),
(461,880.667,o),
(387.5,1164.667,o),
(257.5,1386,cs),
(192.5,1496.667,o),
(122.333,1575.667,o),
(47,1623,c),
(28,1580,l),
(161.333,1492,o),
(288,1266.833,o),
(356,995.5,cs),
(390,859.833,o),
(407,724.667,o),
(407,590,cs),
(407,292.667,o),
(339.667,21,o),
(221,-195,cs),
(161.667,-303,o),
(97.333,-380.333,o),
(28,-427,c),
(47,-470,l)
);
}
);
userData = {
assembly = "SVTCA[0]	/* SetFreedomAndProjectionVectorToAxis */
PUSHB[ ]	/* 1 value pushed */
14 
MDAP[1]	/* MoveDirectAbsPt */
PUSHB[ ]	/* 1 value pushed */
4 
MDAP[1]	/* MoveDirectAbsPt */
IUP[0]	/* InterpolateUntPts */
IUP[1]	/* InterpolateUntPts */";
};
width = 623;
},
{
layerId = m004;
shapes = (
{
closed = 1;
nodes = (
(-3,-373,o),
(219,-119,o),
(345,154,cs),
(408,290,o),
(452,432,o),
(479,581,cs),
(534,894,o),
(504,1171,o),
(384,1399,cs),
(325,1513,o),
(255,1594,o),
(176,1643,c),
(117,1530,l),
(229,1423,o),
(303,1224,o),
(320,984,cs),
(328,863,o),
(319,733,o),
(295,593,cs),
(257,387,o),
(193,198,o),
(111,40,cs),
(20,-136,o),
(-93,-274,o),
(-216,-357,c),
(-197,-470,l)
);
}
);
userData = {
assembly = "SVTCA[0]	/* SetFreedomAndProjectionVectorToAxis */
PUSHB[ ]	/* 1 value pushed */
14 
MDAP[1]	/* MoveDirectAbsPt */
PUSHB[ ]	/* 1 value pushed */
4 
MDAP[1]	/* MoveDirectAbsPt */
IUP[0]	/* InterpolateUntPts */
IUP[1]	/* InterpolateUntPts */";
};
width = 712;
},
{
layerId = m005;
shapes = (
{
closed = 1;
nodes = (
(-55,-373,o),
(119,-150,o),
(240,131,cs),
(300,271,o),
(344,416,o),
(370,566,cs),
(425,881,o),
(402,1165,o),
(311,1386,cs),
(266,1497,o),
(209,1576,o),
(142,1623,c),
(116,1580,l),
(234,1492,o),
(321,1267,o),
(341,996,cs),
(351,860,o),
(344,725,o),
(320,590,cs),
(268,293,o),
(153,21,o),
(-4,-195,cs),
(-83,-303,o),
(-161,-380,o),
(-238,-427,c),
(-227,-470,l)
);
}
);
userData = {
assembly = "SVTCA[0]	/* SetFreedomAndProjectionVectorToAxis */
PUSHB[ ]	/* 1 value pushed */
14 
MDAP[1]	/* MoveDirectAbsPt */
PUSHB[ ]	/* 1 value pushed */
4 
MDAP[1]	/* MoveDirectAbsPt */
IUP[0]	/* InterpolateUntPts */
IUP[1]	/* InterpolateUntPts */";
};
width = 623;
}
);
note = uni0029;
unicode = 41;
},
{
glyphname = asterisk;
lastChange = "2020-12-06 18:37:18 +0000";
layers = (
{
layerId = "A9B054E9-1A63-4AEF-9EE1-561B1DFE8422";
shapes = (
{
closed = 1;
nodes = (
(805,685,l),
(595,951,l),
(915,1040,l),
(856,1223,l),
(553,1100,l),
(573,1456,l),
(377,1456,l),
(397,1107,l),
(86,1232,l),
(27,1051,l),
(341,962,l),
(125,690,l),
(284,582,l),
(464,864,l),
(646,572,l)
);
}
);
userData = {
assembly = "SVTCA[0]	/* SetFreedomAndProjectionVectorToAxis */
PUSHB[ ]	/* 1 value pushed */
0 
RCVT[ ]	/* ReadCVT */
IF[ ]	/* If */
PUSHB[ ]	/* 1 value pushed */
4 
MDAP[1]	/* MoveDirectAbsPt */
ELSE[ ]	/* Else */
PUSHB[ ]	/* 2 values pushed */
4 30 
MIAP[0]	/* MoveIndirectAbsPt */
EIF[ ]	/* EndIf */
PUSHB[ ]	/* 1 value pushed */
0 
MDRP[10000]	/* MoveDirectRelPt */
RTHG[ ]	/* RoundToHalfGrid */
PUSHB[ ]	/* 1 value pushed */
0 
MDAP[1]	/* MoveDirectAbsPt */
RTG[ ]	/* RoundToGrid */
PUSHB[ ]	/* 1 value pushed */
9 
MDRP[10000]	/* MoveDirectRelPt */
RTHG[ ]	/* RoundToHalfGrid */
PUSHB[ ]	/* 1 value pushed */
9 
MDAP[1]	/* MoveDirectAbsPt */
RTG[ ]	/* RoundToGrid */
IUP[0]	/* InterpolateUntPts */
IUP[1]	/* InterpolateUntPts */";
};
width = 928;
},
{
layerId = m002;
shapes = (
{
closed = 1;
nodes = (
(744,703,l),
(546,974,l),
(853,1065,l),
(807,1217,l),
(510,1107,l),
(520,1456,l),
(367,1456,l),
(376,1112,l),
(74,1224,l),
(28,1073,l),
(330,983,l),
(129,707,l),
(254,616,l),
(434,897,l),
(620,609,l)
);
}
);
userData = {
assembly = "SVTCA[0]	/* SetFreedomAndProjectionVectorToAxis */
PUSHB[ ]	/* 1 value pushed */
0 
RCVT[ ]	/* ReadCVT */
IF[ ]	/* If */
PUSHB[ ]	/* 1 value pushed */
4 
MDAP[1]	/* MoveDirectAbsPt */
ELSE[ ]	/* Else */
PUSHB[ ]	/* 2 values pushed */
4 30 
MIAP[0]	/* MoveIndirectAbsPt */
EIF[ ]	/* EndIf */
PUSHB[ ]	/* 1 value pushed */
0 
MDRP[10000]	/* MoveDirectRelPt */
RTHG[ ]	/* RoundToHalfGrid */
PUSHB[ ]	/* 1 value pushed */
0 
MDAP[1]	/* MoveDirectAbsPt */
RTG[ ]	/* RoundToGrid */
PUSHB[ ]	/* 1 value pushed */
9 
MDRP[10000]	/* MoveDirectRelPt */
RTHG[ ]	/* RoundToHalfGrid */
PUSHB[ ]	/* 1 value pushed */
9 
MDAP[1]	/* MoveDirectAbsPt */
RTG[ ]	/* RoundToGrid */
IUP[0]	/* InterpolateUntPts */
IUP[1]	/* InterpolateUntPts */";
};
width = 882;
},
{
layerId = m003;
shapes = (
{
closed = 1;
nodes = (
(432,986,l),
(674,664,l),
(721,697,l),
(472,1014,l),
(832,1151,l),
(812,1204,l),
(460,1061,l),
(467,1456,l),
(411,1456,l),
(410,1062,l),
(48,1195,l),
(30,1141,l),
(393,1017,l),
(159,693,l),
(204,661,l)
);
}
);
userData = {
assembly = "SVTCA[0]	/* SetFreedomAndProjectionVectorToAxis */
PUSHB[ ]	/* 1 value pushed */
0 
RCVT[ ]	/* ReadCVT */
IF[ ]	/* If */
PUSHB[ ]	/* 1 value pushed */
4 
MDAP[1]	/* MoveDirectAbsPt */
ELSE[ ]	/* Else */
PUSHB[ ]	/* 2 values pushed */
4 30 
MIAP[0]	/* MoveIndirectAbsPt */
EIF[ ]	/* EndIf */
PUSHB[ ]	/* 1 value pushed */
0 
MDRP[10000]	/* MoveDirectRelPt */
RTHG[ ]	/* RoundToHalfGrid */
PUSHB[ ]	/* 1 value pushed */
0 
MDAP[1]	/* MoveDirectAbsPt */
RTG[ ]	/* RoundToGrid */
PUSHB[ ]	/* 1 value pushed */
9 
MDRP[10000]	/* MoveDirectRelPt */
RTHG[ ]	/* RoundToHalfGrid */
PUSHB[ ]	/* 1 value pushed */
9 
MDAP[1]	/* MoveDirectAbsPt */
RTG[ ]	/* RoundToGrid */
IUP[0]	/* InterpolateUntPts */
IUP[1]	/* InterpolateUntPts */";
};
width = 856;
},
{
layerId = m004;
shapes = (
{
closed = 1;
nodes = (
(677,703,l),
(527,974,l),
(850,1065,l),
(831,1217,l),
(514,1107,l),
(586,1456,l),
(433,1456,l),
(381,1112,l),
(99,1224,l),
(26,1073,l),
(313,983,l),
(63,707,l),
(172,616,l),
(401,897,l),
(537,609,l)
);
}
);
userData = {
assembly = "SVTCA[0]	/* SetFreedomAndProjectionVectorToAxis */
PUSHB[ ]	/* 1 value pushed */
0 
RCVT[ ]	/* ReadCVT */
IF[ ]	/* If */
PUSHB[ ]	/* 1 value pushed */
4 
MDAP[1]	/* MoveDirectAbsPt */
ELSE[ ]	/* Else */
PUSHB[ ]	/* 2 values pushed */
4 30 
MIAP[0]	/* MoveIndirectAbsPt */
EIF[ ]	/* EndIf */
PUSHB[ ]	/* 1 value pushed */
0 
MDRP[10000]	/* MoveDirectRelPt */
RTHG[ ]	/* RoundToHalfGrid */
PUSHB[ ]	/* 1 value pushed */
0 
MDAP[1]	/* MoveDirectAbsPt */
RTG[ ]	/* RoundToGrid */
PUSHB[ ]	/* 1 value pushed */
9 
MDRP[10000]	/* MoveDirectRelPt */
RTHG[ ]	/* RoundToHalfGrid */
PUSHB[ ]	/* 1 value pushed */
9 
MDAP[1]	/* MoveDirectAbsPt */
RTG[ ]	/* RoundToGrid */
IUP[0]	/* InterpolateUntPts */
IUP[1]	/* InterpolateUntPts */";
};
width = 882;
},
{
layerId = m005;
shapes = (
{
closed = 1;
nodes = (
(415,986,l),
(600,664,l),
(653,697,l),
(460,1014,l),
(844,1151,l),
(834,1204,l),
(456,1061,l),
(533,1456,l),
(477,1456,l),
(406,1062,l),
(68,1195,l),
(40,1141,l),
(382,1017,l),
(90,693,l),
(130,661,l)
);
}
);
userData = {
assembly = "SVTCA[0]	/* SetFreedomAndProjectionVectorToAxis */
PUSHB[ ]	/* 1 value pushed */
0 
RCVT[ ]	/* ReadCVT */
IF[ ]	/* If */
PUSHB[ ]	/* 1 value pushed */
4 
MDAP[1]	/* MoveDirectAbsPt */
ELSE[ ]	/* Else */
PUSHB[ ]	/* 2 values pushed */
4 30 
MIAP[0]	/* MoveIndirectAbsPt */
EIF[ ]	/* EndIf */
PUSHB[ ]	/* 1 value pushed */
0 
MDRP[10000]	/* MoveDirectRelPt */
RTHG[ ]	/* RoundToHalfGrid */
PUSHB[ ]	/* 1 value pushed */
0 
MDAP[1]	/* MoveDirectAbsPt */
RTG[ ]	/* RoundToGrid */
PUSHB[ ]	/* 1 value pushed */
9 
MDRP[10000]	/* MoveDirectRelPt */
RTHG[ ]	/* RoundToHalfGrid */
PUSHB[ ]	/* 1 value pushed */
9 
MDAP[1]	/* MoveDirectAbsPt */
RTG[ ]	/* RoundToGrid */
IUP[0]	/* InterpolateUntPts */
IUP[1]	/* InterpolateUntPts */";
};
width = 856;
}
);
note = uni002A;
unicode = 42;
},
{
glyphname = plus;
lastChange = "2020-12-06 18:37:18 +0000";
layers = (
{
layerId = "A9B054E9-1A63-4AEF-9EE1-561B1DFE8422";
shapes = (
{
closed = 1;
nodes = (
(694,146,l),
(694,554,l),
(1055,554,l),
(1055,815,l),
(694,815,l),
(694,1206,l),
(419,1206,l),
(419,815,l),
(57,815,l),
(57,554,l),
(419,554,l),
(419,146,l)
);
}
);
userData = {
assembly = "SVTCA[0]	/* SetFreedomAndProjectionVectorToAxis */
PUSHB[ ]	/* 1 value pushed */
9 
MDAP[1]	/* MoveDirectAbsPt */
PUSHB[ ]	/* 1 value pushed */
0 
MDRP[10000]	/* MoveDirectRelPt */
PUSHB[ ]	/* 1 value pushed */
9 
SRP0[ ]	/* SetRefPoint0 */
PUSHB[ ]	/* 2 values pushed */
6 1 
PUSHB[ ]	/* 1 value pushed */
10 
CALL[ ]	/* CallFunction */
IF[ ]	/* If */
POP[ ]	/* PopTopStack */
MDRP[11000]	/* MoveDirectRelPt */
ELSE[ ]	/* Else */
MIRP[10100]	/* MoveIndirectRelPt */
EIF[ ]	/* EndIf */
PUSHB[ ]	/* 1 value pushed */
3 
MDRP[10000]	/* MoveDirectRelPt */
IUP[0]	/* InterpolateUntPts */
IUP[1]	/* InterpolateUntPts */";
};
width = 1118;
},
{
layerId = m002;
shapes = (
{
closed = 1;
nodes = (
(670,146,l),
(670,606,l),
(1076,606,l),
(1076,781,l),
(670,781,l),
(670,1206,l),
(484,1206,l),
(484,781,l),
(78,781,l),
(78,606,l),
(484,606,l),
(484,146,l)
);
}
);
userData = {
assembly = "SVTCA[0]	/* SetFreedomAndProjectionVectorToAxis */
PUSHB[ ]	/* 1 value pushed */
9 
MDAP[1]	/* MoveDirectAbsPt */
PUSHB[ ]	/* 1 value pushed */
0 
MDRP[10000]	/* MoveDirectRelPt */
PUSHB[ ]	/* 1 value pushed */
9 
SRP0[ ]	/* SetRefPoint0 */
PUSHB[ ]	/* 2 values pushed */
6 1 
PUSHB[ ]	/* 1 value pushed */
10 
CALL[ ]	/* CallFunction */
IF[ ]	/* If */
POP[ ]	/* PopTopStack */
MDRP[11000]	/* MoveDirectRelPt */
ELSE[ ]	/* Else */
MIRP[10100]	/* MoveIndirectRelPt */
EIF[ ]	/* EndIf */
PUSHB[ ]	/* 1 value pushed */
3 
MDRP[10000]	/* MoveDirectRelPt */
IUP[0]	/* InterpolateUntPts */
IUP[1]	/* InterpolateUntPts */";
};
width = 1161;
},
{
layerId = m003;
shapes = (
{
closed = 1;
nodes = (
(590,146,l),
(590,649,l),
(1071,649,l),
(1071,702,l),
(590,702,l),
(590,1206,l),
(535,1206,l),
(535,702,l),
(73,702,l),
(73,649,l),
(535,649,l),
(535,146,l)
);
}
);
userData = {
assembly = "SVTCA[0]	/* SetFreedomAndProjectionVectorToAxis */
PUSHB[ ]	/* 1 value pushed */
9 
MDAP[1]	/* MoveDirectAbsPt */
PUSHB[ ]	/* 1 value pushed */
0 
MDRP[10000]	/* MoveDirectRelPt */
PUSHB[ ]	/* 1 value pushed */
9 
SRP0[ ]	/* SetRefPoint0 */
PUSHB[ ]	/* 2 values pushed */
6 1 
PUSHB[ ]	/* 1 value pushed */
10 
CALL[ ]	/* CallFunction */
IF[ ]	/* If */
POP[ ]	/* PopTopStack */
MDRP[11000]	/* MoveDirectRelPt */
ELSE[ ]	/* Else */
MIRP[10100]	/* MoveIndirectRelPt */
EIF[ ]	/* EndIf */
PUSHB[ ]	/* 1 value pushed */
3 
MDRP[10000]	/* MoveDirectRelPt */
IUP[0]	/* InterpolateUntPts */
IUP[1]	/* InterpolateUntPts */";
};
width = 1151;
},
{
layerId = m004;
shapes = (
{
closed = 1;
nodes = (
(505,146,l),
(586,606,l),
(992,606,l),
(1023,781,l),
(617,781,l),
(692,1206,l),
(506,1206,l),
(431,781,l),
(25,781,l),
(-6,606,l),
(400,606,l),
(319,146,l)
);
}
);
userData = {
assembly = "SVTCA[0]	/* SetFreedomAndProjectionVectorToAxis */
PUSHB[ ]	/* 1 value pushed */
9 
MDAP[1]	/* MoveDirectAbsPt */
PUSHB[ ]	/* 1 value pushed */
0 
MDRP[10000]	/* MoveDirectRelPt */
PUSHB[ ]	/* 1 value pushed */
9 
SRP0[ ]	/* SetRefPoint0 */
PUSHB[ ]	/* 2 values pushed */
6 1 
PUSHB[ ]	/* 1 value pushed */
10 
CALL[ ]	/* CallFunction */
IF[ ]	/* If */
POP[ ]	/* PopTopStack */
MDRP[11000]	/* MoveDirectRelPt */
ELSE[ ]	/* Else */
MIRP[10100]	/* MoveIndirectRelPt */
EIF[ ]	/* EndIf */
PUSHB[ ]	/* 1 value pushed */
3 
MDRP[10000]	/* MoveDirectRelPt */
IUP[0]	/* InterpolateUntPts */
IUP[1]	/* InterpolateUntPts */";
};
width = 1161;
},
{
layerId = m005;
shapes = (
{
closed = 1;
nodes = (
(425,146,l),
(514,649,l),
(995,649,l),
(1004,702,l),
(523,702,l),
(612,1206,l),
(557,1206,l),
(468,702,l),
(6,702,l),
(-3,649,l),
(459,649,l),
(370,146,l)
);
}
);
userData = {
assembly = "SVTCA[0]	/* SetFreedomAndProjectionVectorToAxis */
PUSHB[ ]	/* 1 value pushed */
9 
MDAP[1]	/* MoveDirectAbsPt */
PUSHB[ ]	/* 1 value pushed */
0 
MDRP[10000]	/* MoveDirectRelPt */
PUSHB[ ]	/* 1 value pushed */
9 
SRP0[ ]	/* SetRefPoint0 */
PUSHB[ ]	/* 2 values pushed */
6 1 
PUSHB[ ]	/* 1 value pushed */
10 
CALL[ ]	/* CallFunction */
IF[ ]	/* If */
POP[ ]	/* PopTopStack */
MDRP[11000]	/* MoveDirectRelPt */
ELSE[ ]	/* Else */
MIRP[10100]	/* MoveIndirectRelPt */
EIF[ ]	/* EndIf */
PUSHB[ ]	/* 1 value pushed */
3 
MDRP[10000]	/* MoveDirectRelPt */
IUP[0]	/* InterpolateUntPts */
IUP[1]	/* InterpolateUntPts */";
};
width = 1151;
}
);
note = uni002B;
unicode = 43;
},
{
glyphname = comma;
kernLeft = comma;
kernRight = comma;
lastChange = "2020-12-09 02:32:31 +0000";
layers = (
{
layerId = "A9B054E9-1A63-4AEF-9EE1-561B1DFE8422";
shapes = (
{
closed = 1;
nodes = (
(300.667,-266.333,o),
(381.667,-102,o),
(383,46,cs),
(384,246,l),
(140,246,l),
(140,22,ls),
(138.667,-58.667,o),
(115.667,-139.667,o),
(35,-286,c),
(186,-365,l)
);
}
);
userData = {
assembly = "SVTCA[0]	/* SetFreedomAndProjectionVectorToAxis */
PUSHB[ ]	/* 1 value pushed */
9 
MDAP[1]	/* MoveDirectAbsPt */
PUSHB[ ]	/* 2 values pushed */
4 5 
PUSHB[ ]	/* 1 value pushed */
10 
CALL[ ]	/* CallFunction */
IF[ ]	/* If */
POP[ ]	/* PopTopStack */
MDRP[11000]	/* MoveDirectRelPt */
ELSE[ ]	/* Else */
MIRP[10100]	/* MoveIndirectRelPt */
EIF[ ]	/* EndIf */
PUSHB[ ]	/* 1 value pushed */
0 
MDRP[10000]	/* MoveDirectRelPt */
PUSHB[ ]	/* 1 value pushed */
0 
MDAP[1]	/* MoveDirectAbsPt */
IUP[0]	/* InterpolateUntPts */
IUP[1]	/* InterpolateUntPts */";
};
width = 500;
},
{
layerId = m002;
shapes = (
{
closed = 1;
nodes = (
(234,-208.667,o),
(308,-60.667,o),
(308,74,cs),
(308,219,l),
(127,219,l),
(127,52,ls),
(124.333,-40.667,o),
(91.667,-130.667,o),
(29,-218,c),
(134,-290,l)
);
}
);
userData = {
assembly = "SVTCA[0]	/* SetFreedomAndProjectionVectorToAxis */
PUSHB[ ]	/* 1 value pushed */
9 
MDAP[1]	/* MoveDirectAbsPt */
PUSHB[ ]	/* 2 values pushed */
4 5 
PUSHB[ ]	/* 1 value pushed */
10 
CALL[ ]	/* CallFunction */
IF[ ]	/* If */
POP[ ]	/* PopTopStack */
MDRP[11000]	/* MoveDirectRelPt */
ELSE[ ]	/* Else */
MIRP[10100]	/* MoveIndirectRelPt */
EIF[ ]	/* EndIf */
PUSHB[ ]	/* 1 value pushed */
0 
MDRP[10000]	/* MoveDirectRelPt */
PUSHB[ ]	/* 1 value pushed */
0 
MDAP[1]	/* MoveDirectAbsPt */
IUP[0]	/* InterpolateUntPts */
IUP[1]	/* InterpolateUntPts */";
};
width = 402;
},
{
layerId = m003;
shapes = (
{
closed = 1;
nodes = (
(197,-182.333,o),
(232.333,-93,o),
(235,13,cs),
(235,159,l),
(181,159,l),
(180,-8,l),
(175.333,-82,o),
(146,-153.667,o),
(92,-223,c),
(129,-255,l)
);
}
);
userData = {
assembly = "SVTCA[0]	/* SetFreedomAndProjectionVectorToAxis */
PUSHB[ ]	/* 1 value pushed */
9 
MDAP[1]	/* MoveDirectAbsPt */
PUSHB[ ]	/* 2 values pushed */
4 5 
PUSHB[ ]	/* 1 value pushed */
10 
CALL[ ]	/* CallFunction */
IF[ ]	/* If */
POP[ ]	/* PopTopStack */
MDRP[11000]	/* MoveDirectRelPt */
ELSE[ ]	/* Else */
MIRP[10100]	/* MoveIndirectRelPt */
EIF[ ]	/* EndIf */
PUSHB[ ]	/* 1 value pushed */
0 
MDRP[10000]	/* MoveDirectRelPt */
PUSHB[ ]	/* 1 value pushed */
0 
MDAP[1]	/* MoveDirectAbsPt */
IUP[0]	/* InterpolateUntPts */
IUP[1]	/* InterpolateUntPts */";
};
width = 383;
},
{
layerId = m004;
shapes = (
{
closed = 1;
nodes = (
(6,-209,o),
(107,-61,o),
(130,74,cs),
(156,219,l),
(-25,219,l),
(-55,52,ls),
(-74,-41,o),
(-122,-131,o),
(-200,-218,c),
(-108,-290,l)
);
}
);
userData = {
assembly = "SVTCA[0]	/* SetFreedomAndProjectionVectorToAxis */
PUSHB[ ]	/* 1 value pushed */
9 
MDAP[1]	/* MoveDirectAbsPt */
PUSHB[ ]	/* 2 values pushed */
4 5 
PUSHB[ ]	/* 1 value pushed */
10 
CALL[ ]	/* CallFunction */
IF[ ]	/* If */
POP[ ]	/* PopTopStack */
MDRP[11000]	/* MoveDirectRelPt */
ELSE[ ]	/* Else */
MIRP[10100]	/* MoveIndirectRelPt */
EIF[ ]	/* EndIf */
PUSHB[ ]	/* 1 value pushed */
0 
MDRP[10000]	/* MoveDirectRelPt */
PUSHB[ ]	/* 1 value pushed */
0 
MDAP[1]	/* MoveDirectAbsPt */
IUP[0]	/* InterpolateUntPts */
IUP[1]	/* InterpolateUntPts */";
};
width = 402;
},
{
layerId = m005;
shapes = (
{
closed = 1;
nodes = (
(-26,-182,o),
(25,-93,o),
(47,13,cs),
(72,159,l),
(18,159,l),
(-12,-8,l),
(-30,-82,o),
(-72,-154,o),
(-138,-223,c),
(-107,-255,l)
);
}
);
userData = {
assembly = "SVTCA[0]	/* SetFreedomAndProjectionVectorToAxis */
PUSHB[ ]	/* 1 value pushed */
9 
MDAP[1]	/* MoveDirectAbsPt */
PUSHB[ ]	/* 2 values pushed */
4 5 
PUSHB[ ]	/* 1 value pushed */
10 
CALL[ ]	/* CallFunction */
IF[ ]	/* If */
POP[ ]	/* PopTopStack */
MDRP[11000]	/* MoveDirectRelPt */
ELSE[ ]	/* Else */
MIRP[10100]	/* MoveIndirectRelPt */
EIF[ ]	/* EndIf */
PUSHB[ ]	/* 1 value pushed */
0 
MDRP[10000]	/* MoveDirectRelPt */
PUSHB[ ]	/* 1 value pushed */
0 
MDAP[1]	/* MoveDirectAbsPt */
IUP[0]	/* InterpolateUntPts */
IUP[1]	/* InterpolateUntPts */";
};
width = 383;
}
);
note = uni002C;
unicode = 44;
},
{
glyphname = hyphen;
kernLeft = hyphen;
lastChange = "2020-12-06 18:37:18 +0000";
layers = (
{
layerId = "A9B054E9-1A63-4AEF-9EE1-561B1DFE8422";
shapes = (
{
closed = 1;
nodes = (
(673,507,l),
(673,740,l),
(110,740,l),
(110,507,l)
);
}
);
userData = {
assembly = "SVTCA[0]	/* SetFreedomAndProjectionVectorToAxis */
PUSHB[ ]	/* 1 value pushed */
2 
MDAP[1]	/* MoveDirectAbsPt */
PUSHB[ ]	/* 2 values pushed */
1 1 
PUSHB[ ]	/* 1 value pushed */
10 
CALL[ ]	/* CallFunction */
IF[ ]	/* If */
POP[ ]	/* PopTopStack */
MDRP[11000]	/* MoveDirectRelPt */
ELSE[ ]	/* Else */
MIRP[10100]	/* MoveIndirectRelPt */
EIF[ ]	/* EndIf */
IUP[0]	/* InterpolateUntPts */
IUP[1]	/* InterpolateUntPts */";
};
width = 794;
},
{
layerId = m002;
shapes = (
{
closed = 1;
nodes = (
(525,543,l),
(525,694,l),
(37,694,l),
(37,543,l)
);
}
);
userData = {
assembly = "SVTCA[0]	/* SetFreedomAndProjectionVectorToAxis */
PUSHB[ ]	/* 1 value pushed */
2 
MDAP[1]	/* MoveDirectAbsPt */
PUSHB[ ]	/* 2 values pushed */
1 1 
PUSHB[ ]	/* 1 value pushed */
10 
CALL[ ]	/* CallFunction */
IF[ ]	/* If */
POP[ ]	/* PopTopStack */
MDRP[11000]	/* MoveDirectRelPt */
ELSE[ ]	/* Else */
MIRP[10100]	/* MoveIndirectRelPt */
EIF[ ]	/* EndIf */
IUP[0]	/* InterpolateUntPts */
IUP[1]	/* InterpolateUntPts */";
};
width = 565;
},
{
layerId = m003;
shapes = (
{
closed = 1;
nodes = (
(531,639,l),
(531,693,l),
(61,693,l),
(61,639,l)
);
}
);
userData = {
assembly = "SVTCA[0]	/* SetFreedomAndProjectionVectorToAxis */
PUSHB[ ]	/* 1 value pushed */
2 
MDAP[1]	/* MoveDirectAbsPt */
PUSHB[ ]	/* 2 values pushed */
1 1 
PUSHB[ ]	/* 1 value pushed */
10 
CALL[ ]	/* CallFunction */
IF[ ]	/* If */
POP[ ]	/* PopTopStack */
MDRP[11000]	/* MoveDirectRelPt */
ELSE[ ]	/* Else */
MIRP[10100]	/* MoveIndirectRelPt */
EIF[ ]	/* EndIf */
IUP[0]	/* InterpolateUntPts */
IUP[1]	/* InterpolateUntPts */";
};
width = 607;
},
{
layerId = m004;
shapes = (
{
closed = 1;
nodes = (
(430,543,l),
(457,694,l),
(-31,694,l),
(-58,543,l)
);
}
);
userData = {
assembly = "SVTCA[0]	/* SetFreedomAndProjectionVectorToAxis */
PUSHB[ ]	/* 1 value pushed */
2 
MDAP[1]	/* MoveDirectAbsPt */
PUSHB[ ]	/* 2 values pushed */
1 1 
PUSHB[ ]	/* 1 value pushed */
10 
CALL[ ]	/* CallFunction */
IF[ ]	/* If */
POP[ ]	/* PopTopStack */
MDRP[11000]	/* MoveDirectRelPt */
ELSE[ ]	/* Else */
MIRP[10100]	/* MoveIndirectRelPt */
EIF[ ]	/* EndIf */
IUP[0]	/* InterpolateUntPts */
IUP[1]	/* InterpolateUntPts */";
};
width = 565;
},
{
layerId = m005;
shapes = (
{
closed = 1;
nodes = (
(453,639,l),
(462,693,l),
(-8,693,l),
(-17,639,l)
);
}
);
userData = {
assembly = "SVTCA[0]	/* SetFreedomAndProjectionVectorToAxis */
PUSHB[ ]	/* 1 value pushed */
2 
MDAP[1]	/* MoveDirectAbsPt */
PUSHB[ ]	/* 2 values pushed */
1 1 
PUSHB[ ]	/* 1 value pushed */
10 
CALL[ ]	/* CallFunction */
IF[ ]	/* If */
POP[ ]	/* PopTopStack */
MDRP[11000]	/* MoveDirectRelPt */
ELSE[ ]	/* Else */
MIRP[10100]	/* MoveIndirectRelPt */
EIF[ ]	/* EndIf */
IUP[0]	/* InterpolateUntPts */
IUP[1]	/* InterpolateUntPts */";
};
width = 607;
}
);
note = uni002D;
unicode = 45;
},
{
glyphname = period;
kernLeft = comma;
kernRight = comma;
lastChange = "2020-12-06 18:37:18 +0000";
layers = (
{
layerId = "A9B054E9-1A63-4AEF-9EE1-561B1DFE8422";
shapes = (
{
closed = 1;
nodes = (
(385,-11,o),
(453,51.333,o),
(453,142,cs),
(453,234,o),
(383.667,297,o),
(289,297,cs),
(195.667,297,o),
(126,234,o),
(126,142,cs),
(126,51.333,o),
(194.333,-11,o),
(289,-11,cs)
);
}
);
userData = {
assembly = "SVTCA[0]	/* SetFreedomAndProjectionVectorToAxis */
PUSHB[ ]	/* 1 value pushed */
0 
RCVT[ ]	/* ReadCVT */
IF[ ]	/* If */
PUSHB[ ]	/* 1 value pushed */
7 
MDAP[1]	/* MoveDirectAbsPt */
ELSE[ ]	/* Else */
PUSHB[ ]	/* 2 values pushed */
7 18 
MIAP[0]	/* MoveIndirectAbsPt */
EIF[ ]	/* EndIf */
PUSHB[ ]	/* 2 values pushed */
2 5 
PUSHB[ ]	/* 1 value pushed */
10 
CALL[ ]	/* CallFunction */
IF[ ]	/* If */
POP[ ]	/* PopTopStack */
MDRP[11000]	/* MoveDirectRelPt */
ELSE[ ]	/* Else */
MIRP[10100]	/* MoveIndirectRelPt */
EIF[ ]	/* EndIf */
IUP[0]	/* InterpolateUntPts */
IUP[1]	/* InterpolateUntPts */";
};
width = 595;
},
{
layerId = m002;
shapes = (
{
closed = 1;
nodes = (
(334,-11,o),
(374,35.667,o),
(374,97,cs),
(374,161,o),
(334,209,o),
(258,209,cs),
(182,209,o),
(144,161,o),
(144,97,cs),
(144,35.667,o),
(182,-11,o),
(258,-11,cs)
);
}
);
userData = {
assembly = "SVTCA[0]	/* SetFreedomAndProjectionVectorToAxis */
PUSHB[ ]	/* 1 value pushed */
0 
RCVT[ ]	/* ReadCVT */
IF[ ]	/* If */
PUSHB[ ]	/* 1 value pushed */
7 
MDAP[1]	/* MoveDirectAbsPt */
ELSE[ ]	/* Else */
PUSHB[ ]	/* 2 values pushed */
7 18 
MIAP[0]	/* MoveIndirectAbsPt */
EIF[ ]	/* EndIf */
PUSHB[ ]	/* 2 values pushed */
2 5 
PUSHB[ ]	/* 1 value pushed */
10 
CALL[ ]	/* CallFunction */
IF[ ]	/* If */
POP[ ]	/* PopTopStack */
MDRP[11000]	/* MoveDirectRelPt */
ELSE[ ]	/* Else */
MIRP[10100]	/* MoveIndirectRelPt */
EIF[ ]	/* EndIf */
IUP[0]	/* InterpolateUntPts */
IUP[1]	/* InterpolateUntPts */";
};
width = 539;
},
{
layerId = m003;
shapes = (
{
closed = 1;
nodes = (
(232.667,-6,o),
(258,18.333,o),
(258,49,cs),
(258,79.667,o),
(232.667,105,o),
(202,105,cs),
(171.333,105,o),
(147,79.667,o),
(147,49,cs),
(147,18.333,o),
(171.333,-6,o),
(202,-6,cs)
);
}
);
userData = {
assembly = "SVTCA[0]	/* SetFreedomAndProjectionVectorToAxis */
PUSHB[ ]	/* 1 value pushed */
0 
RCVT[ ]	/* ReadCVT */
IF[ ]	/* If */
PUSHB[ ]	/* 1 value pushed */
7 
MDAP[1]	/* MoveDirectAbsPt */
ELSE[ ]	/* Else */
PUSHB[ ]	/* 2 values pushed */
7 18 
MIAP[0]	/* MoveIndirectAbsPt */
EIF[ ]	/* EndIf */
PUSHB[ ]	/* 2 values pushed */
2 5 
PUSHB[ ]	/* 1 value pushed */
10 
CALL[ ]	/* CallFunction */
IF[ ]	/* If */
POP[ ]	/* PopTopStack */
MDRP[11000]	/* MoveDirectRelPt */
ELSE[ ]	/* Else */
MIRP[10100]	/* MoveIndirectRelPt */
EIF[ ]	/* EndIf */
IUP[0]	/* InterpolateUntPts */
IUP[1]	/* InterpolateUntPts */";
};
width = 439;
},
{
layerId = m004;
shapes = (
{
closed = 1;
nodes = (
(141,-11,o),
(190,36,o),
(200,97,cs),
(212,161,o),
(180,209,o),
(104,209,cs),
(28,209,o),
(-18,161,o),
(-30,97,cs),
(-40,36,o),
(-11,-11,o),
(65,-11,cs)
);
}
);
userData = {
assembly = "SVTCA[0]	/* SetFreedomAndProjectionVectorToAxis */
PUSHB[ ]	/* 1 value pushed */
0 
RCVT[ ]	/* ReadCVT */
IF[ ]	/* If */
PUSHB[ ]	/* 1 value pushed */
7 
MDAP[1]	/* MoveDirectAbsPt */
ELSE[ ]	/* Else */
PUSHB[ ]	/* 2 values pushed */
7 18 
MIAP[0]	/* MoveIndirectAbsPt */
EIF[ ]	/* EndIf */
PUSHB[ ]	/* 2 values pushed */
2 5 
PUSHB[ ]	/* 1 value pushed */
10 
CALL[ ]	/* CallFunction */
IF[ ]	/* If */
POP[ ]	/* PopTopStack */
MDRP[11000]	/* MoveDirectRelPt */
ELSE[ ]	/* Else */
MIRP[10100]	/* MoveIndirectRelPt */
EIF[ ]	/* EndIf */
IUP[0]	/* InterpolateUntPts */
IUP[1]	/* InterpolateUntPts */";
};
width = 539;
},
{
layerId = m005;
shapes = (
{
closed = 1;
nodes = (
(41,-6,o),
(70,18,o),
(76,49,cs),
(81,80,o),
(60,105,o),
(30,105,cs),
(-1,105,o),
(-30,80,o),
(-35,49,cs),
(-41,18,o),
(-21,-6,o),
(10,-6,cs)
);
}
);
userData = {
assembly = "SVTCA[0]	/* SetFreedomAndProjectionVectorToAxis */
PUSHB[ ]	/* 1 value pushed */
0 
RCVT[ ]	/* ReadCVT */
IF[ ]	/* If */
PUSHB[ ]	/* 1 value pushed */
7 
MDAP[1]	/* MoveDirectAbsPt */
ELSE[ ]	/* Else */
PUSHB[ ]	/* 2 values pushed */
7 18 
MIAP[0]	/* MoveIndirectAbsPt */
EIF[ ]	/* EndIf */
PUSHB[ ]	/* 2 values pushed */
2 5 
PUSHB[ ]	/* 1 value pushed */
10 
CALL[ ]	/* CallFunction */
IF[ ]	/* If */
POP[ ]	/* PopTopStack */
MDRP[11000]	/* MoveDirectRelPt */
ELSE[ ]	/* Else */
MIRP[10100]	/* MoveIndirectRelPt */
EIF[ ]	/* EndIf */
IUP[0]	/* InterpolateUntPts */
IUP[1]	/* InterpolateUntPts */";
};
width = 439;
}
);
note = uni002E;
unicode = 46;
},
{
glyphname = slash;
lastChange = "2020-12-06 18:37:18 +0000";
layers = (
{
layerId = "A9B054E9-1A63-4AEF-9EE1-561B1DFE8422";
shapes = (
{
closed = 1;
nodes = (
(202,-125,l),
(738,1456,l),
(523,1456,l),
(-13,-125,l)
);
}
);
userData = {
assembly = "SVTCA[0]	/* SetFreedomAndProjectionVectorToAxis */
PUSHB[ ]	/* 1 value pushed */
0 
MDAP[1]	/* MoveDirectAbsPt */
PUSHB[ ]	/* 1 value pushed */
0 
RCVT[ ]	/* ReadCVT */
IF[ ]	/* If */
PUSHB[ ]	/* 1 value pushed */
2 
MDAP[1]	/* MoveDirectAbsPt */
ELSE[ ]	/* Else */
PUSHB[ ]	/* 2 values pushed */
2 30 
MIAP[0]	/* MoveIndirectAbsPt */
EIF[ ]	/* EndIf */
IUP[0]	/* InterpolateUntPts */
IUP[1]	/* InterpolateUntPts */";
};
width = 765;
},
{
layerId = m002;
shapes = (
{
closed = 1;
nodes = (
(177,-125,l),
(784,1456,l),
(626,1456,l),
(18,-125,l)
);
}
);
userData = {
assembly = "SVTCA[0]	/* SetFreedomAndProjectionVectorToAxis */
PUSHB[ ]	/* 1 value pushed */
0 
MDAP[1]	/* MoveDirectAbsPt */
PUSHB[ ]	/* 1 value pushed */
0 
RCVT[ ]	/* ReadCVT */
IF[ ]	/* If */
PUSHB[ ]	/* 1 value pushed */
2 
MDAP[1]	/* MoveDirectAbsPt */
ELSE[ ]	/* Else */
PUSHB[ ]	/* 2 values pushed */
2 30 
MIAP[0]	/* MoveIndirectAbsPt */
EIF[ ]	/* EndIf */
IUP[0]	/* InterpolateUntPts */
IUP[1]	/* InterpolateUntPts */";
};
width = 844;
},
{
layerId = m003;
shapes = (
{
closed = 1;
nodes = (
(101,-125,l),
(709,1456,l),
(650,1456,l),
(42,-125,l)
);
}
);
userData = {
assembly = "SVTCA[0]	/* SetFreedomAndProjectionVectorToAxis */
PUSHB[ ]	/* 1 value pushed */
0 
MDAP[1]	/* MoveDirectAbsPt */
PUSHB[ ]	/* 1 value pushed */
0 
RCVT[ ]	/* ReadCVT */
IF[ ]	/* If */
PUSHB[ ]	/* 1 value pushed */
2 
MDAP[1]	/* MoveDirectAbsPt */
ELSE[ ]	/* Else */
PUSHB[ ]	/* 2 values pushed */
2 30 
MIAP[0]	/* MoveIndirectAbsPt */
EIF[ ]	/* EndIf */
IUP[0]	/* InterpolateUntPts */
IUP[1]	/* InterpolateUntPts */";
};
width = 782;
},
{
layerId = m004;
shapes = (
{
closed = 1;
nodes = (
(-36,-125,l),
(850,1456,l),
(692,1456,l),
(-195,-125,l)
);
}
);
userData = {
assembly = "SVTCA[0]	/* SetFreedomAndProjectionVectorToAxis */
PUSHB[ ]	/* 1 value pushed */
0 
MDAP[1]	/* MoveDirectAbsPt */
PUSHB[ ]	/* 1 value pushed */
0 
RCVT[ ]	/* ReadCVT */
IF[ ]	/* If */
PUSHB[ ]	/* 1 value pushed */
2 
MDAP[1]	/* MoveDirectAbsPt */
ELSE[ ]	/* Else */
PUSHB[ ]	/* 2 values pushed */
2 30 
MIAP[0]	/* MoveIndirectAbsPt */
EIF[ ]	/* EndIf */
IUP[0]	/* InterpolateUntPts */
IUP[1]	/* InterpolateUntPts */";
};
width = 844;
},
{
layerId = m005;
shapes = (
{
closed = 1;
nodes = (
(-112,-125,l),
(775,1456,l),
(716,1456,l),
(-171,-125,l)
);
}
);
userData = {
assembly = "SVTCA[0]	/* SetFreedomAndProjectionVectorToAxis */
PUSHB[ ]	/* 1 value pushed */
0 
MDAP[1]	/* MoveDirectAbsPt */
PUSHB[ ]	/* 1 value pushed */
0 
RCVT[ ]	/* ReadCVT */
IF[ ]	/* If */
PUSHB[ ]	/* 1 value pushed */
2 
MDAP[1]	/* MoveDirectAbsPt */
ELSE[ ]	/* Else */
PUSHB[ ]	/* 2 values pushed */
2 30 
MIAP[0]	/* MoveIndirectAbsPt */
EIF[ ]	/* EndIf */
IUP[0]	/* InterpolateUntPts */
IUP[1]	/* InterpolateUntPts */";
};
width = 782;
}
);
note = uni002F;
unicode = 47;
},
{
glyphname = zero;
lastChange = "2020-12-06 18:37:19 +0000";
layers = (
{
layerId = "A9B054E9-1A63-4AEF-9EE1-561B1DFE8422";
shapes = (
{
closed = 1;
nodes = (
(909.333,-20,o),
(1079,199.333,o),
(1079,602,cs),
(1079,870,ls),
(1075,1260.667,o),
(903.333,1476,o),
(586,1476,cs),
(268.667,1476,o),
(95,1261.667,o),
(95,855,cs),
(95,587,ls),
(99,196.333,o),
(270.667,-20,o),
(588,-20,cs)
);
},
{
closed = 1;
nodes = (
(445.333,213,o),
(384,326.667,o),
(384,564,cs),
(384,918,ls),
(388,1140.667,o),
(450,1242,o),
(586,1242,cs),
(726,1242,o),
(790,1137.333,o),
(790,896,cs),
(790,550,ls),
(787.333,322,o),
(729.333,213,o),
(588,213,cs)
);
}
);
userData = {
assembly = "SVTCA[0]	/* SetFreedomAndProjectionVectorToAxis */
PUSHB[ ]	/* 1 value pushed */
0 
RCVT[ ]	/* ReadCVT */
IF[ ]	/* If */
PUSHB[ ]	/* 1 value pushed */
10 
MDAP[1]	/* MoveDirectAbsPt */
ELSE[ ]	/* Else */
PUSHB[ ]	/* 2 values pushed */
10 30 
MIAP[0]	/* MoveIndirectAbsPt */
EIF[ ]	/* EndIf */
PUSHB[ ]	/* 1 value pushed */
0 
RCVT[ ]	/* ReadCVT */
IF[ ]	/* If */
PUSHB[ ]	/* 1 value pushed */
3 
MDAP[1]	/* MoveDirectAbsPt */
ELSE[ ]	/* Else */
PUSHB[ ]	/* 2 values pushed */
3 18 
MIAP[0]	/* MoveIndirectAbsPt */
EIF[ ]	/* EndIf */
PUSHB[ ]	/* 1 value pushed */
10 
SRP0[ ]	/* SetRefPoint0 */
PUSHB[ ]	/* 2 values pushed */
17 1 
PUSHB[ ]	/* 1 value pushed */
10 
CALL[ ]	/* CallFunction */
IF[ ]	/* If */
POP[ ]	/* PopTopStack */
MDRP[11000]	/* MoveDirectRelPt */
ELSE[ ]	/* Else */
MIRP[10100]	/* MoveIndirectRelPt */
EIF[ ]	/* EndIf */
PUSHB[ ]	/* 1 value pushed */
3 
SRP0[ ]	/* SetRefPoint0 */
PUSHB[ ]	/* 2 values pushed */
24 1 
PUSHB[ ]	/* 1 value pushed */
10 
CALL[ ]	/* CallFunction */
IF[ ]	/* If */
POP[ ]	/* PopTopStack */
MDRP[11000]	/* MoveDirectRelPt */
ELSE[ ]	/* Else */
MIRP[10100]	/* MoveIndirectRelPt */
EIF[ ]	/* EndIf */
IUP[0]	/* InterpolateUntPts */
IUP[1]	/* InterpolateUntPts */";
};
width = 1175;
},
{
layerId = m002;
shapes = (
{
closed = 1;
nodes = (
(890.667,-20,o),
(1034,187.667,o),
(1034,621,cs),
(1034,861,ls),
(1030,1279.667,o),
(887.333,1476,o),
(574,1476,cs),
(258,1476,o),
(115,1271,o),
(115,843,cs),
(115,596,ls),
(120.333,186.667,o),
(265.333,-20,o),
(576,-20,cs)
);
},
{
closed = 1;
nodes = (
(390.667,131,o),
(300,277.333,o),
(300,592,cs),
(300,888,ls),
(302.667,1184,o),
(384.667,1324,o),
(574,1324,cs),
(764.667,1324,o),
(849,1187.333,o),
(849,874,cs),
(849,571,ls),
(845,267,o),
(758.667,131,o),
(576,131,cs)
);
}
);
userData = {
assembly = "SVTCA[0]	/* SetFreedomAndProjectionVectorToAxis */
PUSHB[ ]	/* 1 value pushed */
0 
RCVT[ ]	/* ReadCVT */
IF[ ]	/* If */
PUSHB[ ]	/* 1 value pushed */
10 
MDAP[1]	/* MoveDirectAbsPt */
ELSE[ ]	/* Else */
PUSHB[ ]	/* 2 values pushed */
10 30 
MIAP[0]	/* MoveIndirectAbsPt */
EIF[ ]	/* EndIf */
PUSHB[ ]	/* 1 value pushed */
0 
RCVT[ ]	/* ReadCVT */
IF[ ]	/* If */
PUSHB[ ]	/* 1 value pushed */
3 
MDAP[1]	/* MoveDirectAbsPt */
ELSE[ ]	/* Else */
PUSHB[ ]	/* 2 values pushed */
3 18 
MIAP[0]	/* MoveIndirectAbsPt */
EIF[ ]	/* EndIf */
PUSHB[ ]	/* 1 value pushed */
10 
SRP0[ ]	/* SetRefPoint0 */
PUSHB[ ]	/* 2 values pushed */
17 1 
PUSHB[ ]	/* 1 value pushed */
10 
CALL[ ]	/* CallFunction */
IF[ ]	/* If */
POP[ ]	/* PopTopStack */
MDRP[11000]	/* MoveDirectRelPt */
ELSE[ ]	/* Else */
MIRP[10100]	/* MoveIndirectRelPt */
EIF[ ]	/* EndIf */
PUSHB[ ]	/* 1 value pushed */
3 
SRP0[ ]	/* SetRefPoint0 */
PUSHB[ ]	/* 2 values pushed */
24 1 
PUSHB[ ]	/* 1 value pushed */
10 
CALL[ ]	/* CallFunction */
IF[ ]	/* If */
POP[ ]	/* PopTopStack */
MDRP[11000]	/* MoveDirectRelPt */
ELSE[ ]	/* Else */
MIRP[10100]	/* MoveIndirectRelPt */
EIF[ ]	/* EndIf */
IUP[0]	/* InterpolateUntPts */
IUP[1]	/* InterpolateUntPts */";
};
width = 1150;
},
{
layerId = m003;
shapes = (
{
closed = 1;
nodes = (
(836.667,-20,o),
(996,203.333,o),
(996,594,cs),
(996,858,ls),
(996,1250,o),
(836,1477,o),
(560,1477,cs),
(285.333,1477,o),
(125,1248.667,o),
(125,862,cs),
(125,598,ls),
(125,206,o),
(288.667,-20,o),
(562,-20,cs)
);
},
{
closed = 1;
nodes = (
(320.667,34,o),
(179,244,o),
(179,596,cs),
(179,857,ls),
(179,1215.667,o),
(314.667,1423,o),
(560,1423,cs),
(804,1423,o),
(942,1215.333,o),
(942,862,cs),
(942,601,ls),
(942,242.333,o),
(804.667,34,o),
(562,34,cs)
);
}
);
userData = {
assembly = "SVTCA[0]	/* SetFreedomAndProjectionVectorToAxis */
PUSHB[ ]	/* 1 value pushed */
0 
RCVT[ ]	/* ReadCVT */
IF[ ]	/* If */
PUSHB[ ]	/* 1 value pushed */
10 
MDAP[1]	/* MoveDirectAbsPt */
ELSE[ ]	/* Else */
PUSHB[ ]	/* 2 values pushed */
10 30 
MIAP[0]	/* MoveIndirectAbsPt */
EIF[ ]	/* EndIf */
PUSHB[ ]	/* 1 value pushed */
0 
RCVT[ ]	/* ReadCVT */
IF[ ]	/* If */
PUSHB[ ]	/* 1 value pushed */
3 
MDAP[1]	/* MoveDirectAbsPt */
ELSE[ ]	/* Else */
PUSHB[ ]	/* 2 values pushed */
3 18 
MIAP[0]	/* MoveIndirectAbsPt */
EIF[ ]	/* EndIf */
PUSHB[ ]	/* 1 value pushed */
10 
SRP0[ ]	/* SetRefPoint0 */
PUSHB[ ]	/* 2 values pushed */
17 1 
PUSHB[ ]	/* 1 value pushed */
10 
CALL[ ]	/* CallFunction */
IF[ ]	/* If */
POP[ ]	/* PopTopStack */
MDRP[11000]	/* MoveDirectRelPt */
ELSE[ ]	/* Else */
MIRP[10100]	/* MoveIndirectRelPt */
EIF[ ]	/* EndIf */
PUSHB[ ]	/* 1 value pushed */
3 
SRP0[ ]	/* SetRefPoint0 */
PUSHB[ ]	/* 2 values pushed */
24 1 
PUSHB[ ]	/* 1 value pushed */
10 
CALL[ ]	/* CallFunction */
IF[ ]	/* If */
POP[ ]	/* PopTopStack */
MDRP[11000]	/* MoveDirectRelPt */
ELSE[ ]	/* Else */
MIRP[10100]	/* MoveIndirectRelPt */
EIF[ ]	/* EndIf */
IUP[0]	/* InterpolateUntPts */
IUP[1]	/* InterpolateUntPts */";
};
width = 1121;
},
{
layerId = m004;
shapes = (
{
closed = 1;
nodes = (
(696,-20,o),
(876,188,o),
(953,621,cs),
(995,861,ls),
(1065,1280,o),
(957,1476,o),
(643,1476,cs),
(327,1476,o),
(148,1271,o),
(73,843,cs),
(29,596,ls),
(-38,187,o),
(71,-20,o),
(382,-20,cs)
);
},
{
closed = 1;
nodes = (
(223,131,o),
(158,277,o),
(214,592,cs),
(266,888,ls),
(321,1184,o),
(427,1324,o),
(617,1324,cs),
(807,1324,o),
(868,1187,o),
(812,874,cs),
(759,571,ls),
(701,267,o),
(591,131,o),
(408,131,cs)
);
}
);
userData = {
assembly = "SVTCA[0]	/* SetFreedomAndProjectionVectorToAxis */
PUSHB[ ]	/* 1 value pushed */
0 
RCVT[ ]	/* ReadCVT */
IF[ ]	/* If */
PUSHB[ ]	/* 1 value pushed */
10 
MDAP[1]	/* MoveDirectAbsPt */
ELSE[ ]	/* Else */
PUSHB[ ]	/* 2 values pushed */
10 30 
MIAP[0]	/* MoveIndirectAbsPt */
EIF[ ]	/* EndIf */
PUSHB[ ]	/* 1 value pushed */
0 
RCVT[ ]	/* ReadCVT */
IF[ ]	/* If */
PUSHB[ ]	/* 1 value pushed */
3 
MDAP[1]	/* MoveDirectAbsPt */
ELSE[ ]	/* Else */
PUSHB[ ]	/* 2 values pushed */
3 18 
MIAP[0]	/* MoveIndirectAbsPt */
EIF[ ]	/* EndIf */
PUSHB[ ]	/* 1 value pushed */
10 
SRP0[ ]	/* SetRefPoint0 */
PUSHB[ ]	/* 2 values pushed */
17 1 
PUSHB[ ]	/* 1 value pushed */
10 
CALL[ ]	/* CallFunction */
IF[ ]	/* If */
POP[ ]	/* PopTopStack */
MDRP[11000]	/* MoveDirectRelPt */
ELSE[ ]	/* Else */
MIRP[10100]	/* MoveIndirectRelPt */
EIF[ ]	/* EndIf */
PUSHB[ ]	/* 1 value pushed */
3 
SRP0[ ]	/* SetRefPoint0 */
PUSHB[ ]	/* 2 values pushed */
24 1 
PUSHB[ ]	/* 1 value pushed */
10 
CALL[ ]	/* CallFunction */
IF[ ]	/* If */
POP[ ]	/* PopTopStack */
MDRP[11000]	/* MoveDirectRelPt */
ELSE[ ]	/* Else */
MIRP[10100]	/* MoveIndirectRelPt */
EIF[ ]	/* EndIf */
IUP[0]	/* InterpolateUntPts */
IUP[1]	/* InterpolateUntPts */";
};
width = 1150;
},
{
layerId = m005;
shapes = (
{
closed = 1;
nodes = (
(642,-20,o),
(841,203,o),
(910,594,cs),
(957,858,ls),
(1026,1250,o),
(906,1477,o),
(630,1477,cs),
(355,1477,o),
(154,1249,o),
(86,862,cs),
(40,598,ls),
(-29,206,o),
(94,-20,o),
(368,-20,cs)
);
},
{
closed = 1;
nodes = (
(136,34,o),
(31,244,o),
(93,596,cs),
(139,857,ls),
(203,1216,o),
(375,1423,o),
(620,1423,cs),
(864,1423,o),
(966,1215,o),
(903,862,cs),
(857,601,ls),
(794,242,o),
(620,34,o),
(377,34,cs)
);
}
);
userData = {
assembly = "SVTCA[0]	/* SetFreedomAndProjectionVectorToAxis */
PUSHB[ ]	/* 1 value pushed */
0 
RCVT[ ]	/* ReadCVT */
IF[ ]	/* If */
PUSHB[ ]	/* 1 value pushed */
10 
MDAP[1]	/* MoveDirectAbsPt */
ELSE[ ]	/* Else */
PUSHB[ ]	/* 2 values pushed */
10 30 
MIAP[0]	/* MoveIndirectAbsPt */
EIF[ ]	/* EndIf */
PUSHB[ ]	/* 1 value pushed */
0 
RCVT[ ]	/* ReadCVT */
IF[ ]	/* If */
PUSHB[ ]	/* 1 value pushed */
3 
MDAP[1]	/* MoveDirectAbsPt */
ELSE[ ]	/* Else */
PUSHB[ ]	/* 2 values pushed */
3 18 
MIAP[0]	/* MoveIndirectAbsPt */
EIF[ ]	/* EndIf */
PUSHB[ ]	/* 1 value pushed */
10 
SRP0[ ]	/* SetRefPoint0 */
PUSHB[ ]	/* 2 values pushed */
17 1 
PUSHB[ ]	/* 1 value pushed */
10 
CALL[ ]	/* CallFunction */
IF[ ]	/* If */
POP[ ]	/* PopTopStack */
MDRP[11000]	/* MoveDirectRelPt */
ELSE[ ]	/* Else */
MIRP[10100]	/* MoveIndirectRelPt */
EIF[ ]	/* EndIf */
PUSHB[ ]	/* 1 value pushed */
3 
SRP0[ ]	/* SetRefPoint0 */
PUSHB[ ]	/* 2 values pushed */
24 1 
PUSHB[ ]	/* 1 value pushed */
10 
CALL[ ]	/* CallFunction */
IF[ ]	/* If */
POP[ ]	/* PopTopStack */
MDRP[11000]	/* MoveDirectRelPt */
ELSE[ ]	/* Else */
MIRP[10100]	/* MoveIndirectRelPt */
EIF[ ]	/* EndIf */
IUP[0]	/* InterpolateUntPts */
IUP[1]	/* InterpolateUntPts */";
};
width = 1121;
}
);
note = uni0030;
unicode = 48;
},
{
glyphname = one;
lastChange = "2020-12-06 18:37:18 +0000";
layers = (
{
layerId = "A9B054E9-1A63-4AEF-9EE1-561B1DFE8422";
shapes = (
{
closed = 1;
nodes = (
(801,0,l),
(801,1458,l),
(770,1458,l),
(167,1242,l),
(167,1007,l),
(512,1114,l),
(512,0,l)
);
}
);
userData = {
assembly = "SVTCA[0]	/* SetFreedomAndProjectionVectorToAxis */
PUSHB[ ]	/* 1 value pushed */
0 
RCVT[ ]	/* ReadCVT */
IF[ ]	/* If */
PUSHB[ ]	/* 1 value pushed */
5 
MDAP[1]	/* MoveDirectAbsPt */
ELSE[ ]	/* Else */
PUSHB[ ]	/* 2 values pushed */
5 30 
MIAP[0]	/* MoveIndirectAbsPt */
EIF[ ]	/* EndIf */
PUSHB[ ]	/* 1 value pushed */
0 
RCVT[ ]	/* ReadCVT */
IF[ ]	/* If */
PUSHB[ ]	/* 1 value pushed */
0 
MDAP[1]	/* MoveDirectAbsPt */
ELSE[ ]	/* Else */
PUSHB[ ]	/* 2 values pushed */
0 18 
MIAP[0]	/* MoveIndirectAbsPt */
EIF[ ]	/* EndIf */
PUSHB[ ]	/* 3 values pushed */
4 0 5 
SRP1[ ]	/* SetRefPoint1 */
SRP2[ ]	/* SetRefPoint2 */
IP[ ]	/* InterpolatePts */
PUSHB[ ]	/* 1 value pushed */
4 
MDAP[1]	/* MoveDirectAbsPt */
PUSHB[ ]	/* 2 values pushed */
3 1 
PUSHB[ ]	/* 1 value pushed */
10 
CALL[ ]	/* CallFunction */
IF[ ]	/* If */
POP[ ]	/* PopTopStack */
MDRP[11000]	/* MoveDirectRelPt */
ELSE[ ]	/* Else */
MIRP[10100]	/* MoveIndirectRelPt */
EIF[ ]	/* EndIf */
PUSHB[ ]	/* 3 values pushed */
2 3 5 
SRP1[ ]	/* SetRefPoint1 */
SRP2[ ]	/* SetRefPoint2 */
IP[ ]	/* InterpolatePts */
IUP[0]	/* InterpolateUntPts */
IUP[1]	/* InterpolateUntPts */";
};
width = 1175;
},
{
layerId = m002;
shapes = (
{
closed = 1;
nodes = (
(729,0,l),
(729,1463,l),
(700,1463,l),
(170,1264,l),
(170,1096,l),
(543,1233,l),
(543,0,l)
);
}
);
userData = {
assembly = "SVTCA[0]	/* SetFreedomAndProjectionVectorToAxis */
PUSHB[ ]	/* 1 value pushed */
0 
RCVT[ ]	/* ReadCVT */
IF[ ]	/* If */
PUSHB[ ]	/* 1 value pushed */
5 
MDAP[1]	/* MoveDirectAbsPt */
ELSE[ ]	/* Else */
PUSHB[ ]	/* 2 values pushed */
5 30 
MIAP[0]	/* MoveIndirectAbsPt */
EIF[ ]	/* EndIf */
PUSHB[ ]	/* 1 value pushed */
0 
RCVT[ ]	/* ReadCVT */
IF[ ]	/* If */
PUSHB[ ]	/* 1 value pushed */
0 
MDAP[1]	/* MoveDirectAbsPt */
ELSE[ ]	/* Else */
PUSHB[ ]	/* 2 values pushed */
0 18 
MIAP[0]	/* MoveIndirectAbsPt */
EIF[ ]	/* EndIf */
PUSHB[ ]	/* 3 values pushed */
4 0 5 
SRP1[ ]	/* SetRefPoint1 */
SRP2[ ]	/* SetRefPoint2 */
IP[ ]	/* InterpolatePts */
PUSHB[ ]	/* 1 value pushed */
4 
MDAP[1]	/* MoveDirectAbsPt */
PUSHB[ ]	/* 2 values pushed */
3 1 
PUSHB[ ]	/* 1 value pushed */
10 
CALL[ ]	/* CallFunction */
IF[ ]	/* If */
POP[ ]	/* PopTopStack */
MDRP[11000]	/* MoveDirectRelPt */
ELSE[ ]	/* Else */
MIRP[10100]	/* MoveIndirectRelPt */
EIF[ ]	/* EndIf */
PUSHB[ ]	/* 3 values pushed */
2 3 5 
SRP1[ ]	/* SetRefPoint1 */
SRP2[ ]	/* SetRefPoint2 */
IP[ ]	/* InterpolatePts */
IUP[0]	/* InterpolateUntPts */
IUP[1]	/* InterpolateUntPts */";
};
width = 1150;
},
{
layerId = m003;
shapes = (
{
closed = 1;
nodes = (
(659,0,l),
(659,1460,l),
(648,1460,l),
(187,1290,l),
(187,1231,l),
(605,1388,l),
(605,0,l)
);
}
);
userData = {
assembly = "SVTCA[0]	/* SetFreedomAndProjectionVectorToAxis */
PUSHB[ ]	/* 1 value pushed */
0 
RCVT[ ]	/* ReadCVT */
IF[ ]	/* If */
PUSHB[ ]	/* 1 value pushed */
5 
MDAP[1]	/* MoveDirectAbsPt */
ELSE[ ]	/* Else */
PUSHB[ ]	/* 2 values pushed */
5 30 
MIAP[0]	/* MoveIndirectAbsPt */
EIF[ ]	/* EndIf */
PUSHB[ ]	/* 1 value pushed */
0 
RCVT[ ]	/* ReadCVT */
IF[ ]	/* If */
PUSHB[ ]	/* 1 value pushed */
0 
MDAP[1]	/* MoveDirectAbsPt */
ELSE[ ]	/* Else */
PUSHB[ ]	/* 2 values pushed */
0 18 
MIAP[0]	/* MoveIndirectAbsPt */
EIF[ ]	/* EndIf */
PUSHB[ ]	/* 3 values pushed */
4 0 5 
SRP1[ ]	/* SetRefPoint1 */
SRP2[ ]	/* SetRefPoint2 */
IP[ ]	/* InterpolatePts */
PUSHB[ ]	/* 1 value pushed */
4 
MDAP[1]	/* MoveDirectAbsPt */
PUSHB[ ]	/* 2 values pushed */
3 1 
PUSHB[ ]	/* 1 value pushed */
10 
CALL[ ]	/* CallFunction */
IF[ ]	/* If */
POP[ ]	/* PopTopStack */
MDRP[11000]	/* MoveDirectRelPt */
ELSE[ ]	/* Else */
MIRP[10100]	/* MoveIndirectRelPt */
EIF[ ]	/* EndIf */
PUSHB[ ]	/* 3 values pushed */
2 3 5 
SRP1[ ]	/* SetRefPoint1 */
SRP2[ ]	/* SetRefPoint2 */
IP[ ]	/* InterpolatePts */
IUP[0]	/* InterpolateUntPts */
IUP[1]	/* InterpolateUntPts */";
};
width = 1121;
},
{
layerId = m004;
shapes = (
{
closed = 1;
nodes = (
(538,0,l),
(796,1463,l),
(767,1463,l),
(202,1264,l),
(172,1096,l),
(570,1233,l),
(352,0,l)
);
}
);
userData = {
assembly = "SVTCA[0]	/* SetFreedomAndProjectionVectorToAxis */
PUSHB[ ]	/* 1 value pushed */
0 
RCVT[ ]	/* ReadCVT */
IF[ ]	/* If */
PUSHB[ ]	/* 1 value pushed */
5 
MDAP[1]	/* MoveDirectAbsPt */
ELSE[ ]	/* Else */
PUSHB[ ]	/* 2 values pushed */
5 30 
MIAP[0]	/* MoveIndirectAbsPt */
EIF[ ]	/* EndIf */
PUSHB[ ]	/* 1 value pushed */
0 
RCVT[ ]	/* ReadCVT */
IF[ ]	/* If */
PUSHB[ ]	/* 1 value pushed */
0 
MDAP[1]	/* MoveDirectAbsPt */
ELSE[ ]	/* Else */
PUSHB[ ]	/* 2 values pushed */
0 18 
MIAP[0]	/* MoveIndirectAbsPt */
EIF[ ]	/* EndIf */
PUSHB[ ]	/* 3 values pushed */
4 0 5 
SRP1[ ]	/* SetRefPoint1 */
SRP2[ ]	/* SetRefPoint2 */
IP[ ]	/* InterpolatePts */
PUSHB[ ]	/* 1 value pushed */
4 
MDAP[1]	/* MoveDirectAbsPt */
PUSHB[ ]	/* 2 values pushed */
3 1 
PUSHB[ ]	/* 1 value pushed */
10 
CALL[ ]	/* CallFunction */
IF[ ]	/* If */
POP[ ]	/* PopTopStack */
MDRP[11000]	/* MoveDirectRelPt */
ELSE[ ]	/* Else */
MIRP[10100]	/* MoveIndirectRelPt */
EIF[ ]	/* EndIf */
PUSHB[ ]	/* 3 values pushed */
2 3 5 
SRP1[ ]	/* SetRefPoint1 */
SRP2[ ]	/* SetRefPoint2 */
IP[ ]	/* InterpolatePts */
IUP[0]	/* InterpolateUntPts */
IUP[1]	/* InterpolateUntPts */";
};
width = 1150;
},
{
layerId = m005;
shapes = (
{
closed = 1;
nodes = (
(468,0,l),
(726,1460,l),
(715,1460,l),
(224,1290,l),
(213,1231,l),
(659,1388,l),
(414,0,l)
);
}
);
userData = {
assembly = "SVTCA[0]	/* SetFreedomAndProjectionVectorToAxis */
PUSHB[ ]	/* 1 value pushed */
0 
RCVT[ ]	/* ReadCVT */
IF[ ]	/* If */
PUSHB[ ]	/* 1 value pushed */
5 
MDAP[1]	/* MoveDirectAbsPt */
ELSE[ ]	/* Else */
PUSHB[ ]	/* 2 values pushed */
5 30 
MIAP[0]	/* MoveIndirectAbsPt */
EIF[ ]	/* EndIf */
PUSHB[ ]	/* 1 value pushed */
0 
RCVT[ ]	/* ReadCVT */
IF[ ]	/* If */
PUSHB[ ]	/* 1 value pushed */
0 
MDAP[1]	/* MoveDirectAbsPt */
ELSE[ ]	/* Else */
PUSHB[ ]	/* 2 values pushed */
0 18 
MIAP[0]	/* MoveIndirectAbsPt */
EIF[ ]	/* EndIf */
PUSHB[ ]	/* 3 values pushed */
4 0 5 
SRP1[ ]	/* SetRefPoint1 */
SRP2[ ]	/* SetRefPoint2 */
IP[ ]	/* InterpolatePts */
PUSHB[ ]	/* 1 value pushed */
4 
MDAP[1]	/* MoveDirectAbsPt */
PUSHB[ ]	/* 2 values pushed */
3 1 
PUSHB[ ]	/* 1 value pushed */
10 
CALL[ ]	/* CallFunction */
IF[ ]	/* If */
POP[ ]	/* PopTopStack */
MDRP[11000]	/* MoveDirectRelPt */
ELSE[ ]	/* Else */
MIRP[10100]	/* MoveIndirectRelPt */
EIF[ ]	/* EndIf */
PUSHB[ ]	/* 3 values pushed */
2 3 5 
SRP1[ ]	/* SetRefPoint1 */
SRP2[ ]	/* SetRefPoint2 */
IP[ ]	/* InterpolatePts */
IUP[0]	/* InterpolateUntPts */
IUP[1]	/* InterpolateUntPts */";
};
width = 1121;
}
);
note = uni0031;
unicode = 49;
},
{
glyphname = two;
lastChange = "2020-12-09 00:57:26 +0000";
layers = (
{
layerId = "A9B054E9-1A63-4AEF-9EE1-561B1DFE8422";
shapes = (
{
closed = 1;
nodes = (
(1097,0,l),
(1097,233,l),
(471,233,l),
(802,582,ls),
(983.333,780.667,o),
(1050,919,o),
(1050,1063,cs),
(1050,1325.667,o),
(876,1476,o),
(576,1476,cs),
(278,1476,o),
(70,1272,o),
(70,998,c),
(360,998,l),
(360,1144.667,o),
(440.333,1243,o),
(571,1243,cs),
(692.333,1243,o),
(760,1164.333,o),
(760,1035,cs),
(760,940.333,o),
(699.333,841.333,o),
(570,700,cs),
(99,198,l),
(99,0,l)
);
}
);
userData = {
assembly = "SVTCA[0]	/* SetFreedomAndProjectionVectorToAxis */
PUSHB[ ]	/* 1 value pushed */
0 
RCVT[ ]	/* ReadCVT */
IF[ ]	/* If */
PUSHB[ ]	/* 1 value pushed */
16 
MDAP[1]	/* MoveDirectAbsPt */
ELSE[ ]	/* Else */
PUSHB[ ]	/* 2 values pushed */
16 30 
MIAP[0]	/* MoveIndirectAbsPt */
EIF[ ]	/* EndIf */
PUSHB[ ]	/* 1 value pushed */
0 
RCVT[ ]	/* ReadCVT */
IF[ ]	/* If */
PUSHB[ ]	/* 1 value pushed */
0 
MDAP[1]	/* MoveDirectAbsPt */
ELSE[ ]	/* Else */
PUSHB[ ]	/* 2 values pushed */
0 18 
MIAP[0]	/* MoveIndirectAbsPt */
EIF[ ]	/* EndIf */
PUSHB[ ]	/* 2 values pushed */
23 1 
PUSHB[ ]	/* 1 value pushed */
10 
CALL[ ]	/* CallFunction */
IF[ ]	/* If */
POP[ ]	/* PopTopStack */
MDRP[11000]	/* MoveDirectRelPt */
ELSE[ ]	/* Else */
MIRP[10100]	/* MoveIndirectRelPt */
EIF[ ]	/* EndIf */
PUSHB[ ]	/* 1 value pushed */
2 
MDRP[10000]	/* MoveDirectRelPt */
PUSHB[ ]	/* 3 values pushed */
3 16 23 
SRP1[ ]	/* SetRefPoint1 */
SRP2[ ]	/* SetRefPoint2 */
IP[ ]	/* InterpolatePts */
PUSHB[ ]	/* 1 value pushed */
16 
SRP0[ ]	/* SetRefPoint0 */
PUSHB[ ]	/* 2 values pushed */
9 1 
PUSHB[ ]	/* 1 value pushed */
10 
CALL[ ]	/* CallFunction */
IF[ ]	/* If */
POP[ ]	/* PopTopStack */
MDRP[11000]	/* MoveDirectRelPt */
ELSE[ ]	/* Else */
MIRP[10100]	/* MoveIndirectRelPt */
EIF[ ]	/* EndIf */
PUSHB[ ]	/* 1 value pushed */
16 
SRP0[ ]	/* SetRefPoint0 */
PUSHB[ ]	/* 1 value pushed */
12 
MDRP[10000]	/* MoveDirectRelPt */
PUSHB[ ]	/* 3 values pushed */
21 23 16 
SRP1[ ]	/* SetRefPoint1 */
SRP2[ ]	/* SetRefPoint2 */
IP[ ]	/* InterpolatePts */
IUP[0]	/* InterpolateUntPts */
IUP[1]	/* InterpolateUntPts */";
};
width = 1175;
},
{
layerId = m002;
shapes = (
{
closed = 1;
nodes = (
(1075,0,l),
(1075,151,l),
(344,151,l),
(734,574,ls),
(916.667,772,o),
(1008,942.667,o),
(1008,1086,cs),
(1008,1322,o),
(839.667,1476,o),
(569,1476,cs),
(279.667,1476,o),
(93,1295,o),
(93,1027,c),
(278,1027,l),
(278,1213.667,o),
(385,1324,o),
(569,1324,cs),
(722.333,1324,o),
(822,1216,o),
(822,1064,cs),
(822,950.667,o),
(774.333,862.333,o),
(625,693,cs),
(121,133,l),
(121,0,l)
);
}
);
userData = {
assembly = "SVTCA[0]	/* SetFreedomAndProjectionVectorToAxis */
PUSHB[ ]	/* 1 value pushed */
0 
RCVT[ ]	/* ReadCVT */
IF[ ]	/* If */
PUSHB[ ]	/* 1 value pushed */
16 
MDAP[1]	/* MoveDirectAbsPt */
ELSE[ ]	/* Else */
PUSHB[ ]	/* 2 values pushed */
16 30 
MIAP[0]	/* MoveIndirectAbsPt */
EIF[ ]	/* EndIf */
PUSHB[ ]	/* 1 value pushed */
0 
RCVT[ ]	/* ReadCVT */
IF[ ]	/* If */
PUSHB[ ]	/* 1 value pushed */
0 
MDAP[1]	/* MoveDirectAbsPt */
ELSE[ ]	/* Else */
PUSHB[ ]	/* 2 values pushed */
0 18 
MIAP[0]	/* MoveIndirectAbsPt */
EIF[ ]	/* EndIf */
PUSHB[ ]	/* 2 values pushed */
23 1 
PUSHB[ ]	/* 1 value pushed */
10 
CALL[ ]	/* CallFunction */
IF[ ]	/* If */
POP[ ]	/* PopTopStack */
MDRP[11000]	/* MoveDirectRelPt */
ELSE[ ]	/* Else */
MIRP[10100]	/* MoveIndirectRelPt */
EIF[ ]	/* EndIf */
PUSHB[ ]	/* 1 value pushed */
2 
MDRP[10000]	/* MoveDirectRelPt */
PUSHB[ ]	/* 3 values pushed */
3 16 23 
SRP1[ ]	/* SetRefPoint1 */
SRP2[ ]	/* SetRefPoint2 */
IP[ ]	/* InterpolatePts */
PUSHB[ ]	/* 1 value pushed */
16 
SRP0[ ]	/* SetRefPoint0 */
PUSHB[ ]	/* 2 values pushed */
9 1 
PUSHB[ ]	/* 1 value pushed */
10 
CALL[ ]	/* CallFunction */
IF[ ]	/* If */
POP[ ]	/* PopTopStack */
MDRP[11000]	/* MoveDirectRelPt */
ELSE[ ]	/* Else */
MIRP[10100]	/* MoveIndirectRelPt */
EIF[ ]	/* EndIf */
PUSHB[ ]	/* 1 value pushed */
16 
SRP0[ ]	/* SetRefPoint0 */
PUSHB[ ]	/* 1 value pushed */
12 
MDRP[10000]	/* MoveDirectRelPt */
PUSHB[ ]	/* 3 values pushed */
21 23 16 
SRP1[ ]	/* SetRefPoint1 */
SRP2[ ]	/* SetRefPoint2 */
IP[ ]	/* InterpolatePts */
IUP[0]	/* InterpolateUntPts */
IUP[1]	/* InterpolateUntPts */";
};
width = 1150;
},
{
layerId = m003;
shapes = (
{
closed = 1;
nodes = (
(1024,0,l),
(1024,54,l),
(224,54,l),
(755,678,l),
(882.333,836,o),
(946,971.667,o),
(946,1085,cs),
(946,1331.667,o),
(794.667,1476,o),
(536,1476,cs),
(289,1476,o),
(117,1282,o),
(117,1045,c),
(171,1045,l),
(171,1261,o),
(328,1422,o),
(536,1422,cs),
(761.333,1422,o),
(891,1298.333,o),
(891,1085,cs),
(891,961,o),
(812.667,817.667,o),
(650,627,cs),
(153,54,l),
(153,0,l)
);
}
);
userData = {
assembly = "SVTCA[0]	/* SetFreedomAndProjectionVectorToAxis */
PUSHB[ ]	/* 1 value pushed */
0 
RCVT[ ]	/* ReadCVT */
IF[ ]	/* If */
PUSHB[ ]	/* 1 value pushed */
16 
MDAP[1]	/* MoveDirectAbsPt */
ELSE[ ]	/* Else */
PUSHB[ ]	/* 2 values pushed */
16 30 
MIAP[0]	/* MoveIndirectAbsPt */
EIF[ ]	/* EndIf */
PUSHB[ ]	/* 1 value pushed */
0 
RCVT[ ]	/* ReadCVT */
IF[ ]	/* If */
PUSHB[ ]	/* 1 value pushed */
0 
MDAP[1]	/* MoveDirectAbsPt */
ELSE[ ]	/* Else */
PUSHB[ ]	/* 2 values pushed */
0 18 
MIAP[0]	/* MoveIndirectAbsPt */
EIF[ ]	/* EndIf */
PUSHB[ ]	/* 2 values pushed */
23 1 
PUSHB[ ]	/* 1 value pushed */
10 
CALL[ ]	/* CallFunction */
IF[ ]	/* If */
POP[ ]	/* PopTopStack */
MDRP[11000]	/* MoveDirectRelPt */
ELSE[ ]	/* Else */
MIRP[10100]	/* MoveIndirectRelPt */
EIF[ ]	/* EndIf */
PUSHB[ ]	/* 1 value pushed */
2 
MDRP[10000]	/* MoveDirectRelPt */
PUSHB[ ]	/* 3 values pushed */
3 16 23 
SRP1[ ]	/* SetRefPoint1 */
SRP2[ ]	/* SetRefPoint2 */
IP[ ]	/* InterpolatePts */
PUSHB[ ]	/* 1 value pushed */
16 
SRP0[ ]	/* SetRefPoint0 */
PUSHB[ ]	/* 2 values pushed */
9 1 
PUSHB[ ]	/* 1 value pushed */
10 
CALL[ ]	/* CallFunction */
IF[ ]	/* If */
POP[ ]	/* PopTopStack */
MDRP[11000]	/* MoveDirectRelPt */
ELSE[ ]	/* Else */
MIRP[10100]	/* MoveIndirectRelPt */
EIF[ ]	/* EndIf */
PUSHB[ ]	/* 1 value pushed */
16 
SRP0[ ]	/* SetRefPoint0 */
PUSHB[ ]	/* 1 value pushed */
12 
MDRP[10000]	/* MoveDirectRelPt */
PUSHB[ ]	/* 3 values pushed */
21 23 16 
SRP1[ ]	/* SetRefPoint1 */
SRP2[ ]	/* SetRefPoint2 */
IP[ ]	/* InterpolatePts */
IUP[0]	/* InterpolateUntPts */
IUP[1]	/* InterpolateUntPts */";
};
width = 1121;
},
{
layerId = m004;
shapes = (
{
closed = 1;
nodes = (
(884,0,l),
(911,151,l),
(180,151,l),
(644,574,ls),
(862,772,o),
(983,943,o),
(1009,1086,cs),
(1050,1322,o),
(909,1476,o),
(638,1476,cs),
(349,1476,o),
(131,1295,o),
(83,1027,c),
(268,1027,l),
(301,1214,o),
(428,1324,o),
(612,1324,cs),
(765,1324,o),
(846,1216,o),
(819,1064,cs),
(799,951,o),
(736,862,o),
(556,693,cs),
(-46,133,l),
(-70,0,l)
);
}
);
userData = {
assembly = "SVTCA[0]	/* SetFreedomAndProjectionVectorToAxis */
PUSHB[ ]	/* 1 value pushed */
0 
RCVT[ ]	/* ReadCVT */
IF[ ]	/* If */
PUSHB[ ]	/* 1 value pushed */
16 
MDAP[1]	/* MoveDirectAbsPt */
ELSE[ ]	/* Else */
PUSHB[ ]	/* 2 values pushed */
16 30 
MIAP[0]	/* MoveIndirectAbsPt */
EIF[ ]	/* EndIf */
PUSHB[ ]	/* 1 value pushed */
0 
RCVT[ ]	/* ReadCVT */
IF[ ]	/* If */
PUSHB[ ]	/* 1 value pushed */
0 
MDAP[1]	/* MoveDirectAbsPt */
ELSE[ ]	/* Else */
PUSHB[ ]	/* 2 values pushed */
0 18 
MIAP[0]	/* MoveIndirectAbsPt */
EIF[ ]	/* EndIf */
PUSHB[ ]	/* 2 values pushed */
23 1 
PUSHB[ ]	/* 1 value pushed */
10 
CALL[ ]	/* CallFunction */
IF[ ]	/* If */
POP[ ]	/* PopTopStack */
MDRP[11000]	/* MoveDirectRelPt */
ELSE[ ]	/* Else */
MIRP[10100]	/* MoveIndirectRelPt */
EIF[ ]	/* EndIf */
PUSHB[ ]	/* 1 value pushed */
2 
MDRP[10000]	/* MoveDirectRelPt */
PUSHB[ ]	/* 3 values pushed */
3 16 23 
SRP1[ ]	/* SetRefPoint1 */
SRP2[ ]	/* SetRefPoint2 */
IP[ ]	/* InterpolatePts */
PUSHB[ ]	/* 1 value pushed */
16 
SRP0[ ]	/* SetRefPoint0 */
PUSHB[ ]	/* 2 values pushed */
9 1 
PUSHB[ ]	/* 1 value pushed */
10 
CALL[ ]	/* CallFunction */
IF[ ]	/* If */
POP[ ]	/* PopTopStack */
MDRP[11000]	/* MoveDirectRelPt */
ELSE[ ]	/* Else */
MIRP[10100]	/* MoveIndirectRelPt */
EIF[ ]	/* EndIf */
PUSHB[ ]	/* 1 value pushed */
16 
SRP0[ ]	/* SetRefPoint0 */
PUSHB[ ]	/* 1 value pushed */
12 
MDRP[10000]	/* MoveDirectRelPt */
PUSHB[ ]	/* 3 values pushed */
21 23 16 
SRP1[ ]	/* SetRefPoint1 */
SRP2[ ]	/* SetRefPoint2 */
IP[ ]	/* InterpolatePts */
IUP[0]	/* InterpolateUntPts */
IUP[1]	/* InterpolateUntPts */";
};
width = 1150;
},
{
layerId = m005;
shapes = (
{
closed = 1;
nodes = (
(833,0,l),
(843,54,l),
(43,54,l),
(684,678,ls),
(843,832,o),
(927,972,o),
(947,1085,cs),
(990,1332,o),
(864,1476,o),
(605,1476,cs),
(356,1476,o),
(152,1278,o),
(110,1045,c),
(164,1045,l),
(202,1258,o),
(384,1422,o),
(596,1422,cs),
(821,1422,o),
(929,1298,o),
(892,1085,cs),
(870,961,o),
(766,818,o),
(570,627,cs),
(-28,54,l),
(-38,0,l)
);
}
);
userData = {
assembly = "SVTCA[0]	/* SetFreedomAndProjectionVectorToAxis */
PUSHB[ ]	/* 1 value pushed */
0 
RCVT[ ]	/* ReadCVT */
IF[ ]	/* If */
PUSHB[ ]	/* 1 value pushed */
16 
MDAP[1]	/* MoveDirectAbsPt */
ELSE[ ]	/* Else */
PUSHB[ ]	/* 2 values pushed */
16 30 
MIAP[0]	/* MoveIndirectAbsPt */
EIF[ ]	/* EndIf */
PUSHB[ ]	/* 1 value pushed */
0 
RCVT[ ]	/* ReadCVT */
IF[ ]	/* If */
PUSHB[ ]	/* 1 value pushed */
0 
MDAP[1]	/* MoveDirectAbsPt */
ELSE[ ]	/* Else */
PUSHB[ ]	/* 2 values pushed */
0 18 
MIAP[0]	/* MoveIndirectAbsPt */
EIF[ ]	/* EndIf */
PUSHB[ ]	/* 2 values pushed */
23 1 
PUSHB[ ]	/* 1 value pushed */
10 
CALL[ ]	/* CallFunction */
IF[ ]	/* If */
POP[ ]	/* PopTopStack */
MDRP[11000]	/* MoveDirectRelPt */
ELSE[ ]	/* Else */
MIRP[10100]	/* MoveIndirectRelPt */
EIF[ ]	/* EndIf */
PUSHB[ ]	/* 1 value pushed */
2 
MDRP[10000]	/* MoveDirectRelPt */
PUSHB[ ]	/* 3 values pushed */
3 16 23 
SRP1[ ]	/* SetRefPoint1 */
SRP2[ ]	/* SetRefPoint2 */
IP[ ]	/* InterpolatePts */
PUSHB[ ]	/* 1 value pushed */
16 
SRP0[ ]	/* SetRefPoint0 */
PUSHB[ ]	/* 2 values pushed */
9 1 
PUSHB[ ]	/* 1 value pushed */
10 
CALL[ ]	/* CallFunction */
IF[ ]	/* If */
POP[ ]	/* PopTopStack */
MDRP[11000]	/* MoveDirectRelPt */
ELSE[ ]	/* Else */
MIRP[10100]	/* MoveIndirectRelPt */
EIF[ ]	/* EndIf */
PUSHB[ ]	/* 1 value pushed */
16 
SRP0[ ]	/* SetRefPoint0 */
PUSHB[ ]	/* 1 value pushed */
12 
MDRP[10000]	/* MoveDirectRelPt */
PUSHB[ ]	/* 3 values pushed */
21 23 16 
SRP1[ ]	/* SetRefPoint1 */
SRP2[ ]	/* SetRefPoint2 */
IP[ ]	/* InterpolatePts */
IUP[0]	/* InterpolateUntPts */
IUP[1]	/* InterpolateUntPts */";
};
width = 1121;
}
);
note = uni0032;
unicode = 50;
},
{
glyphname = three;
lastChange = "2020-12-09 00:58:54 +0000";
layers = (
{
layerId = "A9B054E9-1A63-4AEF-9EE1-561B1DFE8422";
shapes = (
{
closed = 1;
nodes = (
(869.667,-20,o),
(1075,149.333,o),
(1075,408,cs),
(1075,568,o),
(995,689.333,o),
(831,748,c),
(963,808,o),
(1052,927.667,o),
(1052,1061,cs),
(1052,1319.667,o),
(867,1476,o),
(559,1476,cs),
(304,1476,o),
(82,1326,o),
(82,1079,c),
(371,1079,l),
(371,1176.333,o),
(455.333,1243,o),
(566,1243,cs),
(688.667,1243,o),
(763,1174.333,o),
(763,1057,cs),
(763,935.667,o),
(693.667,856,o),
(547,856,cs),
(393,856,l),
(393,630,l),
(546,630,ls),
(706,630,o),
(786,557.333,o),
(786,412,cs),
(786,292,o),
(703.333,213,o),
(566,213,cs),
(446,213,o),
(353,289.667,o),
(353,399,c),
(64,399,l),
(64,147,o),
(268.333,-20,o),
(559,-20,cs)
);
}
);
userData = {
assembly = "SVTCA[0]	/* SetFreedomAndProjectionVectorToAxis */
PUSHB[ ]	/* 1 value pushed */
0 
RCVT[ ]	/* ReadCVT */
IF[ ]	/* If */
PUSHB[ ]	/* 1 value pushed */
13 
MDAP[1]	/* MoveDirectAbsPt */
ELSE[ ]	/* Else */
PUSHB[ ]	/* 2 values pushed */
13 30 
MIAP[0]	/* MoveIndirectAbsPt */
EIF[ ]	/* EndIf */
PUSHB[ ]	/* 1 value pushed */
0 
RCVT[ ]	/* ReadCVT */
IF[ ]	/* If */
PUSHB[ ]	/* 1 value pushed */
25 
MDAP[1]	/* MoveDirectAbsPt */
ELSE[ ]	/* Else */
PUSHB[ ]	/* 2 values pushed */
25 18 
MIAP[0]	/* MoveIndirectAbsPt */
EIF[ ]	/* EndIf */
PUSHB[ ]	/* 3 values pushed */
0 13 25 
SRP1[ ]	/* SetRefPoint1 */
SRP2[ ]	/* SetRefPoint2 */
IP[ ]	/* InterpolatePts */
PUSHB[ ]	/* 1 value pushed */
0 
MDAP[1]	/* MoveDirectAbsPt */
PUSHB[ ]	/* 3 values pushed */
207 0 1 
DELTAP1[ ]	/* DeltaExceptionP1 */
PUSHB[ ]	/* 3 values pushed */
159 0 1 
DELTAP2[ ]	/* DeltaExceptionP2 */
PUSHB[ ]	/* 3 values pushed */
47 0 1 
DELTAP1[ ]	/* DeltaExceptionP1 */
PUSHB[ ]	/* 3 values pushed */
95 0 1 
DELTAP3[ ]	/* DeltaExceptionP3 */
PUSHB[ ]	/* 1 value pushed */
13 
SRP0[ ]	/* SetRefPoint0 */
PUSHB[ ]	/* 2 values pushed */
6 1 
PUSHB[ ]	/* 1 value pushed */
10 
CALL[ ]	/* CallFunction */
IF[ ]	/* If */
POP[ ]	/* PopTopStack */
MDRP[11000]	/* MoveDirectRelPt */
ELSE[ ]	/* Else */
MIRP[10100]	/* MoveIndirectRelPt */
EIF[ ]	/* EndIf */
PUSHB[ ]	/* 1 value pushed */
13 
SRP0[ ]	/* SetRefPoint0 */
PUSHB[ ]	/* 1 value pushed */
9 
MDRP[10000]	/* MoveDirectRelPt */
PUSHB[ ]	/* 1 value pushed */
0 
SRP0[ ]	/* SetRefPoint0 */
PUSHB[ ]	/* 2 values pushed */
38 1 
PUSHB[ ]	/* 1 value pushed */
10 
CALL[ ]	/* CallFunction */
IF[ ]	/* If */
POP[ ]	/* PopTopStack */
MDRP[11000]	/* MoveDirectRelPt */
ELSE[ ]	/* Else */
MIRP[10100]	/* MoveIndirectRelPt */
EIF[ ]	/* EndIf */
PUSHB[ ]	/* 3 values pushed */
19 38 0 
SRP1[ ]	/* SetRefPoint1 */
SRP2[ ]	/* SetRefPoint2 */
IP[ ]	/* InterpolatePts */
PUSHB[ ]	/* 1 value pushed */
25 
SRP0[ ]	/* SetRefPoint0 */
PUSHB[ ]	/* 1 value pushed */
28 
MDRP[10000]	/* MoveDirectRelPt */
PUSHB[ ]	/* 1 value pushed */
25 
SRP0[ ]	/* SetRefPoint0 */
PUSHB[ ]	/* 2 values pushed */
31 1 
PUSHB[ ]	/* 1 value pushed */
10 
CALL[ ]	/* CallFunction */
IF[ ]	/* If */
POP[ ]	/* PopTopStack */
MDRP[11000]	/* MoveDirectRelPt */
ELSE[ ]	/* Else */
MIRP[10100]	/* MoveIndirectRelPt */
EIF[ ]	/* EndIf */
IUP[0]	/* InterpolateUntPts */
IUP[1]	/* InterpolateUntPts */";
};
width = 1175;
},
{
layerId = m002;
shapes = (
{
closed = 1;
nodes = (
(829.333,-20,o),
(1017,144.667,o),
(1017,406,cs),
(1017,575.333,o),
(926,696.333,o),
(766,747,c),
(907.333,805.667,o),
(995,937.333,o),
(995,1064,cs),
(995,1322.667,o),
(829.667,1476,o),
(555,1476,cs),
(295,1476,o),
(107,1304.667,o),
(107,1074,c),
(292,1074,l),
(292,1224.667,o),
(395,1324,o),
(555,1324,cs),
(725,1324,o),
(810,1238.667,o),
(810,1068,cs),
(810,916,o),
(703.667,820.667,o),
(529,818,cs),
(390,818,l),
(390,667,l),
(529,667,ls),
(725,664.333,o),
(832,571.333,o),
(832,402,cs),
(832,227.333,o),
(734.667,131,o),
(556,131,cs),
(388,131,o),
(280,230.667,o),
(280,384,c),
(94,384,l),
(94,141.333,o),
(282.667,-20,o),
(556,-20,cs)
);
}
);
userData = {
assembly = "SVTCA[0]	/* SetFreedomAndProjectionVectorToAxis */
PUSHB[ ]	/* 1 value pushed */
0 
RCVT[ ]	/* ReadCVT */
IF[ ]	/* If */
PUSHB[ ]	/* 1 value pushed */
13 
MDAP[1]	/* MoveDirectAbsPt */
ELSE[ ]	/* Else */
PUSHB[ ]	/* 2 values pushed */
13 30 
MIAP[0]	/* MoveIndirectAbsPt */
EIF[ ]	/* EndIf */
PUSHB[ ]	/* 1 value pushed */
0 
RCVT[ ]	/* ReadCVT */
IF[ ]	/* If */
PUSHB[ ]	/* 1 value pushed */
25 
MDAP[1]	/* MoveDirectAbsPt */
ELSE[ ]	/* Else */
PUSHB[ ]	/* 2 values pushed */
25 18 
MIAP[0]	/* MoveIndirectAbsPt */
EIF[ ]	/* EndIf */
PUSHB[ ]	/* 3 values pushed */
0 13 25 
SRP1[ ]	/* SetRefPoint1 */
SRP2[ ]	/* SetRefPoint2 */
IP[ ]	/* InterpolatePts */
PUSHB[ ]	/* 1 value pushed */
0 
MDAP[1]	/* MoveDirectAbsPt */
PUSHB[ ]	/* 3 values pushed */
207 0 1 
DELTAP1[ ]	/* DeltaExceptionP1 */
PUSHB[ ]	/* 3 values pushed */
159 0 1 
DELTAP2[ ]	/* DeltaExceptionP2 */
PUSHB[ ]	/* 3 values pushed */
47 0 1 
DELTAP1[ ]	/* DeltaExceptionP1 */
PUSHB[ ]	/* 3 values pushed */
95 0 1 
DELTAP3[ ]	/* DeltaExceptionP3 */
PUSHB[ ]	/* 1 value pushed */
13 
SRP0[ ]	/* SetRefPoint0 */
PUSHB[ ]	/* 2 values pushed */
6 1 
PUSHB[ ]	/* 1 value pushed */
10 
CALL[ ]	/* CallFunction */
IF[ ]	/* If */
POP[ ]	/* PopTopStack */
MDRP[11000]	/* MoveDirectRelPt */
ELSE[ ]	/* Else */
MIRP[10100]	/* MoveIndirectRelPt */
EIF[ ]	/* EndIf */
PUSHB[ ]	/* 1 value pushed */
13 
SRP0[ ]	/* SetRefPoint0 */
PUSHB[ ]	/* 1 value pushed */
9 
MDRP[10000]	/* MoveDirectRelPt */
PUSHB[ ]	/* 1 value pushed */
0 
SRP0[ ]	/* SetRefPoint0 */
PUSHB[ ]	/* 2 values pushed */
38 1 
PUSHB[ ]	/* 1 value pushed */
10 
CALL[ ]	/* CallFunction */
IF[ ]	/* If */
POP[ ]	/* PopTopStack */
MDRP[11000]	/* MoveDirectRelPt */
ELSE[ ]	/* Else */
MIRP[10100]	/* MoveIndirectRelPt */
EIF[ ]	/* EndIf */
PUSHB[ ]	/* 3 values pushed */
19 38 0 
SRP1[ ]	/* SetRefPoint1 */
SRP2[ ]	/* SetRefPoint2 */
IP[ ]	/* InterpolatePts */
PUSHB[ ]	/* 1 value pushed */
25 
SRP0[ ]	/* SetRefPoint0 */
PUSHB[ ]	/* 1 value pushed */
28 
MDRP[10000]	/* MoveDirectRelPt */
PUSHB[ ]	/* 1 value pushed */
25 
SRP0[ ]	/* SetRefPoint0 */
PUSHB[ ]	/* 2 values pushed */
31 1 
PUSHB[ ]	/* 1 value pushed */
10 
CALL[ ]	/* CallFunction */
IF[ ]	/* If */
POP[ ]	/* PopTopStack */
MDRP[11000]	/* MoveDirectRelPt */
ELSE[ ]	/* Else */
MIRP[10100]	/* MoveIndirectRelPt */
EIF[ ]	/* EndIf */
IUP[0]	/* InterpolateUntPts */
IUP[1]	/* InterpolateUntPts */";
};
width = 1150;
},
{
layerId = m003;
shapes = (
{
closed = 1;
nodes = (
(834.333,-20,o),
(1007,138,o),
(1007,386,cs),
(1007,578,o),
(893.667,701,o),
(703,745,c),
(869.667,795.667,o),
(975,926.333,o),
(975,1081,cs),
(975,1323.667,o),
(816,1476,o),
(564,1476,cs),
(186.364,1472.953,o),
(88.42,1100.684,o),
(134,1074,c),
(188,1074,l),
(188,1282,o),
(345.333,1422,o),
(564,1422,cs),
(788,1422,o),
(921,1291.667,o),
(921,1085,cs),
(921,903.667,o),
(767,774,o),
(539,770,cs),
(417,770,l),
(417,714,l),
(531,714,ls),
(807,712.667,o),
(953,596.667,o),
(953,382,cs),
(953,164.667,o),
(811.667,34,o),
(573,34,cs),
(333,34,o),
(157,192,o),
(157,405,c),
(103,405,l),
(103,138,o),
(322,-20,o),
(573,-20,cs)
);
}
);
userData = {
assembly = "SVTCA[0]	/* SetFreedomAndProjectionVectorToAxis */
PUSHB[ ]	/* 1 value pushed */
0 
RCVT[ ]	/* ReadCVT */
IF[ ]	/* If */
PUSHB[ ]	/* 1 value pushed */
13 
MDAP[1]	/* MoveDirectAbsPt */
ELSE[ ]	/* Else */
PUSHB[ ]	/* 2 values pushed */
13 30 
MIAP[0]	/* MoveIndirectAbsPt */
EIF[ ]	/* EndIf */
PUSHB[ ]	/* 1 value pushed */
0 
RCVT[ ]	/* ReadCVT */
IF[ ]	/* If */
PUSHB[ ]	/* 1 value pushed */
25 
MDAP[1]	/* MoveDirectAbsPt */
ELSE[ ]	/* Else */
PUSHB[ ]	/* 2 values pushed */
25 18 
MIAP[0]	/* MoveIndirectAbsPt */
EIF[ ]	/* EndIf */
PUSHB[ ]	/* 3 values pushed */
0 13 25 
SRP1[ ]	/* SetRefPoint1 */
SRP2[ ]	/* SetRefPoint2 */
IP[ ]	/* InterpolatePts */
PUSHB[ ]	/* 1 value pushed */
0 
MDAP[1]	/* MoveDirectAbsPt */
PUSHB[ ]	/* 3 values pushed */
207 0 1 
DELTAP1[ ]	/* DeltaExceptionP1 */
PUSHB[ ]	/* 3 values pushed */
159 0 1 
DELTAP2[ ]	/* DeltaExceptionP2 */
PUSHB[ ]	/* 3 values pushed */
47 0 1 
DELTAP1[ ]	/* DeltaExceptionP1 */
PUSHB[ ]	/* 3 values pushed */
95 0 1 
DELTAP3[ ]	/* DeltaExceptionP3 */
PUSHB[ ]	/* 1 value pushed */
13 
SRP0[ ]	/* SetRefPoint0 */
PUSHB[ ]	/* 2 values pushed */
6 1 
PUSHB[ ]	/* 1 value pushed */
10 
CALL[ ]	/* CallFunction */
IF[ ]	/* If */
POP[ ]	/* PopTopStack */
MDRP[11000]	/* MoveDirectRelPt */
ELSE[ ]	/* Else */
MIRP[10100]	/* MoveIndirectRelPt */
EIF[ ]	/* EndIf */
PUSHB[ ]	/* 1 value pushed */
13 
SRP0[ ]	/* SetRefPoint0 */
PUSHB[ ]	/* 1 value pushed */
9 
MDRP[10000]	/* MoveDirectRelPt */
PUSHB[ ]	/* 1 value pushed */
0 
SRP0[ ]	/* SetRefPoint0 */
PUSHB[ ]	/* 2 values pushed */
38 1 
PUSHB[ ]	/* 1 value pushed */
10 
CALL[ ]	/* CallFunction */
IF[ ]	/* If */
POP[ ]	/* PopTopStack */
MDRP[11000]	/* MoveDirectRelPt */
ELSE[ ]	/* Else */
MIRP[10100]	/* MoveIndirectRelPt */
EIF[ ]	/* EndIf */
PUSHB[ ]	/* 3 values pushed */
19 38 0 
SRP1[ ]	/* SetRefPoint1 */
SRP2[ ]	/* SetRefPoint2 */
IP[ ]	/* InterpolatePts */
PUSHB[ ]	/* 1 value pushed */
25 
SRP0[ ]	/* SetRefPoint0 */
PUSHB[ ]	/* 1 value pushed */
28 
MDRP[10000]	/* MoveDirectRelPt */
PUSHB[ ]	/* 1 value pushed */
25 
SRP0[ ]	/* SetRefPoint0 */
PUSHB[ ]	/* 2 values pushed */
31 1 
PUSHB[ ]	/* 1 value pushed */
10 
CALL[ ]	/* CallFunction */
IF[ ]	/* If */
POP[ ]	/* PopTopStack */
MDRP[11000]	/* MoveDirectRelPt */
ELSE[ ]	/* Else */
MIRP[10100]	/* MoveIndirectRelPt */
EIF[ ]	/* EndIf */
IUP[0]	/* InterpolateUntPts */
IUP[1]	/* InterpolateUntPts */";
};
width = 1121;
},
{
layerId = m004;
shapes = (
{
closed = 1;
nodes = (
(635,-20,o),
(852,145,o),
(898,406,cs),
(928,575,o),
(858,696,o),
(707,747,c),
(859,806,o),
(969,937,o),
(992,1064,cs),
(1037,1323,o),
(899,1476,o),
(624,1476,cs),
(364,1476,o),
(146,1305,o),
(106,1074,c),
(291,1074,l),
(317,1225,o),
(438,1324,o),
(598,1324,cs),
(768,1324,o),
(838,1239,o),
(808,1068,cs),
(781,916,o),
(658,821,o),
(482,818,cs),
(343,818,l),
(317,667,l),
(456,667,ls),
(651,664,o),
(742,571,o),
(712,402,cs),
(681,227,o),
(567,131,o),
(388,131,cs),
(220,131,o),
(130,231,o),
(157,384,c),
(-29,384,l),
(-72,141,o),
(88,-20,o),
(362,-20,cs)
);
}
);
userData = {
assembly = "SVTCA[0]	/* SetFreedomAndProjectionVectorToAxis */
PUSHB[ ]	/* 1 value pushed */
0 
RCVT[ ]	/* ReadCVT */
IF[ ]	/* If */
PUSHB[ ]	/* 1 value pushed */
13 
MDAP[1]	/* MoveDirectAbsPt */
ELSE[ ]	/* Else */
PUSHB[ ]	/* 2 values pushed */
13 30 
MIAP[0]	/* MoveIndirectAbsPt */
EIF[ ]	/* EndIf */
PUSHB[ ]	/* 1 value pushed */
0 
RCVT[ ]	/* ReadCVT */
IF[ ]	/* If */
PUSHB[ ]	/* 1 value pushed */
25 
MDAP[1]	/* MoveDirectAbsPt */
ELSE[ ]	/* Else */
PUSHB[ ]	/* 2 values pushed */
25 18 
MIAP[0]	/* MoveIndirectAbsPt */
EIF[ ]	/* EndIf */
PUSHB[ ]	/* 3 values pushed */
0 13 25 
SRP1[ ]	/* SetRefPoint1 */
SRP2[ ]	/* SetRefPoint2 */
IP[ ]	/* InterpolatePts */
PUSHB[ ]	/* 1 value pushed */
0 
MDAP[1]	/* MoveDirectAbsPt */
PUSHB[ ]	/* 3 values pushed */
207 0 1 
DELTAP1[ ]	/* DeltaExceptionP1 */
PUSHB[ ]	/* 3 values pushed */
159 0 1 
DELTAP2[ ]	/* DeltaExceptionP2 */
PUSHB[ ]	/* 3 values pushed */
47 0 1 
DELTAP1[ ]	/* DeltaExceptionP1 */
PUSHB[ ]	/* 3 values pushed */
95 0 1 
DELTAP3[ ]	/* DeltaExceptionP3 */
PUSHB[ ]	/* 1 value pushed */
13 
SRP0[ ]	/* SetRefPoint0 */
PUSHB[ ]	/* 2 values pushed */
6 1 
PUSHB[ ]	/* 1 value pushed */
10 
CALL[ ]	/* CallFunction */
IF[ ]	/* If */
POP[ ]	/* PopTopStack */
MDRP[11000]	/* MoveDirectRelPt */
ELSE[ ]	/* Else */
MIRP[10100]	/* MoveIndirectRelPt */
EIF[ ]	/* EndIf */
PUSHB[ ]	/* 1 value pushed */
13 
SRP0[ ]	/* SetRefPoint0 */
PUSHB[ ]	/* 1 value pushed */
9 
MDRP[10000]	/* MoveDirectRelPt */
PUSHB[ ]	/* 1 value pushed */
0 
SRP0[ ]	/* SetRefPoint0 */
PUSHB[ ]	/* 2 values pushed */
38 1 
PUSHB[ ]	/* 1 value pushed */
10 
CALL[ ]	/* CallFunction */
IF[ ]	/* If */
POP[ ]	/* PopTopStack */
MDRP[11000]	/* MoveDirectRelPt */
ELSE[ ]	/* Else */
MIRP[10100]	/* MoveIndirectRelPt */
EIF[ ]	/* EndIf */
PUSHB[ ]	/* 3 values pushed */
19 38 0 
SRP1[ ]	/* SetRefPoint1 */
SRP2[ ]	/* SetRefPoint2 */
IP[ ]	/* InterpolatePts */
PUSHB[ ]	/* 1 value pushed */
25 
SRP0[ ]	/* SetRefPoint0 */
PUSHB[ ]	/* 1 value pushed */
28 
MDRP[10000]	/* MoveDirectRelPt */
PUSHB[ ]	/* 1 value pushed */
25 
SRP0[ ]	/* SetRefPoint0 */
PUSHB[ ]	/* 2 values pushed */
31 1 
PUSHB[ ]	/* 1 value pushed */
10 
CALL[ ]	/* CallFunction */
IF[ ]	/* If */
POP[ ]	/* PopTopStack */
MDRP[11000]	/* MoveDirectRelPt */
ELSE[ ]	/* Else */
MIRP[10100]	/* MoveIndirectRelPt */
EIF[ ]	/* EndIf */
IUP[0]	/* InterpolateUntPts */
IUP[1]	/* InterpolateUntPts */";
};
width = 1150;
},
{
layerId = m005;
shapes = (
{
closed = 1;
nodes = (
(640,-20,o),
(841,138,o),
(884,386,cs),
(918,578,o),
(826,701,o),
(644,745,c),
(819,796,o),
(948,926,o),
(975,1081,cs,{
name = "❌";
}),
(1018,1324,o),
(885,1476,o),
(633,1476,cs),
(255,1473,o),
(133,1144,o),
(133,1074,c),
(187,1074,l),
(223,1282,o),
(405,1422,o),
(624,1422,cs),
(848,1422,o),
(958,1292,o),
(922,1085,cs),
(890,904,o),
(713,770,o),
(484,770,cs),
(362,770,l),
(352,714,l),
(466,714,ls),
(742,714,o),
(867,597,o),
(830,382,cs),
(791,165,o),
(627,34,o),
(388,34,cs),
(148,34,o),
(0,192,o),
(38,405,c),
(-16,405,l),
(-63,136,o),
(128,-20,o),
(379,-20,cs)
);
}
);
userData = {
assembly = "SVTCA[0]	/* SetFreedomAndProjectionVectorToAxis */
PUSHB[ ]	/* 1 value pushed */
0 
RCVT[ ]	/* ReadCVT */
IF[ ]	/* If */
PUSHB[ ]	/* 1 value pushed */
13 
MDAP[1]	/* MoveDirectAbsPt */
ELSE[ ]	/* Else */
PUSHB[ ]	/* 2 values pushed */
13 30 
MIAP[0]	/* MoveIndirectAbsPt */
EIF[ ]	/* EndIf */
PUSHB[ ]	/* 1 value pushed */
0 
RCVT[ ]	/* ReadCVT */
IF[ ]	/* If */
PUSHB[ ]	/* 1 value pushed */
25 
MDAP[1]	/* MoveDirectAbsPt */
ELSE[ ]	/* Else */
PUSHB[ ]	/* 2 values pushed */
25 18 
MIAP[0]	/* MoveIndirectAbsPt */
EIF[ ]	/* EndIf */
PUSHB[ ]	/* 3 values pushed */
0 13 25 
SRP1[ ]	/* SetRefPoint1 */
SRP2[ ]	/* SetRefPoint2 */
IP[ ]	/* InterpolatePts */
PUSHB[ ]	/* 1 value pushed */
0 
MDAP[1]	/* MoveDirectAbsPt */
PUSHB[ ]	/* 3 values pushed */
207 0 1 
DELTAP1[ ]	/* DeltaExceptionP1 */
PUSHB[ ]	/* 3 values pushed */
159 0 1 
DELTAP2[ ]	/* DeltaExceptionP2 */
PUSHB[ ]	/* 3 values pushed */
47 0 1 
DELTAP1[ ]	/* DeltaExceptionP1 */
PUSHB[ ]	/* 3 values pushed */
95 0 1 
DELTAP3[ ]	/* DeltaExceptionP3 */
PUSHB[ ]	/* 1 value pushed */
13 
SRP0[ ]	/* SetRefPoint0 */
PUSHB[ ]	/* 2 values pushed */
6 1 
PUSHB[ ]	/* 1 value pushed */
10 
CALL[ ]	/* CallFunction */
IF[ ]	/* If */
POP[ ]	/* PopTopStack */
MDRP[11000]	/* MoveDirectRelPt */
ELSE[ ]	/* Else */
MIRP[10100]	/* MoveIndirectRelPt */
EIF[ ]	/* EndIf */
PUSHB[ ]	/* 1 value pushed */
13 
SRP0[ ]	/* SetRefPoint0 */
PUSHB[ ]	/* 1 value pushed */
9 
MDRP[10000]	/* MoveDirectRelPt */
PUSHB[ ]	/* 1 value pushed */
0 
SRP0[ ]	/* SetRefPoint0 */
PUSHB[ ]	/* 2 values pushed */
38 1 
PUSHB[ ]	/* 1 value pushed */
10 
CALL[ ]	/* CallFunction */
IF[ ]	/* If */
POP[ ]	/* PopTopStack */
MDRP[11000]	/* MoveDirectRelPt */
ELSE[ ]	/* Else */
MIRP[10100]	/* MoveIndirectRelPt */
EIF[ ]	/* EndIf */
PUSHB[ ]	/* 3 values pushed */
19 38 0 
SRP1[ ]	/* SetRefPoint1 */
SRP2[ ]	/* SetRefPoint2 */
IP[ ]	/* InterpolatePts */
PUSHB[ ]	/* 1 value pushed */
25 
SRP0[ ]	/* SetRefPoint0 */
PUSHB[ ]	/* 1 value pushed */
28 
MDRP[10000]	/* MoveDirectRelPt */
PUSHB[ ]	/* 1 value pushed */
25 
SRP0[ ]	/* SetRefPoint0 */
PUSHB[ ]	/* 2 values pushed */
31 1 
PUSHB[ ]	/* 1 value pushed */
10 
CALL[ ]	/* CallFunction */
IF[ ]	/* If */
POP[ ]	/* PopTopStack */
MDRP[11000]	/* MoveDirectRelPt */
ELSE[ ]	/* Else */
MIRP[10100]	/* MoveIndirectRelPt */
EIF[ ]	/* EndIf */
IUP[0]	/* InterpolateUntPts */
IUP[1]	/* InterpolateUntPts */";
};
width = 1121;
}
);
note = uni0033;
unicode = 51;
},
{
glyphname = four;
lastChange = "2020-12-06 18:37:19 +0000";
layers = (
{
layerId = "A9B054E9-1A63-4AEF-9EE1-561B1DFE8422";
shapes = (
{
closed = 1;
nodes = (
(954,0,l),
(954,315,l),
(1119,315,l),
(1119,548,l),
(954,548,l),
(954,1456,l),
(662,1456,l),
(55,497,l),
(68,315,l),
(665,315,l),
(665,0,l)
);
},
{
closed = 1;
nodes = (
(646,1029,l),
(665,1062,l),
(665,548,l),
(343,548,l)
);
}
);
userData = {
assembly = "SVTCA[0]	/* SetFreedomAndProjectionVectorToAxis */
PUSHB[ ]	/* 1 value pushed */
0 
RCVT[ ]	/* ReadCVT */
IF[ ]	/* If */
PUSHB[ ]	/* 1 value pushed */
9 
MDAP[1]	/* MoveDirectAbsPt */
ELSE[ ]	/* Else */
PUSHB[ ]	/* 2 values pushed */
9 30 
MIAP[0]	/* MoveIndirectAbsPt */
EIF[ ]	/* EndIf */
PUSHB[ ]	/* 1 value pushed */
0 
RCVT[ ]	/* ReadCVT */
IF[ ]	/* If */
PUSHB[ ]	/* 1 value pushed */
4 
MDAP[1]	/* MoveDirectAbsPt */
ELSE[ ]	/* Else */
PUSHB[ ]	/* 2 values pushed */
4 18 
MIAP[0]	/* MoveIndirectAbsPt */
EIF[ ]	/* EndIf */
PUSHB[ ]	/* 3 values pushed */
1 9 4 
SRP1[ ]	/* SetRefPoint1 */
SRP2[ ]	/* SetRefPoint2 */
IP[ ]	/* InterpolatePts */
PUSHB[ ]	/* 1 value pushed */
1 
MDAP[1]	/* MoveDirectAbsPt */
PUSHB[ ]	/* 2 values pushed */
2 1 
PUSHB[ ]	/* 1 value pushed */
10 
CALL[ ]	/* CallFunction */
IF[ ]	/* If */
POP[ ]	/* PopTopStack */
MDRP[11000]	/* MoveDirectRelPt */
ELSE[ ]	/* Else */
MIRP[10100]	/* MoveIndirectRelPt */
EIF[ ]	/* EndIf */
PUSHB[ ]	/* 1 value pushed */
6 
MDRP[10000]	/* MoveDirectRelPt */
PUSHB[ ]	/* 1 value pushed */
1 
SRP0[ ]	/* SetRefPoint0 */
PUSHB[ ]	/* 1 value pushed */
11 
MDRP[10000]	/* MoveDirectRelPt */
PUSHB[ ]	/* 3 values pushed */
8 6 11 
SRP1[ ]	/* SetRefPoint1 */
SRP2[ ]	/* SetRefPoint2 */
IP[ ]	/* InterpolatePts */
PUSHB[ ]	/* 3 values pushed */
13 9 4 
SRP1[ ]	/* SetRefPoint1 */
SRP2[ ]	/* SetRefPoint2 */
IP[ ]	/* InterpolatePts */
IUP[0]	/* InterpolateUntPts */
IUP[1]	/* InterpolateUntPts */";
};
width = 1175;
},
{
layerId = m002;
shapes = (
{
closed = 1;
nodes = (
(902,0,l),
(902,338,l),
(1104,338,l),
(1104,489,l),
(902,489,l),
(902,1456,l),
(705,1456,l),
(53,447,l),
(53,338,l),
(716,338,l),
(716,0,l)
);
},
{
closed = 1;
nodes = (
(694,1163,l),
(716,1203,l),
(716,489,l),
(263,489,l)
);
}
);
userData = {
assembly = "SVTCA[0]	/* SetFreedomAndProjectionVectorToAxis */
PUSHB[ ]	/* 1 value pushed */
0 
RCVT[ ]	/* ReadCVT */
IF[ ]	/* If */
PUSHB[ ]	/* 1 value pushed */
9 
MDAP[1]	/* MoveDirectAbsPt */
ELSE[ ]	/* Else */
PUSHB[ ]	/* 2 values pushed */
9 30 
MIAP[0]	/* MoveIndirectAbsPt */
EIF[ ]	/* EndIf */
PUSHB[ ]	/* 1 value pushed */
0 
RCVT[ ]	/* ReadCVT */
IF[ ]	/* If */
PUSHB[ ]	/* 1 value pushed */
4 
MDAP[1]	/* MoveDirectAbsPt */
ELSE[ ]	/* Else */
PUSHB[ ]	/* 2 values pushed */
4 18 
MIAP[0]	/* MoveIndirectAbsPt */
EIF[ ]	/* EndIf */
PUSHB[ ]	/* 3 values pushed */
1 9 4 
SRP1[ ]	/* SetRefPoint1 */
SRP2[ ]	/* SetRefPoint2 */
IP[ ]	/* InterpolatePts */
PUSHB[ ]	/* 1 value pushed */
1 
MDAP[1]	/* MoveDirectAbsPt */
PUSHB[ ]	/* 2 values pushed */
2 1 
PUSHB[ ]	/* 1 value pushed */
10 
CALL[ ]	/* CallFunction */
IF[ ]	/* If */
POP[ ]	/* PopTopStack */
MDRP[11000]	/* MoveDirectRelPt */
ELSE[ ]	/* Else */
MIRP[10100]	/* MoveIndirectRelPt */
EIF[ ]	/* EndIf */
PUSHB[ ]	/* 1 value pushed */
6 
MDRP[10000]	/* MoveDirectRelPt */
PUSHB[ ]	/* 1 value pushed */
1 
SRP0[ ]	/* SetRefPoint0 */
PUSHB[ ]	/* 1 value pushed */
11 
MDRP[10000]	/* MoveDirectRelPt */
PUSHB[ ]	/* 3 values pushed */
8 6 11 
SRP1[ ]	/* SetRefPoint1 */
SRP2[ ]	/* SetRefPoint2 */
IP[ ]	/* InterpolatePts */
PUSHB[ ]	/* 3 values pushed */
13 9 4 
SRP1[ ]	/* SetRefPoint1 */
SRP2[ ]	/* SetRefPoint2 */
IP[ ]	/* InterpolatePts */
IUP[0]	/* InterpolateUntPts */
IUP[1]	/* InterpolateUntPts */";
};
width = 1150;
},
{
layerId = m003;
shapes = (
{
closed = 1;
nodes = (
(842,0,l),
(842,397,l),
(1094,397,l),
(1094,451,l),
(842,451,l),
(842,1456,l),
(777,1456,l),
(82,427,l),
(82,397,l),
(788,397,l),
(788,0,l)
);
},
{
closed = 1;
nodes = (
(704,1253,l),
(788,1391,l),
(788,451,l),
(166,451,l)
);
}
);
userData = {
assembly = "SVTCA[0]	/* SetFreedomAndProjectionVectorToAxis */
PUSHB[ ]	/* 1 value pushed */
0 
RCVT[ ]	/* ReadCVT */
IF[ ]	/* If */
PUSHB[ ]	/* 1 value pushed */
9 
MDAP[1]	/* MoveDirectAbsPt */
ELSE[ ]	/* Else */
PUSHB[ ]	/* 2 values pushed */
9 30 
MIAP[0]	/* MoveIndirectAbsPt */
EIF[ ]	/* EndIf */
PUSHB[ ]	/* 1 value pushed */
0 
RCVT[ ]	/* ReadCVT */
IF[ ]	/* If */
PUSHB[ ]	/* 1 value pushed */
4 
MDAP[1]	/* MoveDirectAbsPt */
ELSE[ ]	/* Else */
PUSHB[ ]	/* 2 values pushed */
4 18 
MIAP[0]	/* MoveIndirectAbsPt */
EIF[ ]	/* EndIf */
PUSHB[ ]	/* 3 values pushed */
1 9 4 
SRP1[ ]	/* SetRefPoint1 */
SRP2[ ]	/* SetRefPoint2 */
IP[ ]	/* InterpolatePts */
PUSHB[ ]	/* 1 value pushed */
1 
MDAP[1]	/* MoveDirectAbsPt */
PUSHB[ ]	/* 2 values pushed */
2 1 
PUSHB[ ]	/* 1 value pushed */
10 
CALL[ ]	/* CallFunction */
IF[ ]	/* If */
POP[ ]	/* PopTopStack */
MDRP[11000]	/* MoveDirectRelPt */
ELSE[ ]	/* Else */
MIRP[10100]	/* MoveIndirectRelPt */
EIF[ ]	/* EndIf */
PUSHB[ ]	/* 1 value pushed */
6 
MDRP[10000]	/* MoveDirectRelPt */
PUSHB[ ]	/* 1 value pushed */
1 
SRP0[ ]	/* SetRefPoint0 */
PUSHB[ ]	/* 1 value pushed */
11 
MDRP[10000]	/* MoveDirectRelPt */
PUSHB[ ]	/* 3 values pushed */
8 6 11 
SRP1[ ]	/* SetRefPoint1 */
SRP2[ ]	/* SetRefPoint2 */
IP[ ]	/* InterpolatePts */
PUSHB[ ]	/* 3 values pushed */
13 9 4 
SRP1[ ]	/* SetRefPoint1 */
SRP2[ ]	/* SetRefPoint2 */
IP[ ]	/* InterpolatePts */
IUP[0]	/* InterpolateUntPts */
IUP[1]	/* InterpolateUntPts */";
};
width = 1121;
},
{
layerId = m004;
shapes = (
{
closed = 1;
nodes = (
(711,0,l),
(771,338,l),
(973,338,l),
(999,489,l),
(797,489,l),
(968,1456,l),
(771,1456,l),
(-59,447,l),
(-78,338,l),
(585,338,l),
(525,0,l)
);
},
{
closed = 1;
nodes = (
(708,1163,l),
(737,1203,l),
(611,489,l),
(158,489,l)
);
}
);
userData = {
assembly = "SVTCA[0]	/* SetFreedomAndProjectionVectorToAxis */
PUSHB[ ]	/* 1 value pushed */
0 
RCVT[ ]	/* ReadCVT */
IF[ ]	/* If */
PUSHB[ ]	/* 1 value pushed */
9 
MDAP[1]	/* MoveDirectAbsPt */
ELSE[ ]	/* Else */
PUSHB[ ]	/* 2 values pushed */
9 30 
MIAP[0]	/* MoveIndirectAbsPt */
EIF[ ]	/* EndIf */
PUSHB[ ]	/* 1 value pushed */
0 
RCVT[ ]	/* ReadCVT */
IF[ ]	/* If */
PUSHB[ ]	/* 1 value pushed */
4 
MDAP[1]	/* MoveDirectAbsPt */
ELSE[ ]	/* Else */
PUSHB[ ]	/* 2 values pushed */
4 18 
MIAP[0]	/* MoveIndirectAbsPt */
EIF[ ]	/* EndIf */
PUSHB[ ]	/* 3 values pushed */
1 9 4 
SRP1[ ]	/* SetRefPoint1 */
SRP2[ ]	/* SetRefPoint2 */
IP[ ]	/* InterpolatePts */
PUSHB[ ]	/* 1 value pushed */
1 
MDAP[1]	/* MoveDirectAbsPt */
PUSHB[ ]	/* 2 values pushed */
2 1 
PUSHB[ ]	/* 1 value pushed */
10 
CALL[ ]	/* CallFunction */
IF[ ]	/* If */
POP[ ]	/* PopTopStack */
MDRP[11000]	/* MoveDirectRelPt */
ELSE[ ]	/* Else */
MIRP[10100]	/* MoveIndirectRelPt */
EIF[ ]	/* EndIf */
PUSHB[ ]	/* 1 value pushed */
6 
MDRP[10000]	/* MoveDirectRelPt */
PUSHB[ ]	/* 1 value pushed */
1 
SRP0[ ]	/* SetRefPoint0 */
PUSHB[ ]	/* 1 value pushed */
11 
MDRP[10000]	/* MoveDirectRelPt */
PUSHB[ ]	/* 3 values pushed */
8 6 11 
SRP1[ ]	/* SetRefPoint1 */
SRP2[ ]	/* SetRefPoint2 */
IP[ ]	/* InterpolatePts */
PUSHB[ ]	/* 3 values pushed */
13 9 4 
SRP1[ ]	/* SetRefPoint1 */
SRP2[ ]	/* SetRefPoint2 */
IP[ ]	/* InterpolatePts */
IUP[0]	/* InterpolateUntPts */
IUP[1]	/* InterpolateUntPts */";
};
width = 1150;
},
{
layerId = m005;
shapes = (
{
closed = 1;
nodes = (
(651,0,l),
(721,397,l),
(973,397,l),
(983,451,l),
(731,451,l),
(908,1456,l),
(843,1456,l),
(-33,427,l),
(-39,397,l),
(667,397,l),
(597,0,l)
);
},
{
closed = 1;
nodes = (
(734,1253,l),
(842,1391,l),
(677,451,l),
(55,451,l)
);
}
);
userData = {
assembly = "SVTCA[0]	/* SetFreedomAndProjectionVectorToAxis */
PUSHB[ ]	/* 1 value pushed */
0 
RCVT[ ]	/* ReadCVT */
IF[ ]	/* If */
PUSHB[ ]	/* 1 value pushed */
9 
MDAP[1]	/* MoveDirectAbsPt */
ELSE[ ]	/* Else */
PUSHB[ ]	/* 2 values pushed */
9 30 
MIAP[0]	/* MoveIndirectAbsPt */
EIF[ ]	/* EndIf */
PUSHB[ ]	/* 1 value pushed */
0 
RCVT[ ]	/* ReadCVT */
IF[ ]	/* If */
PUSHB[ ]	/* 1 value pushed */
4 
MDAP[1]	/* MoveDirectAbsPt */
ELSE[ ]	/* Else */
PUSHB[ ]	/* 2 values pushed */
4 18 
MIAP[0]	/* MoveIndirectAbsPt */
EIF[ ]	/* EndIf */
PUSHB[ ]	/* 3 values pushed */
1 9 4 
SRP1[ ]	/* SetRefPoint1 */
SRP2[ ]	/* SetRefPoint2 */
IP[ ]	/* InterpolatePts */
PUSHB[ ]	/* 1 value pushed */
1 
MDAP[1]	/* MoveDirectAbsPt */
PUSHB[ ]	/* 2 values pushed */
2 1 
PUSHB[ ]	/* 1 value pushed */
10 
CALL[ ]	/* CallFunction */
IF[ ]	/* If */
POP[ ]	/* PopTopStack */
MDRP[11000]	/* MoveDirectRelPt */
ELSE[ ]	/* Else */
MIRP[10100]	/* MoveIndirectRelPt */
EIF[ ]	/* EndIf */
PUSHB[ ]	/* 1 value pushed */
6 
MDRP[10000]	/* MoveDirectRelPt */
PUSHB[ ]	/* 1 value pushed */
1 
SRP0[ ]	/* SetRefPoint0 */
PUSHB[ ]	/* 1 value pushed */
11 
MDRP[10000]	/* MoveDirectRelPt */
PUSHB[ ]	/* 3 values pushed */
8 6 11 
SRP1[ ]	/* SetRefPoint1 */
SRP2[ ]	/* SetRefPoint2 */
IP[ ]	/* InterpolatePts */
PUSHB[ ]	/* 3 values pushed */
13 9 4 
SRP1[ ]	/* SetRefPoint1 */
SRP2[ ]	/* SetRefPoint2 */
IP[ ]	/* InterpolatePts */
IUP[0]	/* InterpolateUntPts */
IUP[1]	/* InterpolateUntPts */";
};
width = 1121;
}
);
note = uni0034;
unicode = 52;
},
{
glyphname = five;
lastChange = "2020-12-09 01:01:34 +0000";
layers = (
{
layerId = "A9B054E9-1A63-4AEF-9EE1-561B1DFE8422";
shapes = (
{
closed = 1;
nodes = (
(913,-20,o),
(1090,191,o),
(1090,467,cs),
(1090,776.333,o),
(923.333,957,o),
(646,957,cs),
(568.667,957,o),
(495.667,938.667,o),
(427,902,c),
(463,1215,l),
(1042,1215,l),
(1042,1456,l),
(226,1456,l),
(142,716,l),
(372,659,l),
(441,723,o),
(498.333,739,o),
(567,739,cs),
(716.333,739,o),
(801,648.333,o),
(801,483,cs),
(801,311,o),
(727.667,213,o),
(597,213,cs),
(479.667,213,o),
(403,283.667,o),
(391,405,c),
(105,405,l),
(116.184,29.12,o),
(500,-20,o),
(598,-20,cs)
);
}
);
userData = {
assembly = "SVTCA[0]	/* SetFreedomAndProjectionVectorToAxis */
PUSHB[ ]	/* 1 value pushed */
0 
RCVT[ ]	/* ReadCVT */
IF[ ]	/* If */
PUSHB[ ]	/* 1 value pushed */
1 
MDAP[1]	/* MoveDirectAbsPt */
ELSE[ ]	/* Else */
PUSHB[ ]	/* 2 values pushed */
1 30 
MIAP[0]	/* MoveIndirectAbsPt */
EIF[ ]	/* EndIf */
PUSHB[ ]	/* 1 value pushed */
0 
RCVT[ ]	/* ReadCVT */
IF[ ]	/* If */
PUSHB[ ]	/* 1 value pushed */
13 
MDAP[1]	/* MoveDirectAbsPt */
ELSE[ ]	/* Else */
PUSHB[ ]	/* 2 values pushed */
13 18 
MIAP[0]	/* MoveIndirectAbsPt */
EIF[ ]	/* EndIf */
PUSHB[ ]	/* 1 value pushed */
1 
SRP0[ ]	/* SetRefPoint0 */
PUSHB[ ]	/* 2 values pushed */
4 1 
PUSHB[ ]	/* 1 value pushed */
10 
CALL[ ]	/* CallFunction */
IF[ ]	/* If */
POP[ ]	/* PopTopStack */
MDRP[11000]	/* MoveDirectRelPt */
ELSE[ ]	/* Else */
MIRP[10100]	/* MoveIndirectRelPt */
EIF[ ]	/* EndIf */
PUSHB[ ]	/* 3 values pushed */
7 13 1 
SRP1[ ]	/* SetRefPoint1 */
SRP2[ ]	/* SetRefPoint2 */
IP[ ]	/* InterpolatePts */
PUSHB[ ]	/* 1 value pushed */
7 
MDAP[1]	/* MoveDirectAbsPt */
PUSHB[ ]	/* 2 values pushed */
26 1 
PUSHB[ ]	/* 1 value pushed */
10 
CALL[ ]	/* CallFunction */
IF[ ]	/* If */
POP[ ]	/* PopTopStack */
MDRP[11000]	/* MoveDirectRelPt */
ELSE[ ]	/* Else */
MIRP[10100]	/* MoveIndirectRelPt */
EIF[ ]	/* EndIf */
PUSHB[ ]	/* 3 values pushed */
5 7 26 
SRP1[ ]	/* SetRefPoint1 */
SRP2[ ]	/* SetRefPoint2 */
IP[ ]	/* InterpolatePts */
PUSHB[ ]	/* 1 value pushed */
13 
SRP0[ ]	/* SetRefPoint0 */
PUSHB[ ]	/* 1 value pushed */
17 
MDRP[10000]	/* MoveDirectRelPt */
PUSHB[ ]	/* 1 value pushed */
13 
SRP0[ ]	/* SetRefPoint0 */
PUSHB[ ]	/* 2 values pushed */
20 1 
PUSHB[ ]	/* 1 value pushed */
10 
CALL[ ]	/* CallFunction */
IF[ ]	/* If */
POP[ ]	/* PopTopStack */
MDRP[11000]	/* MoveDirectRelPt */
ELSE[ ]	/* Else */
MIRP[10100]	/* MoveIndirectRelPt */
EIF[ ]	/* EndIf */
PUSHB[ ]	/* 1 value pushed */
7 
SRP0[ ]	/* SetRefPoint0 */
PUSHB[ ]	/* 1 value pushed */
29 
MDRP[10000]	/* MoveDirectRelPt */
IUP[0]	/* InterpolateUntPts */
IUP[1]	/* InterpolateUntPts */";
};
width = 1175;
},
{
layerId = m002;
shapes = (
{
closed = 1;
nodes = (
(898.667,-20,o),
(1069,164,o),
(1069,464,cs),
(1069,762.667,o),
(901.333,951,o),
(636,951,cs),
(545.333,951,o),
(464.333,930,o),
(393,888,c),
(437,1285,l),
(1026,1285,l),
(1026,1456,l),
(280,1456,l),
(206,730,l),
(354,692,l),
(449,767.333,o),
(512.333,785,o),
(593,785,cs),
(769,785,o),
(884,656.667,o),
(884,462,cs),
(884,255.333,o),
(780,131,o),
(608,131,cs),
(450.667,131,o),
(351.667,216.333,o),
(329,383,c),
(154,383,l),
(176.667,131,o),
(350.667,-20,o),
(608,-20,cs)
);
}
);
userData = {
assembly = "SVTCA[0]	/* SetFreedomAndProjectionVectorToAxis */
PUSHB[ ]	/* 1 value pushed */
0 
RCVT[ ]	/* ReadCVT */
IF[ ]	/* If */
PUSHB[ ]	/* 1 value pushed */
1 
MDAP[1]	/* MoveDirectAbsPt */
ELSE[ ]	/* Else */
PUSHB[ ]	/* 2 values pushed */
1 30 
MIAP[0]	/* MoveIndirectAbsPt */
EIF[ ]	/* EndIf */
PUSHB[ ]	/* 1 value pushed */
0 
RCVT[ ]	/* ReadCVT */
IF[ ]	/* If */
PUSHB[ ]	/* 1 value pushed */
13 
MDAP[1]	/* MoveDirectAbsPt */
ELSE[ ]	/* Else */
PUSHB[ ]	/* 2 values pushed */
13 18 
MIAP[0]	/* MoveIndirectAbsPt */
EIF[ ]	/* EndIf */
PUSHB[ ]	/* 1 value pushed */
1 
SRP0[ ]	/* SetRefPoint0 */
PUSHB[ ]	/* 2 values pushed */
4 1 
PUSHB[ ]	/* 1 value pushed */
10 
CALL[ ]	/* CallFunction */
IF[ ]	/* If */
POP[ ]	/* PopTopStack */
MDRP[11000]	/* MoveDirectRelPt */
ELSE[ ]	/* Else */
MIRP[10100]	/* MoveIndirectRelPt */
EIF[ ]	/* EndIf */
PUSHB[ ]	/* 3 values pushed */
7 13 1 
SRP1[ ]	/* SetRefPoint1 */
SRP2[ ]	/* SetRefPoint2 */
IP[ ]	/* InterpolatePts */
PUSHB[ ]	/* 1 value pushed */
7 
MDAP[1]	/* MoveDirectAbsPt */
PUSHB[ ]	/* 2 values pushed */
26 1 
PUSHB[ ]	/* 1 value pushed */
10 
CALL[ ]	/* CallFunction */
IF[ ]	/* If */
POP[ ]	/* PopTopStack */
MDRP[11000]	/* MoveDirectRelPt */
ELSE[ ]	/* Else */
MIRP[10100]	/* MoveIndirectRelPt */
EIF[ ]	/* EndIf */
PUSHB[ ]	/* 3 values pushed */
5 7 26 
SRP1[ ]	/* SetRefPoint1 */
SRP2[ ]	/* SetRefPoint2 */
IP[ ]	/* InterpolatePts */
PUSHB[ ]	/* 1 value pushed */
13 
SRP0[ ]	/* SetRefPoint0 */
PUSHB[ ]	/* 1 value pushed */
17 
MDRP[10000]	/* MoveDirectRelPt */
PUSHB[ ]	/* 1 value pushed */
13 
SRP0[ ]	/* SetRefPoint0 */
PUSHB[ ]	/* 2 values pushed */
20 1 
PUSHB[ ]	/* 1 value pushed */
10 
CALL[ ]	/* CallFunction */
IF[ ]	/* If */
POP[ ]	/* PopTopStack */
MDRP[11000]	/* MoveDirectRelPt */
ELSE[ ]	/* Else */
MIRP[10100]	/* MoveIndirectRelPt */
EIF[ ]	/* EndIf */
PUSHB[ ]	/* 1 value pushed */
7 
SRP0[ ]	/* SetRefPoint0 */
PUSHB[ ]	/* 1 value pushed */
29 
MDRP[10000]	/* MoveDirectRelPt */
IUP[0]	/* InterpolateUntPts */
IUP[1]	/* InterpolateUntPts */";
};
width = 1150;
},
{
layerId = m003;
shapes = (
{
closed = 1;
nodes = (
(878,-20,o),
(1024,148,o),
(1024,464,cs),
(1024,736,o),
(855.333,916,o),
(594,916,cs),
(484.667,916,o),
(358.333,876.333,o),
(289,819,c),
(348,1403,l),
(1009,1403,l),
(1009,1456,l),
(299,1456,l),
(231,762,l),
(272,746,l),
(354.667,826,o),
(455,862,o),
(595,862,cs),
(823,862,o),
(969,704.667,o),
(969,462,cs),
(969,180.667,o),
(854,34,o),
(614,34,cs),
(388.667,34,o),
(258.333,155,o),
(237,383,c),
(182,383,l),
(202,131,o),
(364.667,-20,o),
(614,-20,cs)
);
}
);
userData = {
assembly = "SVTCA[0]	/* SetFreedomAndProjectionVectorToAxis */
PUSHB[ ]	/* 1 value pushed */
0 
RCVT[ ]	/* ReadCVT */
IF[ ]	/* If */
PUSHB[ ]	/* 1 value pushed */
1 
MDAP[1]	/* MoveDirectAbsPt */
ELSE[ ]	/* Else */
PUSHB[ ]	/* 2 values pushed */
1 30 
MIAP[0]	/* MoveIndirectAbsPt */
EIF[ ]	/* EndIf */
PUSHB[ ]	/* 1 value pushed */
0 
RCVT[ ]	/* ReadCVT */
IF[ ]	/* If */
PUSHB[ ]	/* 1 value pushed */
13 
MDAP[1]	/* MoveDirectAbsPt */
ELSE[ ]	/* Else */
PUSHB[ ]	/* 2 values pushed */
13 18 
MIAP[0]	/* MoveIndirectAbsPt */
EIF[ ]	/* EndIf */
PUSHB[ ]	/* 1 value pushed */
1 
SRP0[ ]	/* SetRefPoint0 */
PUSHB[ ]	/* 2 values pushed */
4 1 
PUSHB[ ]	/* 1 value pushed */
10 
CALL[ ]	/* CallFunction */
IF[ ]	/* If */
POP[ ]	/* PopTopStack */
MDRP[11000]	/* MoveDirectRelPt */
ELSE[ ]	/* Else */
MIRP[10100]	/* MoveIndirectRelPt */
EIF[ ]	/* EndIf */
PUSHB[ ]	/* 3 values pushed */
7 13 1 
SRP1[ ]	/* SetRefPoint1 */
SRP2[ ]	/* SetRefPoint2 */
IP[ ]	/* InterpolatePts */
PUSHB[ ]	/* 1 value pushed */
7 
MDAP[1]	/* MoveDirectAbsPt */
PUSHB[ ]	/* 2 values pushed */
26 1 
PUSHB[ ]	/* 1 value pushed */
10 
CALL[ ]	/* CallFunction */
IF[ ]	/* If */
POP[ ]	/* PopTopStack */
MDRP[11000]	/* MoveDirectRelPt */
ELSE[ ]	/* Else */
MIRP[10100]	/* MoveIndirectRelPt */
EIF[ ]	/* EndIf */
PUSHB[ ]	/* 3 values pushed */
5 7 26 
SRP1[ ]	/* SetRefPoint1 */
SRP2[ ]	/* SetRefPoint2 */
IP[ ]	/* InterpolatePts */
PUSHB[ ]	/* 1 value pushed */
13 
SRP0[ ]	/* SetRefPoint0 */
PUSHB[ ]	/* 1 value pushed */
17 
MDRP[10000]	/* MoveDirectRelPt */
PUSHB[ ]	/* 1 value pushed */
13 
SRP0[ ]	/* SetRefPoint0 */
PUSHB[ ]	/* 2 values pushed */
20 1 
PUSHB[ ]	/* 1 value pushed */
10 
CALL[ ]	/* CallFunction */
IF[ ]	/* If */
POP[ ]	/* PopTopStack */
MDRP[11000]	/* MoveDirectRelPt */
ELSE[ ]	/* Else */
MIRP[10100]	/* MoveIndirectRelPt */
EIF[ ]	/* EndIf */
PUSHB[ ]	/* 1 value pushed */
7 
SRP0[ ]	/* SetRefPoint0 */
PUSHB[ ]	/* 1 value pushed */
29 
MDRP[10000]	/* MoveDirectRelPt */
IUP[0]	/* InterpolateUntPts */
IUP[1]	/* InterpolateUntPts */";
};
width = 1121;
},
{
layerId = m004;
shapes = (
{
closed = 1;
nodes = (
(704,-20,o),
(907,164,o),
(960,464,cs),
(1013,763,o),
(878,951,o),
(613,951,cs),
(522,951,o),
(438,930,o),
(359,888,c),
(473,1285,l),
(1062,1285,l),
(1092,1456,l),
(346,1456,l),
(144,730,l),
(285,692,l),
(394,767,o),
(460,785,o),
(541,785,cs),
(717,785,o),
(809,657,o),
(775,462,cs),
(738,255,o),
(612,131,o),
(440,131,cs),
(283,131,o),
(199,216,o),
(206,383,c),
(31,383,l),
(9,131,o),
(156,-20,o),
(414,-20,cs)
);
}
);
userData = {
assembly = "SVTCA[0]	/* SetFreedomAndProjectionVectorToAxis */
PUSHB[ ]	/* 1 value pushed */
0 
RCVT[ ]	/* ReadCVT */
IF[ ]	/* If */
PUSHB[ ]	/* 1 value pushed */
1 
MDAP[1]	/* MoveDirectAbsPt */
ELSE[ ]	/* Else */
PUSHB[ ]	/* 2 values pushed */
1 30 
MIAP[0]	/* MoveIndirectAbsPt */
EIF[ ]	/* EndIf */
PUSHB[ ]	/* 1 value pushed */
0 
RCVT[ ]	/* ReadCVT */
IF[ ]	/* If */
PUSHB[ ]	/* 1 value pushed */
13 
MDAP[1]	/* MoveDirectAbsPt */
ELSE[ ]	/* Else */
PUSHB[ ]	/* 2 values pushed */
13 18 
MIAP[0]	/* MoveIndirectAbsPt */
EIF[ ]	/* EndIf */
PUSHB[ ]	/* 1 value pushed */
1 
SRP0[ ]	/* SetRefPoint0 */
PUSHB[ ]	/* 2 values pushed */
4 1 
PUSHB[ ]	/* 1 value pushed */
10 
CALL[ ]	/* CallFunction */
IF[ ]	/* If */
POP[ ]	/* PopTopStack */
MDRP[11000]	/* MoveDirectRelPt */
ELSE[ ]	/* Else */
MIRP[10100]	/* MoveIndirectRelPt */
EIF[ ]	/* EndIf */
PUSHB[ ]	/* 3 values pushed */
7 13 1 
SRP1[ ]	/* SetRefPoint1 */
SRP2[ ]	/* SetRefPoint2 */
IP[ ]	/* InterpolatePts */
PUSHB[ ]	/* 1 value pushed */
7 
MDAP[1]	/* MoveDirectAbsPt */
PUSHB[ ]	/* 2 values pushed */
26 1 
PUSHB[ ]	/* 1 value pushed */
10 
CALL[ ]	/* CallFunction */
IF[ ]	/* If */
POP[ ]	/* PopTopStack */
MDRP[11000]	/* MoveDirectRelPt */
ELSE[ ]	/* Else */
MIRP[10100]	/* MoveIndirectRelPt */
EIF[ ]	/* EndIf */
PUSHB[ ]	/* 3 values pushed */
5 7 26 
SRP1[ ]	/* SetRefPoint1 */
SRP2[ ]	/* SetRefPoint2 */
IP[ ]	/* InterpolatePts */
PUSHB[ ]	/* 1 value pushed */
13 
SRP0[ ]	/* SetRefPoint0 */
PUSHB[ ]	/* 1 value pushed */
17 
MDRP[10000]	/* MoveDirectRelPt */
PUSHB[ ]	/* 1 value pushed */
13 
SRP0[ ]	/* SetRefPoint0 */
PUSHB[ ]	/* 2 values pushed */
20 1 
PUSHB[ ]	/* 1 value pushed */
10 
CALL[ ]	/* CallFunction */
IF[ ]	/* If */
POP[ ]	/* PopTopStack */
MDRP[11000]	/* MoveDirectRelPt */
ELSE[ ]	/* Else */
MIRP[10100]	/* MoveIndirectRelPt */
EIF[ ]	/* EndIf */
PUSHB[ ]	/* 1 value pushed */
7 
SRP0[ ]	/* SetRefPoint0 */
PUSHB[ ]	/* 1 value pushed */
29 
MDRP[10000]	/* MoveDirectRelPt */
IUP[0]	/* InterpolateUntPts */
IUP[1]	/* InterpolateUntPts */";
};
width = 1150;
},
{
layerId = m005;
shapes = (
{
closed = 1;
nodes = (
(684,-20,o),
(859,148,o),
(915,464,cs),
(963,736,o),
(826,916,o),
(565,916,cs),
(455,916,o),
(322,876,o),
(243,819,c),
(405,1403,l),
(1066,1403,l),
(1075,1456,l),
(365,1456,l),
(175,762,l),
(213,746,l),
(310,826,o),
(416,862,o),
(556,862,cs),
(784,862,o),
(902,705,o),
(860,462,cs),
(810,181,o),
(669,34,o),
(429,34,cs),
(204,34,o),
(95,155,o),
(114,383,c),
(59,383,l),
(34,131,o),
(170,-20,o),
(420,-20,cs)
);
}
);
userData = {
assembly = "SVTCA[0]	/* SetFreedomAndProjectionVectorToAxis */
PUSHB[ ]	/* 1 value pushed */
0 
RCVT[ ]	/* ReadCVT */
IF[ ]	/* If */
PUSHB[ ]	/* 1 value pushed */
1 
MDAP[1]	/* MoveDirectAbsPt */
ELSE[ ]	/* Else */
PUSHB[ ]	/* 2 values pushed */
1 30 
MIAP[0]	/* MoveIndirectAbsPt */
EIF[ ]	/* EndIf */
PUSHB[ ]	/* 1 value pushed */
0 
RCVT[ ]	/* ReadCVT */
IF[ ]	/* If */
PUSHB[ ]	/* 1 value pushed */
13 
MDAP[1]	/* MoveDirectAbsPt */
ELSE[ ]	/* Else */
PUSHB[ ]	/* 2 values pushed */
13 18 
MIAP[0]	/* MoveIndirectAbsPt */
EIF[ ]	/* EndIf */
PUSHB[ ]	/* 1 value pushed */
1 
SRP0[ ]	/* SetRefPoint0 */
PUSHB[ ]	/* 2 values pushed */
4 1 
PUSHB[ ]	/* 1 value pushed */
10 
CALL[ ]	/* CallFunction */
IF[ ]	/* If */
POP[ ]	/* PopTopStack */
MDRP[11000]	/* MoveDirectRelPt */
ELSE[ ]	/* Else */
MIRP[10100]	/* MoveIndirectRelPt */
EIF[ ]	/* EndIf */
PUSHB[ ]	/* 3 values pushed */
7 13 1 
SRP1[ ]	/* SetRefPoint1 */
SRP2[ ]	/* SetRefPoint2 */
IP[ ]	/* InterpolatePts */
PUSHB[ ]	/* 1 value pushed */
7 
MDAP[1]	/* MoveDirectAbsPt */
PUSHB[ ]	/* 2 values pushed */
26 1 
PUSHB[ ]	/* 1 value pushed */
10 
CALL[ ]	/* CallFunction */
IF[ ]	/* If */
POP[ ]	/* PopTopStack */
MDRP[11000]	/* MoveDirectRelPt */
ELSE[ ]	/* Else */
MIRP[10100]	/* MoveIndirectRelPt */
EIF[ ]	/* EndIf */
PUSHB[ ]	/* 3 values pushed */
5 7 26 
SRP1[ ]	/* SetRefPoint1 */
SRP2[ ]	/* SetRefPoint2 */
IP[ ]	/* InterpolatePts */
PUSHB[ ]	/* 1 value pushed */
13 
SRP0[ ]	/* SetRefPoint0 */
PUSHB[ ]	/* 1 value pushed */
17 
MDRP[10000]	/* MoveDirectRelPt */
PUSHB[ ]	/* 1 value pushed */
13 
SRP0[ ]	/* SetRefPoint0 */
PUSHB[ ]	/* 2 values pushed */
20 1 
PUSHB[ ]	/* 1 value pushed */
10 
CALL[ ]	/* CallFunction */
IF[ ]	/* If */
POP[ ]	/* PopTopStack */
MDRP[11000]	/* MoveDirectRelPt */
ELSE[ ]	/* Else */
MIRP[10100]	/* MoveIndirectRelPt */
EIF[ ]	/* EndIf */
PUSHB[ ]	/* 1 value pushed */
7 
SRP0[ ]	/* SetRefPoint0 */
PUSHB[ ]	/* 1 value pushed */
29 
MDRP[10000]	/* MoveDirectRelPt */
IUP[0]	/* InterpolateUntPts */
IUP[1]	/* InterpolateUntPts */";
};
width = 1121;
}
);
note = uni0035;
unicode = 53;
},
